<svg xmlns="http://www.w3.org/2000/svg" xmlns:xlink="http://www.w3.org/1999/xlink" width="855" zoomAndPan="magnify" viewBox="0 0 641.25 746.25" height="995" preserveAspectRatio="xMidYMid meet" version="1.0"><defs><clipPath id="26dc125af2"><path d="M 0 0.0625 L 640.5 0.0625 L 640.5 745.441406 L 0 745.441406 Z M 0 0.0625 " clip-rule="nonzero"/></clipPath><clipPath id="5e54086992"><path d="M 16.613281 24 L 623.890625 24 L 623.890625 722 L 16.613281 722 Z M 16.613281 24 " clip-rule="nonzero"/></clipPath><clipPath id="e608834941"><path d="M 336.4375 28.84375 L 607.703125 186.667969 C 617.722656 192.5 623.890625 203.222656 623.890625 214.816406 L 623.890625 530.683594 C 623.890625 542.28125 617.722656 553 607.703125 558.832031 L 336.4375 716.65625 C 326.429688 722.480469 314.070312 722.480469 304.0625 716.65625 L 32.800781 558.832031 C 22.777344 553 16.613281 542.28125 16.613281 530.683594 L 16.613281 214.816406 C 16.613281 203.222656 22.777344 192.5 32.800781 186.667969 L 304.0625 28.84375 C 314.070312 23.023438 326.429688 23.023438 336.4375 28.84375 " clip-rule="nonzero"/></clipPath><clipPath id="f066a88ef2"><path d="M 16.613281 24 L 624.152344 24 L 624.152344 721 L 16.613281 721 Z M 16.613281 24 " clip-rule="nonzero"/></clipPath><clipPath id="cd2906dce7"><path d="M 336.578125 28.84375 L 607.957031 186.617188 C 617.984375 192.445312 624.152344 203.164062 624.152344 214.753906 L 624.152344 530.519531 C 624.152344 542.113281 617.984375 552.828125 607.957031 558.65625 L 336.578125 716.433594 C 326.566406 722.253906 314.199219 722.253906 304.1875 716.433594 L 32.808594 558.65625 C 22.78125 552.828125 16.613281 542.113281 16.613281 530.519531 L 16.613281 214.753906 C 16.613281 203.164062 22.78125 192.445312 32.808594 186.617188 L 304.1875 28.84375 C 314.199219 23.023438 326.566406 23.023438 336.578125 28.84375 " clip-rule="nonzero"/></clipPath><clipPath id="ea059597d3"><path d="M 117.457031 157 L 522.734375 157 L 522.734375 588 L 117.457031 588 Z M 117.457031 157 " clip-rule="nonzero"/></clipPath><clipPath id="2f1754d4ad"><path d="M 317 157 L 522.734375 157 L 522.734375 588 L 317 588 Z M 317 157 " clip-rule="nonzero"/></clipPath></defs><g clip-path="url(#26dc125af2)"><path fill="#ffffff" d="M 0 0.0625 L 640.5 0.0625 L 640.5 745.441406 L 0 745.441406 Z M 0 0.0625 " fill-opacity="1" fill-rule="nonzero"/><path fill="#ffffff" d="M 0 0.0625 L 640.5 0.0625 L 640.5 745.441406 L 0 745.441406 Z M 0 0.0625 " fill-opacity="1" fill-rule="nonzero"/></g><g clip-path="url(#5e54086992)"><g clip-path="url(#e608834941)"><path fill="#ffffff" d="M 16.613281 19.425781 L 623.890625 19.425781 L 623.890625 726.074219 L 16.613281 726.074219 Z M 16.613281 19.425781 " fill-opacity="1" fill-rule="nonzero"/></g></g><g clip-path="url(#f066a88ef2)"><g clip-path="url(#cd2906dce7)"><path stroke-linecap="butt" transform="matrix(0.749456, 0, 0, 0.748888, 16.612045, 19.428026)" fill="none" stroke-linejoin="miter" d="M 426.931146 12.572941 L 789.032364 223.249891 C 802.411862 231.032263 810.64179 245.345151 810.64179 260.821223 L 810.64179 682.467223 C 810.64179 697.94851 802.411862 712.256182 789.032364 720.038554 L 426.931146 930.720721 C 413.572497 938.492661 397.070943 938.492661 383.712294 930.720721 L 21.611075 720.038554 C 8.231578 712.256182 0.00164935 697.94851 0.00164935 682.467223 L 0.00164935 260.821223 C 0.00164935 245.345151 8.231578 231.032263 21.611075 223.249891 L 383.712294 12.572941 C 397.070943 4.801001 413.572497 4.801001 426.931146 12.572941 " stroke="#e23237" stroke-width="64" stroke-opacity="1" stroke-miterlimit="4"/></g></g><g clip-path="url(#ea059597d3)"><path fill="#e23237" d="M 117.457031 229.039062 L 317.304688 157.871094 L 522.414062 227.9375 L 489.265625 492.390625 L 317.304688 587.566406 L 148.136719 493.625 Z M 117.457031 229.039062 " fill-opacity="1" fill-rule="nonzero"/></g><g clip-path="url(#2f1754d4ad)"><path fill="#b52e31" d="M 522.414062 227.9375 L 317.304688 157.871094 L 317.304688 587.566406 L 489.265625 492.390625 Z M 522.414062 227.9375 " fill-opacity="1" fill-rule="nonzero"/></g><path fill="#ffffff" d="M 317.613281 208.089844 L 193.078125 485.246094 L 239.550781 484.304688 L 264.644531 421.675781 L 376.03125 421.675781 L 403.296875 484.789062 L 447.609375 485.726562 Z M 317.921875 297.066406 L 360.058594 385.113281 L 281.179688 385.113281 L 318.042969 297.066406 Z M 317.921875 297.066406 " fill-opacity="1" fill-rule="nonzero"/></svg>