<svg xmlns="http://www.w3.org/2000/svg" xmlns:xlink="http://www.w3.org/1999/xlink" width="855" zoomAndPan="magnify" viewBox="0 0 641.25 746.25" height="995" preserveAspectRatio="xMidYMid meet" version="1.0"><defs><clipPath id="5084af25f4"><path d="M 0 0.0625 L 640.5 0.0625 L 640.5 745.441406 L 0 745.441406 Z M 0 0.0625 " clip-rule="nonzero"/></clipPath><clipPath id="31c9117473"><path d="M 16.613281 24 L 623.890625 24 L 623.890625 722 L 16.613281 722 Z M 16.613281 24 " clip-rule="nonzero"/></clipPath><clipPath id="3e684592f6"><path d="M 336.4375 28.84375 L 607.703125 186.667969 C 617.722656 192.5 623.890625 203.222656 623.890625 214.816406 L 623.890625 530.683594 C 623.890625 542.28125 617.722656 553 607.703125 558.832031 L 336.4375 716.65625 C 326.429688 722.480469 314.070312 722.480469 304.0625 716.65625 L 32.800781 558.832031 C 22.777344 553 16.613281 542.28125 16.613281 530.683594 L 16.613281 214.816406 C 16.613281 203.222656 22.777344 192.5 32.800781 186.667969 L 304.0625 28.84375 C 314.070312 23.023438 326.429688 23.023438 336.4375 28.84375 " clip-rule="nonzero"/></clipPath><clipPath id="5513a7ed09"><path d="M 16.613281 24 L 624.152344 24 L 624.152344 721 L 16.613281 721 Z M 16.613281 24 " clip-rule="nonzero"/></clipPath><clipPath id="4d1f02d76a"><path d="M 336.578125 28.84375 L 607.957031 186.617188 C 617.984375 192.445312 624.152344 203.164062 624.152344 214.753906 L 624.152344 530.519531 C 624.152344 542.113281 617.984375 552.828125 607.957031 558.65625 L 336.578125 716.433594 C 326.566406 722.253906 314.199219 722.253906 304.1875 716.433594 L 32.808594 558.65625 C 22.78125 552.828125 16.613281 542.113281 16.613281 530.519531 L 16.613281 214.753906 C 16.613281 203.164062 22.78125 192.445312 32.808594 186.617188 L 304.1875 28.84375 C 314.199219 23.023438 326.566406 23.023438 336.578125 28.84375 " clip-rule="nonzero"/></clipPath><clipPath id="9385384068"><path d="M 116.269531 408 L 215 408 L 215 507 L 116.269531 507 Z M 116.269531 408 " clip-rule="nonzero"/></clipPath><clipPath id="cce562a9bb"><path d="M 271 478 L 370 478 L 370 577.042969 L 271 577.042969 Z M 271 478 " clip-rule="nonzero"/></clipPath><clipPath id="3ed788e091"><path d="M 425 323 L 524.542969 323 L 524.542969 423 L 425 423 Z M 425 323 " clip-rule="nonzero"/></clipPath><clipPath id="ba8d7926a9"><path d="M 271 168.769531 L 370 168.769531 L 370 268 L 271 268 Z M 271 168.769531 " clip-rule="nonzero"/></clipPath><clipPath id="0ebeb38965"><path d="M 116.269531 225 L 215 225 L 215 324 L 116.269531 324 Z M 116.269531 225 " clip-rule="nonzero"/></clipPath></defs><g clip-path="url(#5084af25f4)"><path fill="#ffffff" d="M 0 0.0625 L 640.5 0.0625 L 640.5 745.441406 L 0 745.441406 Z M 0 0.0625 " fill-opacity="1" fill-rule="nonzero"/><path fill="#ffffff" d="M 0 0.0625 L 640.5 0.0625 L 640.5 745.441406 L 0 745.441406 Z M 0 0.0625 " fill-opacity="1" fill-rule="nonzero"/></g><g clip-path="url(#31c9117473)"><g clip-path="url(#3e684592f6)"><path fill="#ffffff" d="M 16.613281 19.425781 L 623.890625 19.425781 L 623.890625 726.074219 L 16.613281 726.074219 Z M 16.613281 19.425781 " fill-opacity="1" fill-rule="nonzero"/></g></g><g clip-path="url(#5513a7ed09)"><g clip-path="url(#4d1f02d76a)"><path stroke-linecap="butt" transform="matrix(0.749456, 0, 0, 0.748888, 16.612045, 19.427967)" fill="none" stroke-linejoin="miter" d="M 426.931146 12.573019 L 789.032364 223.24997 C 802.411862 231.032342 810.64179 245.34523 810.64179 260.821301 L 810.64179 682.467301 C 810.64179 697.948589 802.411862 712.256261 789.032364 720.038633 L 426.931146 930.720799 C 413.572497 938.492739 397.070943 938.492739 383.712294 930.720799 L 21.611075 720.038633 C 8.231578 712.256261 0.00164935 697.948589 0.00164935 682.467301 L 0.00164935 260.821301 C 0.00164935 245.34523 8.231578 231.032342 21.611075 223.24997 L 383.712294 12.573019 C 397.070943 4.801079 413.572497 4.801079 426.931146 12.573019 " stroke="#ed6571" stroke-width="64" stroke-opacity="1" stroke-miterlimit="4"/></g></g><path fill="#68607c" d="M 191.292969 257.542969 L 289.839844 221.644531 L 294.660156 234.871094 L 196.109375 270.769531 Z M 191.292969 257.542969 " fill-opacity="1" fill-rule="nonzero"/><path fill="#68607c" d="M 336.542969 244.136719 L 346.496094 234.183594 L 459.125 346.804688 L 449.167969 356.761719 Z M 336.542969 244.136719 " fill-opacity="1" fill-rule="nonzero"/><path fill="#68607c" d="M 354.632812 363.5 L 356.550781 349.558594 L 441.019531 361.171875 L 439.105469 375.113281 Z M 354.632812 363.5 " fill-opacity="1" fill-rule="nonzero"/><path fill="#68607c" d="M 183.515625 291.230469 L 189.8125 278.636719 L 302.441406 334.953125 L 296.144531 347.542969 Z M 183.515625 291.230469 " fill-opacity="1" fill-rule="nonzero"/><path fill="#68607c" d="M 188.167969 476.566406 L 194.472656 463.96875 L 295.300781 514.441406 L 288.996094 527.035156 Z M 188.167969 476.566406 " fill-opacity="1" fill-rule="nonzero"/><path fill="#68607c" d="M 313.367188 379.945312 L 327.445312 379.945312 L 327.445312 499.609375 L 313.367188 499.609375 Z M 313.367188 379.945312 " fill-opacity="1" fill-rule="nonzero"/><path fill="#68607c" d="M 177.753906 425.359375 L 296.382812 242.425781 L 308.195312 250.085938 L 189.566406 433.019531 Z M 177.753906 425.359375 " fill-opacity="1" fill-rule="nonzero"/><path fill="#68607c" d="M 338.898438 505.277344 L 450.003906 389.148438 L 460.175781 398.878906 L 349.070312 515.011719 Z M 338.898438 505.277344 " fill-opacity="1" fill-rule="nonzero"/><path fill="#68607c" d="M 177.410156 308.011719 L 189.515625 300.820312 L 305.496094 496.027344 L 293.394531 503.21875 Z M 177.410156 308.011719 " fill-opacity="1" fill-rule="nonzero"/><g clip-path="url(#9385384068)"><path fill="#4e9bb9" d="M 214.816406 457.375 C 214.816406 465.328125 212.988281 472.792969 209.609375 479.40625 C 201.582031 495.597656 184.832031 506.648438 165.542969 506.648438 C 138.300781 506.648438 116.269531 484.617188 116.269531 457.375 C 116.269531 430.132812 138.300781 408.101562 165.542969 408.101562 C 175.46875 408.101562 184.621094 410.988281 192.292969 415.984375 C 205.878906 424.785156 214.816406 439.988281 214.816406 457.375 Z M 214.816406 457.375 " fill-opacity="1" fill-rule="nonzero"/></g><g clip-path="url(#cce562a9bb)"><path fill="#91cbd7" d="M 357.78125 495.738281 C 365.246094 504.328125 369.679688 515.519531 369.679688 527.765625 C 369.679688 555.007812 347.648438 577.042969 320.40625 577.042969 C 293.164062 577.042969 271.128906 555.007812 271.128906 527.765625 C 271.128906 522.066406 272.117188 516.644531 273.875 511.578125 C 277.253906 501.652344 283.730469 493.273438 292.179688 487.363281 C 300.132812 481.730469 309.847656 478.492188 320.40625 478.492188 C 335.398438 478.492188 348.84375 485.179688 357.78125 495.738281 Z M 357.78125 495.738281 " fill-opacity="1" fill-rule="nonzero"/></g><g clip-path="url(#3ed788e091)"><path fill="#ffd086" d="M 475.265625 323.632812 C 502.507812 323.632812 524.542969 345.664062 524.542969 372.90625 C 524.542969 400.148438 502.507812 422.179688 475.265625 422.179688 C 462.035156 422.179688 450.066406 417.039062 441.269531 408.453125 C 431.835938 399.582031 425.992188 386.914062 425.992188 372.90625 C 425.992188 370.652344 426.132812 368.46875 426.484375 366.289062 C 427.894531 355.308594 432.960938 345.523438 440.421875 338.0625 C 449.363281 329.121094 461.609375 323.632812 475.265625 323.632812 Z M 475.265625 323.632812 " fill-opacity="1" fill-rule="nonzero"/></g><path fill="#ed6571" d="M 369.1875 358.40625 C 366.019531 382.476562 345.394531 401.0625 320.40625 401.0625 C 293.164062 401.0625 271.128906 379.027344 271.128906 351.789062 C 271.128906 343.832031 272.960938 336.371094 276.339844 329.753906 C 284.363281 313.566406 301.117188 302.511719 320.40625 302.511719 C 347.648438 302.511719 369.679688 324.546875 369.679688 351.789062 C 369.679688 354.039062 369.539062 356.222656 369.1875 358.40625 Z M 369.1875 358.40625 " fill-opacity="1" fill-rule="nonzero"/><g clip-path="url(#ba8d7926a9)"><path fill="#f69489" d="M 320.40625 168.769531 C 347.648438 168.769531 369.679688 190.800781 369.679688 218.042969 C 369.679688 231.699219 364.1875 243.949219 355.25 252.886719 C 346.308594 261.828125 334.0625 267.316406 320.40625 267.316406 C 310.480469 267.316406 301.328125 264.429688 293.65625 259.433594 C 284.714844 253.660156 277.746094 245.074219 274.085938 234.867188 C 272.1875 229.65625 271.128906 223.957031 271.128906 218.042969 C 271.128906 190.800781 293.164062 168.769531 320.40625 168.769531 Z M 320.40625 168.769531 " fill-opacity="1" fill-rule="nonzero"/></g><g clip-path="url(#0ebeb38965)"><path fill="#91cbd7" d="M 211.859375 257.53125 C 213.761719 262.742188 214.816406 268.445312 214.816406 274.355469 C 214.816406 282.3125 212.988281 289.773438 209.609375 296.390625 C 205.386719 304.835938 198.839844 311.875 190.742188 316.664062 C 183.421875 321.097656 174.765625 323.632812 165.542969 323.632812 C 138.300781 323.632812 116.269531 301.597656 116.269531 274.355469 C 116.269531 247.113281 138.300781 225.082031 165.542969 225.082031 C 186.871094 225.082031 204.960938 238.597656 211.859375 257.53125 Z M 211.859375 257.53125 " fill-opacity="1" fill-rule="nonzero"/></g></svg>