<svg xmlns="http://www.w3.org/2000/svg" xmlns:xlink="http://www.w3.org/1999/xlink" width="855" zoomAndPan="magnify" viewBox="0 0 641.25 746.25" height="995" preserveAspectRatio="xMidYMid meet" version="1.0"><defs><clipPath id="2033d50382"><path d="M 0 0.0625 L 640.5 0.0625 L 640.5 745.441406 L 0 745.441406 Z M 0 0.0625 " clip-rule="nonzero"/></clipPath><clipPath id="efb9dd8f5e"><path d="M 16.613281 24 L 623.890625 24 L 623.890625 722 L 16.613281 722 Z M 16.613281 24 " clip-rule="nonzero"/></clipPath><clipPath id="f7de9e4283"><path d="M 336.4375 28.84375 L 607.703125 186.667969 C 617.722656 192.5 623.890625 203.222656 623.890625 214.816406 L 623.890625 530.683594 C 623.890625 542.28125 617.722656 553 607.703125 558.832031 L 336.4375 716.65625 C 326.429688 722.480469 314.070312 722.480469 304.0625 716.65625 L 32.800781 558.832031 C 22.777344 553 16.613281 542.28125 16.613281 530.683594 L 16.613281 214.816406 C 16.613281 203.222656 22.777344 192.5 32.800781 186.667969 L 304.0625 28.84375 C 314.070312 23.023438 326.429688 23.023438 336.4375 28.84375 " clip-rule="nonzero"/></clipPath><clipPath id="4368297bd7"><path d="M 16.613281 24 L 624.152344 24 L 624.152344 721 L 16.613281 721 Z M 16.613281 24 " clip-rule="nonzero"/></clipPath><clipPath id="e88c8c47c0"><path d="M 336.578125 28.84375 L 607.957031 186.617188 C 617.984375 192.445312 624.152344 203.164062 624.152344 214.753906 L 624.152344 530.519531 C 624.152344 542.113281 617.984375 552.828125 607.957031 558.65625 L 336.578125 716.433594 C 326.566406 722.253906 314.199219 722.253906 304.1875 716.433594 L 32.808594 558.65625 C 22.78125 552.828125 16.613281 542.113281 16.613281 530.519531 L 16.613281 214.753906 C 16.613281 203.164062 22.78125 192.445312 32.808594 186.617188 L 304.1875 28.84375 C 314.199219 23.023438 326.566406 23.023438 336.578125 28.84375 " clip-rule="nonzero"/></clipPath><clipPath id="8ad916a618"><path d="M 120.679688 399 L 262 399 L 262 569 L 120.679688 569 Z M 120.679688 399 " clip-rule="nonzero"/></clipPath><clipPath id="922845fc1a"><path d="M 233 173.179688 L 248 173.179688 L 248 202 L 233 202 Z M 233 173.179688 " clip-rule="nonzero"/></clipPath></defs><g clip-path="url(#2033d50382)"><path fill="#ffffff" d="M 0 0.0625 L 641.25 0.0625 L 641.25 3006.296875 L 0 3006.296875 Z M 0 0.0625 " fill-opacity="1" fill-rule="nonzero"/><path fill="#ffffff" d="M 0 0.0625 L 640.5 0.0625 L 640.5 745.441406 L 0 745.441406 Z M 0 0.0625 " fill-opacity="1" fill-rule="nonzero"/><path fill="#ffffff" d="M 0 0.0625 L 640.5 0.0625 L 640.5 745.441406 L 0 745.441406 Z M 0 0.0625 " fill-opacity="1" fill-rule="nonzero"/></g><g clip-path="url(#efb9dd8f5e)"><g clip-path="url(#f7de9e4283)"><path fill="#ffffff" d="M 16.613281 19.425781 L 623.890625 19.425781 L 623.890625 726.074219 L 16.613281 726.074219 Z M 16.613281 19.425781 " fill-opacity="1" fill-rule="nonzero"/></g></g><g clip-path="url(#4368297bd7)"><g clip-path="url(#e88c8c47c0)"><path stroke-linecap="butt" transform="matrix(0.749456, 0, 0, 0.748888, 16.612045, 19.428016)" fill="none" stroke-linejoin="miter" d="M 426.931146 12.572953 L 789.032364 223.249904 C 802.411862 231.032276 810.64179 245.345164 810.64179 260.821235 L 810.64179 682.467235 C 810.64179 697.948523 802.411862 712.256195 789.032364 720.038567 L 426.931146 930.720733 C 413.572497 938.492673 397.070943 938.492673 383.712294 930.720733 L 21.611075 720.038567 C 8.231578 712.256195 0.00164935 697.948523 0.00164935 682.467235 L 0.00164935 260.821235 C 0.00164935 245.345164 8.231578 231.032276 21.611075 223.249904 L 383.712294 12.572953 C 397.070943 4.801013 413.572497 4.801013 426.931146 12.572953 " stroke="#cb6ce6" stroke-width="64" stroke-opacity="1" stroke-miterlimit="4"/></g></g><path fill="#cb6ce6" d="M 387.269531 535.777344 C 386.324219 535.773438 385.417969 535.589844 384.550781 535.222656 C 383.683594 534.855469 382.917969 534.335938 382.257812 533.664062 L 312.492188 463.824219 C 312.164062 463.496094 311.875 463.140625 311.621094 462.757812 C 311.363281 462.371094 311.148438 461.964844 310.972656 461.539062 C 310.796875 461.113281 310.664062 460.675781 310.574219 460.222656 C 310.484375 459.769531 310.4375 459.3125 310.4375 458.851562 C 310.4375 458.390625 310.484375 457.933594 310.574219 457.480469 C 310.664062 457.027344 310.796875 456.585938 310.972656 456.160156 C 311.148438 455.734375 311.363281 455.328125 311.621094 454.945312 C 311.875 454.558594 312.164062 454.203125 312.492188 453.875 L 412.242188 354.125 C 412.566406 353.800781 412.921875 353.511719 413.308594 353.253906 C 413.691406 353 414.097656 352.785156 414.523438 352.609375 C 414.949219 352.433594 415.390625 352.300781 415.84375 352.210938 C 416.296875 352.121094 416.753906 352.074219 417.214844 352.074219 C 417.675781 352.074219 418.132812 352.121094 418.585938 352.210938 C 419.039062 352.300781 419.476562 352.433594 419.902344 352.609375 C 420.332031 352.785156 420.734375 353 421.121094 353.253906 C 421.503906 353.511719 421.859375 353.800781 422.1875 354.125 L 492.027344 423.964844 C 492.679688 424.621094 493.179688 425.378906 493.535156 426.234375 C 493.890625 427.089844 494.070312 427.980469 494.074219 428.902344 C 494.078125 429.839844 493.902344 430.746094 493.550781 431.613281 C 493.195312 432.480469 492.6875 433.246094 492.027344 433.914062 L 392.277344 533.664062 C 391.617188 534.335938 390.851562 534.855469 389.984375 535.222656 C 389.117188 535.589844 388.210938 535.773438 387.269531 535.777344 Z M 327.445312 458.886719 L 387.269531 518.707031 L 477.070312 428.902344 L 416.96875 369.082031 Z M 327.445312 458.886719 " fill-opacity="1" fill-rule="nonzero"/><path fill="#cb6ce6" d="M 281.308594 571.898438 C 281.03125 571.898438 280.75 571.878906 280.472656 571.84375 C 280.195312 571.8125 279.921875 571.761719 279.648438 571.691406 C 279.375 571.625 279.109375 571.542969 278.847656 571.445312 C 278.585938 571.34375 278.332031 571.230469 278.082031 571.101562 C 277.832031 570.972656 277.59375 570.828125 277.363281 570.671875 C 277.128906 570.511719 276.910156 570.34375 276.699219 570.160156 C 276.488281 569.972656 276.289062 569.777344 276.101562 569.570312 C 275.914062 569.363281 275.738281 569.144531 275.578125 568.914062 C 275.414062 568.6875 275.269531 568.449219 275.132812 568.203125 C 275 567.957031 274.882812 567.703125 274.78125 567.441406 C 274.675781 567.183594 274.589844 566.917969 274.519531 566.648438 C 274.445312 566.375 274.390625 566.101562 274.351562 565.824219 C 274.3125 565.546875 274.289062 565.269531 274.285156 564.988281 C 274.277344 564.707031 274.289062 564.429688 274.316406 564.152344 C 274.34375 563.871094 274.390625 563.597656 274.449219 563.324219 C 274.507812 563.050781 274.585938 562.78125 274.679688 562.515625 L 310.796875 456.699219 C 310.894531 456.417969 311.011719 456.144531 311.140625 455.878906 C 311.273438 455.613281 311.421875 455.355469 311.585938 455.109375 C 311.753906 454.859375 311.933594 454.625 312.125 454.398438 C 312.320312 454.175781 312.527344 453.964844 312.75 453.765625 C 312.972656 453.566406 313.203125 453.382812 313.449219 453.214844 C 313.691406 453.046875 313.945312 452.894531 314.210938 452.753906 C 314.472656 452.617188 314.746094 452.5 315.023438 452.398438 C 315.304688 452.292969 315.585938 452.210938 315.875 452.144531 C 316.167969 452.074219 316.457031 452.027344 316.753906 451.996094 C 317.050781 451.96875 317.347656 451.957031 317.644531 451.964844 C 317.941406 451.972656 318.234375 452 318.53125 452.042969 C 318.824219 452.089844 319.113281 452.152344 319.398438 452.234375 C 319.683594 452.316406 319.964844 452.414062 320.238281 452.53125 C 320.511719 452.648438 320.773438 452.78125 321.03125 452.933594 C 321.289062 453.082031 321.535156 453.25 321.769531 453.429688 C 322.003906 453.613281 322.226562 453.808594 322.4375 454.019531 L 392.277344 523.855469 C 392.699219 524.277344 393.0625 524.746094 393.367188 525.261719 C 393.671875 525.773438 393.910156 526.316406 394.074219 526.890625 C 394.242188 527.464844 394.335938 528.050781 394.351562 528.648438 C 394.371094 529.246094 394.3125 529.835938 394.179688 530.417969 C 394.046875 531 393.839844 531.558594 393.5625 532.089844 C 393.285156 532.617188 392.945312 533.105469 392.546875 533.550781 C 392.144531 533.996094 391.695312 534.382812 391.195312 534.710938 C 390.695312 535.042969 390.160156 535.304688 389.597656 535.496094 L 283.777344 571.617188 C 282.972656 571.855469 282.148438 571.953125 281.308594 571.898438 Z M 320.460938 471.867188 L 292.667969 553.484375 L 374.640625 525.691406 Z M 320.460938 471.867188 " fill-opacity="1" fill-rule="nonzero"/><path fill="#cb6ce6" d="M 281.308594 571.898438 C 281.03125 571.898438 280.75 571.878906 280.472656 571.84375 C 280.195312 571.8125 279.921875 571.761719 279.648438 571.691406 C 279.375 571.625 279.109375 571.542969 278.847656 571.445312 C 278.585938 571.34375 278.332031 571.230469 278.082031 571.101562 C 277.832031 570.972656 277.59375 570.828125 277.363281 570.671875 C 277.128906 570.511719 276.910156 570.34375 276.699219 570.160156 C 276.488281 569.972656 276.289062 569.777344 276.101562 569.570312 C 275.914062 569.363281 275.738281 569.144531 275.578125 568.914062 C 275.414062 568.6875 275.269531 568.449219 275.132812 568.203125 C 275 567.957031 274.882812 567.703125 274.78125 567.441406 C 274.675781 567.183594 274.589844 566.917969 274.519531 566.648438 C 274.445312 566.375 274.390625 566.101562 274.351562 565.824219 C 274.3125 565.546875 274.289062 565.269531 274.285156 564.988281 C 274.277344 564.707031 274.289062 564.429688 274.316406 564.152344 C 274.34375 563.871094 274.390625 563.597656 274.449219 563.324219 C 274.507812 563.050781 274.585938 562.78125 274.679688 562.515625 L 290.339844 516.378906 C 290.601562 515.605469 290.988281 514.898438 291.496094 514.257812 C 292.003906 513.617188 292.605469 513.082031 293.300781 512.648438 C 293.996094 512.21875 294.742188 511.917969 295.542969 511.746094 C 296.34375 511.574219 297.148438 511.542969 297.957031 511.652344 C 300.261719 511.945312 302.523438 512.425781 304.75 513.09375 C 306.972656 513.761719 309.125 514.609375 311.207031 515.636719 C 313.289062 516.664062 315.273438 517.851562 317.15625 519.210938 C 319.042969 520.566406 320.800781 522.066406 322.4375 523.714844 C 324.074219 525.359375 325.566406 527.128906 326.914062 529.015625 C 328.261719 530.902344 329.449219 532.886719 330.476562 534.96875 C 331.5 537.046875 332.351562 539.199219 333.027344 541.417969 C 333.703125 543.636719 334.191406 545.894531 334.5 548.195312 C 334.609375 549.003906 334.578125 549.8125 334.40625 550.609375 C 334.234375 551.410156 333.933594 552.15625 333.503906 552.851562 C 333.070312 553.546875 332.535156 554.148438 331.894531 554.65625 C 331.253906 555.164062 330.546875 555.550781 329.773438 555.8125 L 283.636719 571.476562 C 282.886719 571.746094 282.109375 571.890625 281.308594 571.898438 Z M 301.695312 526.960938 L 292.667969 553.484375 L 319.191406 544.457031 C 318.496094 542.429688 317.578125 540.507812 316.441406 538.6875 C 315.304688 536.871094 313.980469 535.203125 312.464844 533.6875 C 310.949219 532.171875 309.28125 530.847656 307.464844 529.710938 C 305.644531 528.574219 303.722656 527.660156 301.695312 526.960938 Z M 301.695312 526.960938 " fill-opacity="1" fill-rule="nonzero"/><path fill="#cb6ce6" d="M 487.019531 438.921875 L 407.230469 359.066406 L 432.203125 334.164062 C 432.703125 333.6875 433.222656 333.242188 433.765625 332.816406 C 434.308594 332.390625 434.867188 331.996094 435.445312 331.625 C 436.027344 331.253906 436.621094 330.910156 437.234375 330.597656 C 437.84375 330.28125 438.472656 329.996094 439.109375 329.742188 C 439.75 329.488281 440.398438 329.265625 441.058594 329.070312 C 441.71875 328.878906 442.386719 328.714844 443.0625 328.585938 C 443.738281 328.457031 444.417969 328.359375 445.101562 328.292969 C 445.785156 328.230469 446.472656 328.195312 447.160156 328.195312 C 447.847656 328.195312 448.535156 328.230469 449.21875 328.292969 C 449.902344 328.359375 450.582031 328.457031 451.257812 328.585938 C 451.933594 328.714844 452.601562 328.878906 453.261719 329.070312 C 453.921875 329.265625 454.574219 329.488281 455.210938 329.742188 C 455.851562 329.996094 456.476562 330.28125 457.085938 330.597656 C 457.699219 330.910156 458.292969 331.253906 458.875 331.625 C 459.453125 331.996094 460.011719 332.390625 460.554688 332.816406 C 461.097656 333.242188 461.617188 333.6875 462.117188 334.164062 L 511.992188 384.039062 C 512.480469 384.527344 512.945312 385.039062 513.382812 385.574219 C 513.824219 386.113281 514.234375 386.667969 514.617188 387.242188 C 515.003906 387.820312 515.359375 388.414062 515.683594 389.023438 C 516.011719 389.636719 516.308594 390.261719 516.570312 390.898438 C 516.835938 391.539062 517.070312 392.191406 517.269531 392.855469 C 517.472656 393.515625 517.640625 394.1875 517.773438 394.867188 C 517.910156 395.546875 518.011719 396.230469 518.078125 396.921875 C 518.144531 397.609375 518.179688 398.300781 518.179688 398.992188 C 518.179688 399.6875 518.144531 400.375 518.078125 401.066406 C 518.011719 401.753906 517.910156 402.4375 517.773438 403.117188 C 517.640625 403.796875 517.472656 404.46875 517.269531 405.132812 C 517.070312 405.792969 516.835938 406.445312 516.570312 407.085938 C 516.308594 407.726562 516.011719 408.351562 515.683594 408.960938 C 515.359375 409.574219 515.003906 410.167969 514.617188 410.742188 C 514.234375 411.320312 513.824219 411.875 513.382812 412.410156 C 512.945312 412.945312 512.480469 413.457031 511.992188 413.949219 Z M 427.195312 359.066406 L 487.019531 418.957031 L 502.042969 404 C 502.375 403.675781 502.671875 403.316406 502.929688 402.929688 C 503.191406 402.542969 503.410156 402.136719 503.589844 401.707031 C 503.765625 401.277344 503.902344 400.832031 503.992188 400.375 C 504.085938 399.917969 504.128906 399.457031 504.128906 398.992188 C 504.128906 398.527344 504.085938 398.066406 503.992188 397.609375 C 503.902344 397.152344 503.765625 396.710938 503.589844 396.28125 C 503.410156 395.851562 503.191406 395.441406 502.929688 395.054688 C 502.671875 394.667969 502.375 394.3125 502.042969 393.984375 L 452.238281 344.109375 C 451.914062 343.785156 451.554688 343.492188 451.171875 343.238281 C 450.789062 342.984375 450.382812 342.765625 449.957031 342.589844 C 449.53125 342.414062 449.089844 342.28125 448.636719 342.191406 C 448.183594 342.101562 447.726562 342.058594 447.265625 342.058594 C 446.804688 342.058594 446.347656 342.101562 445.894531 342.191406 C 445.441406 342.28125 445.003906 342.414062 444.578125 342.589844 C 444.148438 342.765625 443.746094 342.984375 443.359375 343.238281 C 442.976562 343.492188 442.621094 343.785156 442.292969 344.109375 Z M 427.195312 359.066406 " fill-opacity="1" fill-rule="nonzero"/><path fill="#cb6ce6" d="M 387.269531 535.777344 C 386.324219 535.773438 385.417969 535.589844 384.550781 535.222656 C 383.683594 534.855469 382.917969 534.335938 382.257812 533.664062 L 362.367188 513.769531 C 362.035156 513.441406 361.738281 513.085938 361.480469 512.699219 C 361.21875 512.3125 361 511.902344 360.820312 511.472656 C 360.640625 511.042969 360.507812 510.601562 360.414062 510.144531 C 360.324219 509.6875 360.277344 509.226562 360.277344 508.761719 C 360.277344 508.296875 360.324219 507.832031 360.414062 507.378906 C 360.507812 506.921875 360.640625 506.476562 360.820312 506.046875 C 361 505.617188 361.21875 505.210938 361.480469 504.824219 C 361.738281 504.4375 362.035156 504.078125 362.367188 503.75 L 462.117188 404 C 462.441406 403.675781 462.796875 403.386719 463.183594 403.128906 C 463.566406 402.875 463.972656 402.660156 464.398438 402.484375 C 464.824219 402.308594 465.265625 402.175781 465.71875 402.085938 C 466.171875 401.996094 466.628906 401.949219 467.089844 401.949219 C 467.550781 401.949219 468.007812 401.996094 468.460938 402.085938 C 468.914062 402.175781 469.351562 402.308594 469.777344 402.484375 C 470.207031 402.660156 470.609375 402.875 470.996094 403.128906 C 471.378906 403.386719 471.734375 403.675781 472.0625 404 L 492.027344 423.964844 C 492.679688 424.621094 493.179688 425.378906 493.535156 426.234375 C 493.890625 427.089844 494.070312 427.980469 494.074219 428.902344 C 494.078125 429.839844 493.902344 430.746094 493.550781 431.613281 C 493.195312 432.480469 492.6875 433.246094 492.027344 433.914062 L 392.277344 533.664062 C 391.617188 534.335938 390.851562 534.855469 389.984375 535.222656 C 389.117188 535.589844 388.210938 535.773438 387.269531 535.777344 Z M 377.320312 508.761719 L 387.269531 518.707031 L 477.070312 428.902344 L 467.125 418.957031 Z M 377.320312 508.761719 " fill-opacity="1" fill-rule="nonzero"/><path fill="#cb6ce6" d="M 337.394531 485.902344 C 336.449219 485.929688 335.535156 485.769531 334.65625 485.425781 C 333.773438 485.085938 332.992188 484.585938 332.3125 483.929688 L 312.421875 463.964844 C 312.09375 463.636719 311.804688 463.28125 311.546875 462.898438 C 311.292969 462.511719 311.078125 462.109375 310.902344 461.679688 C 310.726562 461.253906 310.59375 460.816406 310.503906 460.363281 C 310.414062 459.910156 310.367188 459.453125 310.367188 458.992188 C 310.367188 458.53125 310.414062 458.074219 310.503906 457.621094 C 310.59375 457.167969 310.726562 456.726562 310.902344 456.300781 C 311.078125 455.875 311.292969 455.46875 311.546875 455.085938 C 311.804688 454.699219 312.09375 454.34375 312.421875 454.019531 L 412.242188 354.125 C 412.566406 353.800781 412.921875 353.511719 413.308594 353.253906 C 413.691406 353 414.097656 352.785156 414.523438 352.609375 C 414.949219 352.433594 415.390625 352.300781 415.84375 352.210938 C 416.296875 352.121094 416.753906 352.074219 417.214844 352.074219 C 417.675781 352.074219 418.132812 352.121094 418.585938 352.210938 C 419.039062 352.300781 419.476562 352.433594 419.902344 352.609375 C 420.332031 352.785156 420.734375 353 421.121094 353.253906 C 421.503906 353.511719 421.859375 353.800781 422.1875 354.125 L 442.152344 374.089844 C 442.804688 374.746094 443.304688 375.503906 443.660156 376.359375 C 444.015625 377.214844 444.195312 378.105469 444.199219 379.027344 C 444.203125 379.964844 444.027344 380.871094 443.671875 381.738281 C 443.320312 382.605469 442.8125 383.371094 442.152344 384.039062 L 342.402344 483.929688 C 341.730469 484.578125 340.960938 485.070312 340.09375 485.414062 C 339.226562 485.753906 338.324219 485.917969 337.394531 485.902344 Z M 327.445312 458.886719 L 337.394531 468.832031 L 427.195312 379.027344 L 416.96875 369.082031 Z M 327.445312 458.886719 " fill-opacity="1" fill-rule="nonzero"/><g clip-path="url(#8ad916a618)"><path fill="#cb6ce6" d="M 254.714844 568.582031 L 127.734375 568.582031 C 127.269531 568.582031 126.8125 568.539062 126.359375 568.445312 C 125.902344 568.355469 125.460938 568.222656 125.035156 568.046875 C 124.605469 567.867188 124.199219 567.652344 123.816406 567.394531 C 123.429688 567.136719 123.074219 566.84375 122.746094 566.515625 C 122.417969 566.1875 122.125 565.832031 121.867188 565.449219 C 121.609375 565.0625 121.394531 564.65625 121.214844 564.226562 C 121.039062 563.800781 120.90625 563.359375 120.816406 562.902344 C 120.726562 562.449219 120.679688 561.992188 120.679688 561.527344 L 120.679688 519.203125 C 120.679688 518.738281 120.726562 518.277344 120.816406 517.824219 C 120.90625 517.371094 121.039062 516.929688 121.214844 516.5 C 121.394531 516.074219 121.609375 515.667969 121.867188 515.28125 C 122.125 514.898438 122.417969 514.539062 122.746094 514.214844 C 123.074219 513.886719 123.429688 513.59375 123.816406 513.335938 C 124.199219 513.078125 124.605469 512.859375 125.035156 512.683594 C 125.460938 512.507812 125.902344 512.371094 126.359375 512.28125 C 126.8125 512.191406 127.269531 512.148438 127.734375 512.148438 L 191.222656 512.148438 L 191.222656 483.929688 L 127.734375 483.929688 C 127.269531 483.929688 126.8125 483.882812 126.359375 483.792969 C 125.902344 483.703125 125.460938 483.570312 125.035156 483.390625 C 124.605469 483.214844 124.199219 482.996094 123.816406 482.738281 C 123.429688 482.484375 123.074219 482.191406 122.746094 481.863281 C 122.417969 481.535156 122.125 481.179688 121.867188 480.792969 C 121.609375 480.410156 121.394531 480 121.214844 479.574219 C 121.039062 479.144531 120.90625 478.703125 120.816406 478.25 C 120.726562 477.796875 120.679688 477.335938 120.679688 476.875 L 120.679688 434.546875 C 120.679688 434.085938 120.726562 433.625 120.816406 433.171875 C 120.90625 432.71875 121.039062 432.277344 121.214844 431.847656 C 121.394531 431.421875 121.609375 431.011719 121.867188 430.628906 C 122.125 430.242188 122.417969 429.886719 122.746094 429.558594 C 123.074219 429.230469 123.429688 428.9375 123.816406 428.683594 C 124.199219 428.425781 124.605469 428.207031 125.035156 428.03125 C 125.460938 427.851562 125.902344 427.71875 126.359375 427.628906 C 126.8125 427.539062 127.269531 427.492188 127.734375 427.492188 L 233.550781 427.492188 L 233.550781 406.328125 C 233.550781 405.867188 233.597656 405.40625 233.6875 404.953125 C 233.777344 404.5 233.910156 404.058594 234.089844 403.628906 C 234.265625 403.203125 234.484375 402.796875 234.738281 402.410156 C 234.996094 402.023438 235.289062 401.667969 235.617188 401.339844 C 235.945312 401.015625 236.300781 400.722656 236.6875 400.464844 C 237.070312 400.207031 237.476562 399.988281 237.90625 399.8125 C 238.332031 399.636719 238.773438 399.5 239.230469 399.410156 C 239.683594 399.320312 240.140625 399.273438 240.605469 399.273438 C 241.070312 399.273438 241.527344 399.320312 241.980469 399.410156 C 242.4375 399.5 242.878906 399.636719 243.304688 399.8125 C 243.734375 399.988281 244.140625 400.207031 244.523438 400.464844 C 244.910156 400.722656 245.265625 401.015625 245.59375 401.339844 C 245.921875 401.667969 246.214844 402.023438 246.472656 402.410156 C 246.726562 402.796875 246.945312 403.203125 247.121094 403.628906 C 247.300781 404.058594 247.433594 404.5 247.523438 404.953125 C 247.613281 405.40625 247.660156 405.867188 247.660156 406.328125 L 247.660156 434.546875 C 247.660156 435.011719 247.613281 435.46875 247.523438 435.921875 C 247.433594 436.378906 247.300781 436.820312 247.121094 437.246094 C 246.945312 437.675781 246.726562 438.082031 246.472656 438.46875 C 246.214844 438.851562 245.921875 439.207031 245.59375 439.535156 C 245.265625 439.863281 244.910156 440.15625 244.523438 440.414062 C 244.140625 440.671875 243.734375 440.886719 243.304688 441.066406 C 242.878906 441.242188 242.4375 441.375 241.980469 441.464844 C 241.527344 441.558594 241.070312 441.601562 240.605469 441.601562 L 134.789062 441.601562 L 134.789062 469.820312 L 198.277344 469.820312 C 198.742188 469.820312 199.199219 469.863281 199.65625 469.957031 C 200.109375 470.046875 200.550781 470.179688 200.976562 470.355469 C 201.40625 470.535156 201.8125 470.75 202.199219 471.007812 C 202.582031 471.265625 202.9375 471.558594 203.265625 471.886719 C 203.59375 472.214844 203.886719 472.570312 204.144531 472.957031 C 204.402344 473.339844 204.617188 473.746094 204.796875 474.175781 C 204.972656 474.601562 205.105469 475.042969 205.199219 475.5 C 205.289062 475.953125 205.332031 476.410156 205.332031 476.875 L 205.332031 519.203125 C 205.332031 519.664062 205.289062 520.125 205.199219 520.578125 C 205.105469 521.03125 204.972656 521.472656 204.796875 521.902344 C 204.617188 522.328125 204.402344 522.734375 204.144531 523.121094 C 203.886719 523.503906 203.59375 523.863281 203.265625 524.1875 C 202.9375 524.515625 202.582031 524.808594 202.199219 525.066406 C 201.8125 525.324219 201.40625 525.542969 200.976562 525.71875 C 200.550781 525.894531 200.109375 526.03125 199.65625 526.121094 C 199.199219 526.210938 198.742188 526.253906 198.277344 526.253906 L 134.789062 526.253906 L 134.789062 554.472656 L 254.714844 554.472656 C 255.175781 554.472656 255.636719 554.519531 256.089844 554.609375 C 256.546875 554.699219 256.984375 554.832031 257.414062 555.011719 C 257.84375 555.1875 258.25 555.40625 258.632812 555.664062 C 259.019531 555.917969 259.375 556.210938 259.703125 556.539062 C 260.03125 556.867188 260.324219 557.222656 260.578125 557.609375 C 260.835938 557.992188 261.054688 558.402344 261.230469 558.828125 C 261.410156 559.257812 261.542969 559.699219 261.632812 560.152344 C 261.722656 560.605469 261.769531 561.066406 261.769531 561.527344 C 261.769531 561.992188 261.722656 562.449219 261.632812 562.902344 C 261.542969 563.359375 261.410156 563.800781 261.230469 564.226562 C 261.054688 564.65625 260.835938 565.0625 260.578125 565.449219 C 260.324219 565.832031 260.03125 566.1875 259.703125 566.515625 C 259.375 566.84375 259.019531 567.136719 258.632812 567.394531 C 258.25 567.652344 257.84375 567.867188 257.414062 568.046875 C 256.984375 568.222656 256.546875 568.355469 256.089844 568.445312 C 255.636719 568.539062 255.175781 568.582031 254.714844 568.582031 Z M 254.714844 568.582031 " fill-opacity="1" fill-rule="nonzero"/></g><path fill="#cb6ce6" d="M 268.824219 356.949219 L 212.386719 356.949219 C 211.925781 356.949219 211.464844 356.902344 211.011719 356.8125 C 210.558594 356.722656 210.117188 356.589844 209.6875 356.410156 C 209.261719 356.234375 208.851562 356.015625 208.46875 355.757812 C 208.082031 355.503906 207.726562 355.210938 207.398438 354.882812 C 207.070312 354.554688 206.78125 354.199219 206.523438 353.8125 C 206.265625 353.429688 206.046875 353.023438 205.871094 352.59375 C 205.691406 352.164062 205.558594 351.722656 205.46875 351.269531 C 205.378906 350.816406 205.332031 350.355469 205.332031 349.894531 L 205.332031 335.785156 C 205.324219 334.667969 205.066406 333.613281 204.558594 332.621094 C 204.046875 331.625 203.34375 330.800781 202.441406 330.140625 C 201.402344 329.347656 200.390625 328.523438 199.402344 327.667969 C 198.417969 326.8125 197.457031 325.925781 196.527344 325.011719 C 195.59375 324.097656 194.691406 323.15625 193.816406 322.183594 C 192.941406 321.214844 192.097656 320.21875 191.289062 319.195312 C 190.476562 318.171875 189.695312 317.125 188.945312 316.054688 C 188.199219 314.984375 187.484375 313.890625 186.804688 312.777344 C 186.125 311.660156 185.476562 310.527344 184.867188 309.371094 C 184.257812 308.21875 183.683594 307.042969 183.144531 305.855469 C 182.609375 304.664062 182.105469 303.457031 181.644531 302.238281 C 181.179688 301.015625 180.753906 299.78125 180.367188 298.535156 C 179.980469 297.289062 179.628906 296.03125 179.320312 294.761719 C 179.011719 293.492188 178.738281 292.214844 178.507812 290.929688 C 178.277344 289.644531 178.085938 288.351562 177.9375 287.054688 C 177.785156 285.757812 177.671875 284.457031 177.601562 283.152344 C 177.53125 281.851562 177.5 280.542969 177.511719 279.238281 C 177.519531 277.933594 177.570312 276.628906 177.660156 275.324219 C 177.75 274.023438 177.878906 272.722656 178.050781 271.429688 C 178.21875 270.132812 178.429688 268.84375 178.679688 267.5625 C 178.929688 266.28125 179.21875 265.007812 179.546875 263.742188 C 179.875 262.480469 180.242188 261.226562 180.648438 259.984375 C 181.050781 258.742188 181.496094 257.515625 181.976562 256.300781 C 182.457031 255.085938 182.976562 253.890625 183.53125 252.707031 C 184.085938 251.523438 184.679688 250.359375 185.304688 249.214844 C 185.933594 248.070312 186.59375 246.945312 187.292969 245.839844 C 187.988281 244.734375 188.71875 243.652344 189.480469 242.59375 C 190.246094 241.53125 191.039062 240.496094 191.867188 239.488281 C 192.695312 238.476562 193.550781 237.492188 194.441406 236.535156 C 195.328125 235.578125 196.246094 234.648438 197.191406 233.746094 C 198.136719 232.84375 199.105469 231.972656 200.105469 231.132812 C 201.105469 230.292969 202.128906 229.480469 203.179688 228.703125 C 204.226562 227.925781 205.300781 227.179688 206.394531 226.46875 C 207.488281 225.757812 208.605469 225.078125 209.742188 224.4375 C 210.878906 223.792969 212.035156 223.1875 213.210938 222.613281 C 214.382812 222.042969 215.574219 221.507812 216.78125 221.011719 C 217.988281 220.511719 219.210938 220.050781 220.445312 219.628906 C 221.683594 219.207031 222.929688 218.820312 224.1875 218.476562 C 225.449219 218.128906 226.71875 217.824219 227.996094 217.554688 C 229.273438 217.289062 230.558594 217.058594 231.851562 216.871094 C 233.144531 216.683594 234.441406 216.535156 235.742188 216.429688 C 237.042969 216.320312 238.347656 216.25 239.652344 216.222656 C 240.960938 216.195312 242.265625 216.210938 243.570312 216.261719 C 244.875 216.316406 246.175781 216.40625 247.476562 216.542969 C 248.777344 216.675781 250.070312 216.847656 251.359375 217.0625 C 252.648438 217.273438 253.929688 217.527344 255.199219 217.820312 C 256.472656 218.109375 257.738281 218.441406 258.988281 218.8125 C 260.242188 219.183594 261.480469 219.589844 262.707031 220.039062 C 263.9375 220.484375 265.148438 220.96875 266.347656 221.488281 C 267.542969 222.011719 268.722656 222.570312 269.886719 223.164062 C 271.050781 223.757812 272.195312 224.386719 273.316406 225.050781 C 274.441406 225.714844 275.542969 226.414062 276.625 227.148438 C 277.707031 227.882812 278.765625 228.648438 279.796875 229.445312 C 280.832031 230.242188 281.839844 231.070312 282.824219 231.933594 C 283.804688 232.792969 284.761719 233.683594 285.6875 234.601562 C 286.617188 235.519531 287.515625 236.46875 288.382812 237.441406 C 289.253906 238.417969 290.089844 239.417969 290.898438 240.445312 C 291.707031 241.472656 292.480469 242.523438 293.222656 243.597656 C 293.96875 244.671875 294.675781 245.765625 295.351562 246.886719 C 296.027344 248.003906 296.664062 249.140625 297.269531 250.296875 C 297.875 251.457031 298.445312 252.632812 298.976562 253.824219 C 299.507812 255.015625 300.003906 256.222656 300.460938 257.449219 C 300.917969 258.671875 301.339844 259.90625 301.71875 261.15625 C 302.101562 262.40625 302.445312 263.664062 302.746094 264.933594 C 303.050781 266.207031 303.316406 267.484375 303.539062 268.769531 C 303.765625 270.058594 303.949219 271.347656 304.09375 272.648438 C 304.382812 275.367188 304.492188 278.09375 304.425781 280.824219 C 304.359375 283.558594 304.117188 286.273438 303.699219 288.976562 C 303.28125 291.675781 302.691406 294.339844 301.929688 296.964844 C 301.167969 299.59375 300.242188 302.15625 299.148438 304.664062 C 298.058594 307.167969 296.808594 309.59375 295.402344 311.9375 C 293.996094 314.28125 292.445312 316.527344 290.75 318.671875 C 289.054688 320.8125 287.226562 322.839844 285.269531 324.75 C 283.3125 326.65625 281.238281 328.429688 279.050781 330.070312 C 278.164062 330.738281 277.472656 331.566406 276.976562 332.558594 C 276.480469 333.550781 276.230469 334.605469 276.230469 335.714844 L 276.230469 349.824219 C 276.234375 350.304688 276.191406 350.78125 276.101562 351.253906 C 276.007812 351.726562 275.867188 352.183594 275.683594 352.628906 C 275.496094 353.074219 275.269531 353.492188 274.996094 353.890625 C 274.722656 354.289062 274.414062 354.652344 274.066406 354.988281 C 273.71875 355.320312 273.34375 355.617188 272.933594 355.871094 C 272.527344 356.128906 272.097656 356.339844 271.648438 356.511719 C 271.195312 356.679688 270.734375 356.800781 270.257812 356.875 C 269.78125 356.949219 269.304688 356.972656 268.824219 356.949219 Z M 219.441406 342.839844 L 261.769531 342.839844 L 261.769531 335.785156 C 261.773438 334.148438 261.96875 332.535156 262.347656 330.941406 C 262.726562 329.351562 263.285156 327.820312 264.019531 326.359375 C 264.753906 324.898438 265.644531 323.539062 266.695312 322.28125 C 267.746094 321.027344 268.925781 319.90625 270.234375 318.925781 C 271.023438 318.332031 271.789062 317.71875 272.542969 317.082031 C 273.292969 316.445312 274.023438 315.785156 274.734375 315.101562 C 275.445312 314.421875 276.136719 313.71875 276.804688 312.996094 C 277.472656 312.273438 278.121094 311.53125 278.746094 310.769531 C 279.371094 310.007812 279.972656 309.230469 280.550781 308.433594 C 281.128906 307.636719 281.683594 306.820312 282.210938 305.992188 C 282.742188 305.160156 283.246094 304.316406 283.726562 303.453125 C 284.203125 302.59375 284.65625 301.71875 285.082031 300.832031 C 285.511719 299.945312 285.910156 299.042969 286.28125 298.132812 C 286.65625 297.222656 287 296.296875 287.316406 295.367188 C 287.636719 294.433594 287.925781 293.492188 288.1875 292.542969 C 288.449219 291.59375 288.679688 290.636719 288.882812 289.671875 C 289.089844 288.710938 289.265625 287.742188 289.410156 286.765625 C 289.554688 285.792969 289.671875 284.816406 289.761719 283.835938 C 289.847656 282.855469 289.90625 281.871094 289.933594 280.886719 C 289.964844 279.902344 289.964844 278.917969 289.933594 277.933594 C 289.902344 276.949219 289.84375 275.964844 289.753906 274.984375 C 289.664062 274.003906 289.546875 273.027344 289.398438 272.050781 C 289.253906 271.078125 289.074219 270.109375 288.871094 269.148438 C 288.664062 268.183594 288.429688 267.226562 288.167969 266.277344 C 287.90625 265.328125 287.617188 264.386719 287.296875 263.457031 C 286.976562 262.523438 286.632812 261.601562 286.257812 260.691406 C 285.882812 259.78125 285.484375 258.882812 285.054688 257.996094 C 284.625 257.105469 284.171875 256.234375 283.691406 255.375 C 283.210938 254.511719 282.707031 253.667969 282.175781 252.839844 C 281.644531 252.007812 281.089844 251.195312 280.511719 250.398438 C 279.933594 249.601562 279.328125 248.824219 278.703125 248.0625 C 278.078125 247.304688 277.429688 246.5625 276.761719 245.839844 C 276.089844 245.117188 275.398438 244.417969 274.6875 243.738281 C 273.972656 243.058594 273.242188 242.398438 272.492188 241.761719 C 271.738281 241.125 270.96875 240.511719 270.179688 239.921875 C 269.394531 239.332031 268.585938 238.765625 267.765625 238.222656 C 266.226562 237.203125 264.640625 236.277344 263 235.4375 C 261.359375 234.597656 259.675781 233.851562 257.953125 233.199219 C 256.226562 232.546875 254.472656 231.996094 252.6875 231.539062 C 250.898438 231.085938 249.09375 230.730469 247.269531 230.480469 C 245.441406 230.226562 243.609375 230.078125 241.765625 230.027344 C 239.921875 229.980469 238.082031 230.039062 236.246094 230.195312 C 234.410156 230.355469 232.589844 230.617188 230.78125 230.980469 C 228.976562 231.339844 227.195312 231.804688 225.4375 232.367188 C 223.136719 233.082031 220.902344 233.960938 218.734375 235.007812 C 216.5625 236.054688 214.480469 237.253906 212.488281 238.605469 C 210.496094 239.957031 208.613281 241.449219 206.839844 243.082031 C 205.066406 244.710938 203.421875 246.464844 201.90625 248.335938 C 200.394531 250.210938 199.023438 252.183594 197.800781 254.261719 C 196.578125 256.335938 195.515625 258.488281 194.609375 260.722656 C 193.707031 262.953125 192.96875 265.242188 192.402344 267.582031 C 191.835938 269.925781 191.441406 272.292969 191.222656 274.691406 C 191.042969 276.78125 190.992188 278.875 191.074219 280.972656 C 191.15625 283.066406 191.371094 285.148438 191.714844 287.21875 C 192.0625 289.285156 192.535156 291.324219 193.140625 293.332031 C 193.742188 295.34375 194.46875 297.304688 195.320312 299.222656 C 196.171875 301.140625 197.140625 302.996094 198.222656 304.789062 C 199.308594 306.585938 200.503906 308.304688 201.804688 309.949219 C 203.109375 311.589844 204.511719 313.144531 206.007812 314.613281 C 207.507812 316.078125 209.09375 317.445312 210.765625 318.714844 C 212.109375 319.695312 213.320312 320.820312 214.398438 322.085938 C 215.476562 323.351562 216.390625 324.726562 217.144531 326.210938 C 217.898438 327.695312 218.46875 329.246094 218.859375 330.863281 C 219.246094 332.480469 219.441406 334.121094 219.441406 335.785156 Z M 219.441406 342.839844 " fill-opacity="1" fill-rule="nonzero"/><path fill="#cb6ce6" d="M 254.714844 385.167969 L 226.496094 385.167969 C 225.804688 385.167969 225.113281 385.132812 224.421875 385.0625 C 223.730469 384.996094 223.046875 384.894531 222.367188 384.757812 C 221.6875 384.625 221.015625 384.457031 220.351562 384.253906 C 219.691406 384.054688 219.039062 383.820312 218.398438 383.554688 C 217.757812 383.289062 217.132812 382.992188 216.519531 382.667969 C 215.910156 382.339844 215.316406 381.984375 214.738281 381.597656 C 214.164062 381.214844 213.605469 380.800781 213.070312 380.363281 C 212.535156 379.921875 212.023438 379.457031 211.53125 378.96875 C 211.042969 378.476562 210.578125 377.964844 210.136719 377.429688 C 209.699219 376.894531 209.285156 376.335938 208.898438 375.761719 C 208.515625 375.183594 208.160156 374.589844 207.832031 373.980469 C 207.503906 373.367188 207.210938 372.742188 206.945312 372.101562 C 206.679688 371.460938 206.445312 370.808594 206.246094 370.144531 C 206.042969 369.484375 205.875 368.8125 205.738281 368.132812 C 205.605469 367.453125 205.503906 366.765625 205.433594 366.078125 C 205.367188 365.386719 205.332031 364.695312 205.332031 364.003906 L 205.332031 349.894531 C 205.332031 349.429688 205.378906 348.972656 205.46875 348.519531 C 205.558594 348.0625 205.691406 347.621094 205.871094 347.195312 C 206.046875 346.765625 206.265625 346.359375 206.523438 345.976562 C 206.78125 345.589844 207.070312 345.234375 207.398438 344.90625 C 207.726562 344.578125 208.082031 344.285156 208.46875 344.027344 C 208.851562 343.769531 209.261719 343.554688 209.6875 343.375 C 210.117188 343.199219 210.558594 343.066406 211.011719 342.976562 C 211.464844 342.882812 211.925781 342.839844 212.386719 342.839844 L 268.824219 342.839844 C 269.285156 342.839844 269.746094 342.882812 270.199219 342.976562 C 270.652344 343.066406 271.09375 343.199219 271.523438 343.375 C 271.949219 343.554688 272.355469 343.769531 272.742188 344.027344 C 273.128906 344.285156 273.484375 344.578125 273.8125 344.90625 C 274.140625 345.234375 274.429688 345.589844 274.6875 345.976562 C 274.945312 346.359375 275.164062 346.765625 275.339844 347.195312 C 275.519531 347.621094 275.652344 348.0625 275.742188 348.519531 C 275.832031 348.972656 275.878906 349.429688 275.878906 349.894531 L 275.878906 364.003906 C 275.878906 364.695312 275.84375 365.386719 275.777344 366.078125 C 275.707031 366.765625 275.605469 367.453125 275.472656 368.132812 C 275.335938 368.8125 275.167969 369.484375 274.964844 370.144531 C 274.765625 370.808594 274.53125 371.460938 274.265625 372.101562 C 274 372.742188 273.707031 373.367188 273.378906 373.980469 C 273.050781 374.589844 272.695312 375.183594 272.3125 375.761719 C 271.925781 376.335938 271.511719 376.894531 271.074219 377.429688 C 270.632812 377.964844 270.167969 378.476562 269.679688 378.96875 C 269.1875 379.457031 268.675781 379.921875 268.140625 380.363281 C 267.605469 380.800781 267.046875 381.214844 266.472656 381.597656 C 265.894531 381.984375 265.300781 382.339844 264.691406 382.667969 C 264.078125 382.992188 263.453125 383.289062 262.8125 383.554688 C 262.171875 383.820312 261.519531 384.054688 260.859375 384.253906 C 260.195312 384.457031 259.523438 384.625 258.84375 384.757812 C 258.164062 384.894531 257.480469 384.996094 256.789062 385.0625 C 256.097656 385.132812 255.40625 385.167969 254.714844 385.167969 Z M 219.441406 356.949219 L 219.441406 364.003906 C 219.441406 364.464844 219.488281 364.925781 219.578125 365.378906 C 219.667969 365.832031 219.800781 366.273438 219.980469 366.703125 C 220.15625 367.128906 220.375 367.535156 220.632812 367.921875 C 220.886719 368.308594 221.179688 368.664062 221.507812 368.992188 C 221.835938 369.320312 222.191406 369.609375 222.578125 369.867188 C 222.960938 370.125 223.367188 370.34375 223.796875 370.519531 C 224.226562 370.699219 224.664062 370.832031 225.121094 370.921875 C 225.574219 371.011719 226.035156 371.058594 226.496094 371.058594 L 254.714844 371.058594 C 255.175781 371.058594 255.636719 371.011719 256.089844 370.921875 C 256.546875 370.832031 256.984375 370.699219 257.414062 370.519531 C 257.84375 370.34375 258.25 370.125 258.632812 369.867188 C 259.019531 369.609375 259.375 369.320312 259.703125 368.992188 C 260.03125 368.664062 260.324219 368.308594 260.578125 367.921875 C 260.835938 367.535156 261.054688 367.128906 261.230469 366.703125 C 261.410156 366.273438 261.542969 365.832031 261.632812 365.378906 C 261.722656 364.925781 261.769531 364.464844 261.769531 364.003906 L 261.769531 356.949219 Z M 219.441406 356.949219 " fill-opacity="1" fill-rule="nonzero"/><g clip-path="url(#922845fc1a)"><path fill="#cb6ce6" d="M 240.605469 201.75 C 240.140625 201.75 239.683594 201.703125 239.230469 201.613281 C 238.773438 201.523438 238.332031 201.390625 237.90625 201.214844 C 237.476562 201.035156 237.070312 200.820312 236.6875 200.5625 C 236.300781 200.304688 235.945312 200.011719 235.617188 199.683594 C 235.289062 199.355469 234.996094 199 234.738281 198.613281 C 234.484375 198.230469 234.265625 197.824219 234.089844 197.394531 C 233.910156 196.96875 233.777344 196.527344 233.6875 196.070312 C 233.597656 195.617188 233.550781 195.160156 233.550781 194.695312 L 233.550781 180.585938 C 233.550781 180.125 233.597656 179.664062 233.6875 179.210938 C 233.777344 178.757812 233.910156 178.316406 234.089844 177.886719 C 234.265625 177.460938 234.484375 177.050781 234.738281 176.667969 C 234.996094 176.28125 235.289062 175.925781 235.617188 175.597656 C 235.945312 175.269531 236.300781 174.976562 236.6875 174.722656 C 237.070312 174.464844 237.476562 174.246094 237.90625 174.070312 C 238.332031 173.890625 238.773438 173.757812 239.230469 173.667969 C 239.683594 173.578125 240.140625 173.53125 240.605469 173.53125 C 241.070312 173.53125 241.527344 173.578125 241.980469 173.667969 C 242.4375 173.757812 242.878906 173.890625 243.304688 174.070312 C 243.734375 174.246094 244.140625 174.464844 244.523438 174.722656 C 244.910156 174.976562 245.265625 175.269531 245.59375 175.597656 C 245.921875 175.925781 246.214844 176.28125 246.472656 176.667969 C 246.726562 177.050781 246.945312 177.460938 247.121094 177.886719 C 247.300781 178.316406 247.433594 178.757812 247.523438 179.210938 C 247.613281 179.664062 247.660156 180.125 247.660156 180.585938 L 247.660156 194.695312 C 247.660156 195.160156 247.613281 195.617188 247.523438 196.070312 C 247.433594 196.527344 247.300781 196.96875 247.121094 197.394531 C 246.945312 197.824219 246.726562 198.230469 246.472656 198.613281 C 246.214844 199 245.921875 199.355469 245.59375 199.683594 C 245.265625 200.011719 244.910156 200.304688 244.523438 200.5625 C 244.140625 200.820312 243.734375 201.035156 243.304688 201.214844 C 242.878906 201.390625 242.4375 201.523438 241.980469 201.613281 C 241.527344 201.703125 241.070312 201.75 240.605469 201.75 Z M 240.605469 201.75 " fill-opacity="1" fill-rule="nonzero"/></g><path fill="#cb6ce6" d="M 180.714844 226.511719 C 179.789062 226.507812 178.898438 226.328125 178.042969 225.972656 C 177.1875 225.621094 176.433594 225.117188 175.773438 224.464844 L 165.757812 214.519531 C 165.429688 214.191406 165.136719 213.832031 164.878906 213.445312 C 164.621094 213.058594 164.402344 212.648438 164.222656 212.222656 C 164.046875 211.792969 163.914062 211.347656 163.820312 210.890625 C 163.730469 210.4375 163.6875 209.976562 163.6875 209.511719 C 163.6875 209.046875 163.730469 208.585938 163.824219 208.128906 C 163.914062 207.675781 164.046875 207.230469 164.226562 206.800781 C 164.40625 206.371094 164.621094 205.964844 164.882812 205.578125 C 165.140625 205.191406 165.433594 204.832031 165.761719 204.503906 C 166.089844 204.175781 166.449219 203.882812 166.835938 203.625 C 167.222656 203.367188 167.628906 203.148438 168.058594 202.96875 C 168.488281 202.792969 168.929688 202.65625 169.386719 202.566406 C 169.84375 202.476562 170.300781 202.429688 170.765625 202.429688 C 171.230469 202.429688 171.691406 202.476562 172.148438 202.566406 C 172.605469 202.65625 173.046875 202.789062 173.476562 202.96875 C 173.90625 203.144531 174.316406 203.363281 174.703125 203.621094 C 175.089844 203.878906 175.445312 204.171875 175.773438 204.5 L 185.722656 214.519531 C 186.046875 214.847656 186.335938 215.203125 186.59375 215.585938 C 186.847656 215.96875 187.0625 216.375 187.238281 216.800781 C 187.417969 217.230469 187.550781 217.667969 187.636719 218.121094 C 187.726562 218.574219 187.773438 219.03125 187.773438 219.492188 C 187.773438 219.953125 187.726562 220.410156 187.636719 220.863281 C 187.550781 221.316406 187.417969 221.753906 187.238281 222.183594 C 187.0625 222.609375 186.847656 223.015625 186.59375 223.398438 C 186.335938 223.78125 186.046875 224.136719 185.722656 224.464844 C 185.054688 225.125 184.289062 225.632812 183.421875 225.988281 C 182.554688 226.34375 181.652344 226.515625 180.714844 226.511719 Z M 180.714844 226.511719 " fill-opacity="1" fill-rule="nonzero"/><path fill="#cb6ce6" d="M 155.953125 286.402344 L 141.84375 286.402344 C 141.378906 286.402344 140.921875 286.359375 140.464844 286.269531 C 140.011719 286.179688 139.570312 286.042969 139.144531 285.867188 C 138.714844 285.691406 138.308594 285.472656 137.921875 285.214844 C 137.539062 284.957031 137.183594 284.664062 136.855469 284.335938 C 136.527344 284.011719 136.234375 283.652344 135.976562 283.269531 C 135.71875 282.882812 135.503906 282.476562 135.324219 282.050781 C 135.148438 281.621094 135.015625 281.179688 134.925781 280.726562 C 134.832031 280.269531 134.789062 279.8125 134.789062 279.347656 C 134.789062 278.886719 134.832031 278.425781 134.925781 277.972656 C 135.015625 277.519531 135.148438 277.078125 135.324219 276.648438 C 135.503906 276.222656 135.71875 275.816406 135.976562 275.429688 C 136.234375 275.042969 136.527344 274.6875 136.855469 274.359375 C 137.183594 274.035156 137.539062 273.742188 137.921875 273.484375 C 138.308594 273.226562 138.714844 273.007812 139.144531 272.832031 C 139.570312 272.65625 140.011719 272.519531 140.464844 272.429688 C 140.921875 272.339844 141.378906 272.292969 141.84375 272.292969 L 155.953125 272.292969 C 156.414062 272.292969 156.875 272.339844 157.328125 272.429688 C 157.78125 272.519531 158.222656 272.65625 158.652344 272.832031 C 159.078125 273.007812 159.484375 273.226562 159.871094 273.484375 C 160.257812 273.742188 160.613281 274.035156 160.941406 274.359375 C 161.269531 274.6875 161.558594 275.042969 161.816406 275.429688 C 162.074219 275.816406 162.292969 276.222656 162.46875 276.648438 C 162.648438 277.078125 162.78125 277.519531 162.871094 277.972656 C 162.960938 278.425781 163.007812 278.886719 163.007812 279.347656 C 163.007812 279.8125 162.960938 280.269531 162.871094 280.726562 C 162.78125 281.179688 162.648438 281.621094 162.46875 282.050781 C 162.292969 282.476562 162.074219 282.882812 161.816406 283.269531 C 161.558594 283.652344 161.269531 284.011719 160.941406 284.335938 C 160.613281 284.664062 160.257812 284.957031 159.871094 285.214844 C 159.484375 285.472656 159.078125 285.691406 158.652344 285.867188 C 158.222656 286.042969 157.78125 286.179688 157.328125 286.269531 C 156.875 286.359375 156.414062 286.402344 155.953125 286.402344 Z M 155.953125 286.402344 " fill-opacity="1" fill-rule="nonzero"/><path fill="#cb6ce6" d="M 170.765625 356.242188 C 169.828125 356.25 168.925781 356.074219 168.058594 355.71875 C 167.191406 355.363281 166.421875 354.855469 165.757812 354.195312 C 165.425781 353.871094 165.132812 353.511719 164.871094 353.125 C 164.613281 352.738281 164.390625 352.332031 164.214844 351.902344 C 164.035156 351.472656 163.898438 351.027344 163.808594 350.570312 C 163.714844 350.117188 163.671875 349.652344 163.671875 349.1875 C 163.671875 348.722656 163.714844 348.261719 163.808594 347.804688 C 163.898438 347.347656 164.035156 346.90625 164.214844 346.476562 C 164.390625 346.046875 164.613281 345.636719 164.871094 345.25 C 165.132812 344.863281 165.425781 344.507812 165.757812 344.179688 L 175.773438 334.234375 C 176.089844 333.863281 176.441406 333.53125 176.828125 333.234375 C 177.210938 332.9375 177.625 332.683594 178.0625 332.472656 C 178.5 332.257812 178.953125 332.09375 179.425781 331.976562 C 179.894531 331.859375 180.375 331.792969 180.859375 331.773438 C 181.347656 331.753906 181.828125 331.785156 182.308594 331.867188 C 182.789062 331.945312 183.253906 332.074219 183.707031 332.253906 C 184.160156 332.429688 184.589844 332.652344 184.996094 332.917969 C 185.402344 333.183594 185.777344 333.488281 186.121094 333.832031 C 186.464844 334.175781 186.769531 334.550781 187.035156 334.960938 C 187.300781 335.367188 187.523438 335.796875 187.703125 336.25 C 187.878906 336.699219 188.007812 337.167969 188.089844 337.644531 C 188.167969 338.125 188.199219 338.609375 188.183594 339.09375 C 188.164062 339.578125 188.09375 340.058594 187.976562 340.53125 C 187.859375 341 187.695312 341.457031 187.484375 341.894531 C 187.273438 342.332031 187.015625 342.742188 186.71875 343.128906 C 186.425781 343.511719 186.089844 343.863281 185.722656 344.179688 L 175.773438 354.195312 C 175.109375 354.855469 174.34375 355.363281 173.472656 355.71875 C 172.605469 356.074219 171.703125 356.25 170.765625 356.242188 Z M 170.765625 356.242188 " fill-opacity="1" fill-rule="nonzero"/><path fill="#cb6ce6" d="M 310.445312 356.242188 C 309.507812 356.25 308.605469 356.074219 307.738281 355.71875 C 306.867188 355.363281 306.101562 354.855469 305.4375 354.195312 L 295.488281 344.179688 C 295.121094 343.863281 294.785156 343.511719 294.492188 343.128906 C 294.195312 342.742188 293.9375 342.332031 293.726562 341.894531 C 293.515625 341.457031 293.351562 341 293.234375 340.53125 C 293.117188 340.058594 293.046875 339.578125 293.027344 339.09375 C 293.011719 338.609375 293.042969 338.125 293.121094 337.644531 C 293.203125 337.167969 293.332031 336.699219 293.507812 336.25 C 293.6875 335.796875 293.910156 335.367188 294.175781 334.960938 C 294.441406 334.550781 294.746094 334.175781 295.089844 333.832031 C 295.433594 333.488281 295.808594 333.183594 296.214844 332.917969 C 296.621094 332.652344 297.050781 332.429688 297.503906 332.253906 C 297.957031 332.074219 298.421875 331.945312 298.902344 331.867188 C 299.382812 331.785156 299.863281 331.753906 300.351562 331.773438 C 300.835938 331.792969 301.316406 331.859375 301.785156 331.976562 C 302.257812 332.09375 302.710938 332.257812 303.148438 332.472656 C 303.585938 332.683594 304 332.9375 304.382812 333.234375 C 304.769531 333.53125 305.121094 333.863281 305.4375 334.234375 L 315.453125 344.179688 C 315.785156 344.507812 316.078125 344.863281 316.339844 345.25 C 316.597656 345.636719 316.820312 346.046875 316.996094 346.476562 C 317.175781 346.90625 317.3125 347.347656 317.402344 347.804688 C 317.496094 348.261719 317.539062 348.722656 317.539062 349.1875 C 317.539062 349.652344 317.496094 350.117188 317.402344 350.570312 C 317.3125 351.027344 317.175781 351.472656 316.996094 351.902344 C 316.820312 352.332031 316.597656 352.738281 316.339844 353.125 C 316.078125 353.511719 315.785156 353.871094 315.453125 354.195312 C 314.789062 354.855469 314.019531 355.363281 313.152344 355.71875 C 312.285156 356.074219 311.382812 356.25 310.445312 356.242188 Z M 310.445312 356.242188 " fill-opacity="1" fill-rule="nonzero"/><path fill="#cb6ce6" d="M 339.367188 286.402344 L 325.257812 286.402344 C 324.796875 286.402344 324.335938 286.359375 323.882812 286.269531 C 323.429688 286.179688 322.988281 286.042969 322.558594 285.867188 C 322.132812 285.691406 321.726562 285.472656 321.339844 285.214844 C 320.953125 284.957031 320.597656 284.664062 320.269531 284.335938 C 319.941406 284.011719 319.652344 283.652344 319.394531 283.269531 C 319.136719 282.882812 318.917969 282.476562 318.742188 282.050781 C 318.5625 281.621094 318.429688 281.179688 318.339844 280.726562 C 318.25 280.269531 318.203125 279.8125 318.203125 279.347656 C 318.203125 278.886719 318.25 278.425781 318.339844 277.972656 C 318.429688 277.519531 318.5625 277.078125 318.742188 276.648438 C 318.917969 276.222656 319.136719 275.816406 319.394531 275.429688 C 319.652344 275.042969 319.941406 274.6875 320.269531 274.359375 C 320.597656 274.035156 320.953125 273.742188 321.339844 273.484375 C 321.726562 273.226562 322.132812 273.007812 322.558594 272.832031 C 322.988281 272.65625 323.429688 272.519531 323.882812 272.429688 C 324.335938 272.339844 324.796875 272.292969 325.257812 272.292969 L 339.367188 272.292969 C 339.832031 272.292969 340.289062 272.339844 340.746094 272.429688 C 341.199219 272.519531 341.640625 272.65625 342.066406 272.832031 C 342.496094 273.007812 342.902344 273.226562 343.289062 273.484375 C 343.671875 273.742188 344.027344 274.035156 344.355469 274.359375 C 344.683594 274.6875 344.976562 275.042969 345.234375 275.429688 C 345.492188 275.816406 345.707031 276.222656 345.886719 276.648438 C 346.0625 277.078125 346.195312 277.519531 346.285156 277.972656 C 346.378906 278.425781 346.421875 278.886719 346.421875 279.347656 C 346.421875 279.8125 346.378906 280.269531 346.285156 280.726562 C 346.195312 281.179688 346.0625 281.621094 345.886719 282.050781 C 345.707031 282.476562 345.492188 282.882812 345.234375 283.269531 C 344.976562 283.652344 344.683594 284.011719 344.355469 284.335938 C 344.027344 284.664062 343.671875 284.957031 343.289062 285.214844 C 342.902344 285.472656 342.496094 285.691406 342.066406 285.867188 C 341.640625 286.042969 341.199219 286.179688 340.746094 286.269531 C 340.289062 286.359375 339.832031 286.402344 339.367188 286.402344 Z M 339.367188 286.402344 " fill-opacity="1" fill-rule="nonzero"/><path fill="#cb6ce6" d="M 300.496094 226.511719 C 299.558594 226.515625 298.65625 226.34375 297.789062 225.988281 C 296.921875 225.632812 296.15625 225.125 295.488281 224.464844 C 295.164062 224.136719 294.875 223.78125 294.617188 223.398438 C 294.363281 223.015625 294.148438 222.609375 293.972656 222.183594 C 293.792969 221.753906 293.660156 221.316406 293.574219 220.863281 C 293.484375 220.410156 293.4375 219.953125 293.4375 219.492188 C 293.4375 219.03125 293.484375 218.574219 293.574219 218.121094 C 293.660156 217.667969 293.792969 217.230469 293.972656 216.800781 C 294.148438 216.375 294.363281 215.96875 294.617188 215.585938 C 294.875 215.203125 295.164062 214.847656 295.488281 214.519531 L 305.4375 204.5 C 305.765625 204.171875 306.121094 203.878906 306.507812 203.621094 C 306.894531 203.363281 307.304688 203.144531 307.734375 202.96875 C 308.164062 202.789062 308.605469 202.65625 309.0625 202.566406 C 309.519531 202.476562 309.980469 202.429688 310.445312 202.429688 C 310.910156 202.429688 311.367188 202.476562 311.824219 202.566406 C 312.28125 202.65625 312.722656 202.792969 313.152344 202.96875 C 313.582031 203.148438 313.988281 203.367188 314.375 203.625 C 314.761719 203.882812 315.121094 204.175781 315.449219 204.503906 C 315.777344 204.832031 316.070312 205.191406 316.328125 205.578125 C 316.589844 205.964844 316.804688 206.371094 316.984375 206.800781 C 317.164062 207.230469 317.296875 207.675781 317.386719 208.128906 C 317.476562 208.585938 317.523438 209.046875 317.523438 209.511719 C 317.523438 209.976562 317.480469 210.4375 317.390625 210.890625 C 317.296875 211.347656 317.164062 211.792969 316.988281 212.222656 C 316.808594 212.648438 316.589844 213.058594 316.332031 213.445312 C 316.074219 213.832031 315.78125 214.191406 315.453125 214.519531 L 305.4375 224.464844 C 304.777344 225.117188 304.023438 225.621094 303.167969 225.972656 C 302.3125 226.328125 301.421875 226.507812 300.496094 226.511719 Z M 300.496094 226.511719 " fill-opacity="1" fill-rule="nonzero"/><path fill="#cb6ce6" d="M 268.824219 286.402344 C 268.359375 286.402344 267.902344 286.359375 267.445312 286.269531 C 266.992188 286.179688 266.550781 286.042969 266.125 285.867188 C 265.695312 285.691406 265.289062 285.472656 264.902344 285.214844 C 264.519531 284.957031 264.164062 284.664062 263.835938 284.335938 C 263.507812 284.011719 263.214844 283.652344 262.957031 283.269531 C 262.699219 282.882812 262.484375 282.476562 262.304688 282.050781 C 262.128906 281.621094 261.996094 281.179688 261.90625 280.726562 C 261.8125 280.269531 261.769531 279.8125 261.769531 279.347656 C 261.769531 278.65625 261.734375 277.964844 261.667969 277.273438 C 261.597656 276.585938 261.496094 275.898438 261.363281 275.21875 C 261.226562 274.539062 261.058594 273.867188 260.859375 273.207031 C 260.65625 272.542969 260.421875 271.890625 260.15625 271.25 C 259.894531 270.609375 259.597656 269.984375 259.269531 269.371094 C 258.941406 268.761719 258.585938 268.167969 258.203125 267.589844 C 257.816406 267.015625 257.40625 266.460938 256.964844 265.921875 C 256.523438 265.386719 256.058594 264.875 255.570312 264.382812 C 255.082031 263.894531 254.566406 263.429688 254.03125 262.988281 C 253.496094 262.550781 252.941406 262.136719 252.363281 261.753906 C 251.785156 261.367188 251.191406 261.011719 250.582031 260.683594 C 249.96875 260.359375 249.34375 260.0625 248.703125 259.796875 C 248.0625 259.53125 247.414062 259.296875 246.75 259.097656 C 246.085938 258.894531 245.414062 258.726562 244.734375 258.59375 C 244.054688 258.457031 243.371094 258.355469 242.679688 258.289062 C 241.988281 258.21875 241.296875 258.1875 240.605469 258.1875 C 240.140625 258.1875 239.683594 258.140625 239.230469 258.050781 C 238.773438 257.960938 238.332031 257.824219 237.90625 257.648438 C 237.476562 257.472656 237.070312 257.253906 236.6875 256.996094 C 236.300781 256.738281 235.945312 256.445312 235.617188 256.121094 C 235.289062 255.792969 234.996094 255.4375 234.738281 255.050781 C 234.484375 254.664062 234.265625 254.257812 234.089844 253.832031 C 233.910156 253.402344 233.777344 252.960938 233.6875 252.507812 C 233.597656 252.054688 233.550781 251.59375 233.550781 251.132812 C 233.550781 250.667969 233.597656 250.210938 233.6875 249.753906 C 233.777344 249.300781 233.910156 248.859375 234.089844 248.433594 C 234.265625 248.003906 234.484375 247.597656 234.738281 247.210938 C 234.996094 246.828125 235.289062 246.46875 235.617188 246.144531 C 235.945312 245.816406 236.300781 245.523438 236.6875 245.265625 C 237.070312 245.007812 237.476562 244.792969 237.90625 244.613281 C 238.332031 244.4375 238.773438 244.304688 239.230469 244.210938 C 239.683594 244.121094 240.140625 244.078125 240.605469 244.078125 C 241.761719 244.078125 242.914062 244.132812 244.0625 244.246094 C 245.210938 244.359375 246.355469 244.527344 247.488281 244.753906 C 248.621094 244.980469 249.738281 245.261719 250.84375 245.597656 C 251.949219 245.929688 253.035156 246.320312 254.105469 246.761719 C 255.171875 247.203125 256.214844 247.695312 257.234375 248.242188 C 258.25 248.785156 259.242188 249.378906 260.203125 250.019531 C 261.164062 250.664062 262.089844 251.351562 262.980469 252.082031 C 263.875 252.816406 264.730469 253.589844 265.546875 254.40625 C 266.363281 255.226562 267.136719 256.078125 267.871094 256.972656 C 268.605469 257.867188 269.292969 258.792969 269.933594 259.753906 C 270.574219 260.714844 271.167969 261.703125 271.710938 262.722656 C 272.257812 263.742188 272.75 264.785156 273.191406 265.851562 C 273.636719 266.917969 274.023438 268.003906 274.359375 269.109375 C 274.695312 270.214844 274.976562 271.335938 275.199219 272.46875 C 275.425781 273.601562 275.59375 274.742188 275.707031 275.890625 C 275.820312 277.042969 275.878906 278.195312 275.878906 279.347656 C 275.878906 279.8125 275.832031 280.269531 275.742188 280.726562 C 275.652344 281.179688 275.519531 281.621094 275.339844 282.050781 C 275.164062 282.476562 274.945312 282.882812 274.6875 283.269531 C 274.429688 283.652344 274.140625 284.011719 273.8125 284.335938 C 273.484375 284.664062 273.128906 284.957031 272.742188 285.214844 C 272.355469 285.472656 271.949219 285.691406 271.523438 285.867188 C 271.09375 286.042969 270.652344 286.179688 270.199219 286.269531 C 269.746094 286.359375 269.285156 286.402344 268.824219 286.402344 Z M 268.824219 286.402344 " fill-opacity="1" fill-rule="nonzero"/></svg>