<svg xmlns="http://www.w3.org/2000/svg" xmlns:xlink="http://www.w3.org/1999/xlink" width="855" zoomAndPan="magnify" viewBox="0 0 641.25 746.25" height="995" preserveAspectRatio="xMidYMid meet" version="1.0"><defs><clipPath id="5315fe27c5"><path d="M 0 0.0625 L 640.5 0.0625 L 640.5 745.441406 L 0 745.441406 Z M 0 0.0625 " clip-rule="nonzero"/></clipPath><clipPath id="33da77d744"><path d="M 16.613281 24 L 623.890625 24 L 623.890625 722 L 16.613281 722 Z M 16.613281 24 " clip-rule="nonzero"/></clipPath><clipPath id="5a815ab864"><path d="M 336.4375 28.84375 L 607.703125 186.671875 C 617.722656 192.5 623.890625 203.222656 623.890625 214.816406 L 623.890625 530.683594 C 623.890625 542.28125 617.722656 553 607.703125 558.832031 L 336.4375 716.65625 C 326.429688 722.480469 314.070312 722.480469 304.0625 716.65625 L 32.800781 558.832031 C 22.777344 553 16.613281 542.28125 16.613281 530.683594 L 16.613281 214.816406 C 16.613281 203.222656 22.777344 192.5 32.800781 186.671875 L 304.0625 28.84375 C 314.070312 23.023438 326.429688 23.023438 336.4375 28.84375 " clip-rule="nonzero"/></clipPath><clipPath id="e62052a8a7"><path d="M 16.613281 24 L 624.152344 24 L 624.152344 721 L 16.613281 721 Z M 16.613281 24 " clip-rule="nonzero"/></clipPath><clipPath id="926780b1a5"><path d="M 336.578125 28.84375 L 607.957031 186.617188 C 617.984375 192.445312 624.152344 203.164062 624.152344 214.753906 L 624.152344 530.519531 C 624.152344 542.113281 617.984375 552.828125 607.957031 558.65625 L 336.578125 716.433594 C 326.566406 722.253906 314.199219 722.253906 304.1875 716.433594 L 32.808594 558.65625 C 22.78125 552.828125 16.613281 542.113281 16.613281 530.519531 L 16.613281 214.753906 C 16.613281 203.164062 22.78125 192.445312 32.808594 186.617188 L 304.1875 28.84375 C 314.199219 23.023438 326.566406 23.023438 336.578125 28.84375 " clip-rule="nonzero"/></clipPath></defs><g clip-path="url(#5315fe27c5)"><path fill="#ffffff" d="M 0 0.0625 L 640.5 0.0625 L 640.5 745.441406 L 0 745.441406 Z M 0 0.0625 " fill-opacity="1" fill-rule="nonzero"/><path fill="#ffffff" d="M 0 0.0625 L 640.5 0.0625 L 640.5 745.441406 L 0 745.441406 Z M 0 0.0625 " fill-opacity="1" fill-rule="nonzero"/></g><g clip-path="url(#33da77d744)"><g clip-path="url(#5a815ab864)"><path fill="#ffffff" d="M 16.613281 19.425781 L 623.890625 19.425781 L 623.890625 726.074219 L 16.613281 726.074219 Z M 16.613281 19.425781 " fill-opacity="1" fill-rule="nonzero"/></g></g><g clip-path="url(#e62052a8a7)"><g clip-path="url(#926780b1a5)"><path stroke-linecap="butt" transform="matrix(0.749456, 0, 0, 0.748888, 16.612045, 19.428084)" fill="none" stroke-linejoin="miter" d="M 426.931146 12.572863 L 789.032364 223.249813 C 802.411862 231.032185 810.64179 245.345073 810.64179 260.821144 L 810.64179 682.467145 C 810.64179 697.948432 802.411862 712.256104 789.032364 720.038476 L 426.931146 930.720643 C 413.572497 938.492583 397.070943 938.492583 383.712294 930.720643 L 21.611075 720.038476 C 8.231578 712.256104 0.00164935 697.948432 0.00164935 682.467145 L 0.00164935 260.821144 C 0.00164935 245.345073 8.231578 231.032185 21.611075 223.249813 L 383.712294 12.572863 C 397.070943 4.800923 413.572497 4.800923 426.931146 12.572863 " stroke="#8cc74b" stroke-width="64" stroke-opacity="1" stroke-miterlimit="4"/></g></g><path fill="#8cc84b" d="M 302.242188 163.015625 C 312.984375 156.9375 326.679688 156.910156 337.152344 163.015625 L 497.527344 253.367188 C 507.554688 259 514.269531 270.179688 514.175781 281.734375 L 514.175781 462.886719 C 514.242188 474.925781 506.871094 486.34375 496.289062 491.871094 L 336.777344 581.804688 C 335.417969 582.554688 334.015625 583.210938 332.570312 583.777344 C 331.125 584.339844 329.648438 584.804688 328.140625 585.171875 C 326.632812 585.535156 325.109375 585.800781 323.566406 585.964844 C 322.023438 586.128906 320.476562 586.1875 318.925781 586.144531 C 317.375 586.101562 315.832031 585.957031 314.300781 585.707031 C 312.769531 585.460938 311.261719 585.113281 309.777344 584.664062 C 308.292969 584.214844 306.84375 583.667969 305.429688 583.027344 C 304.019531 582.382812 302.65625 581.652344 301.339844 580.828125 L 253.472656 553.183594 C 250.210938 551.238281 246.546875 549.695312 244.234375 546.542969 C 246.277344 543.804688 249.902344 543.453125 252.855469 542.246094 C 259.515625 540.128906 265.613281 536.878906 271.734375 533.445312 C 273.277344 532.371094 275.171875 532.773438 276.648438 533.738281 L 317.46875 557.332031 C 320.382812 559.007812 323.335938 556.792969 325.832031 555.382812 L 482.460938 467.046875 C 484.394531 466.109375 485.46875 464.070312 485.308594 461.949219 L 485.308594 282.539062 C 485.523438 280.121094 484.140625 277.921875 481.949219 276.941406 L 322.839844 187.398438 C 322.378906 187.082031 321.882812 186.839844 321.351562 186.671875 C 320.820312 186.507812 320.277344 186.421875 319.71875 186.421875 C 319.160156 186.421875 318.617188 186.5 318.082031 186.667969 C 317.550781 186.832031 317.054688 187.070312 316.59375 187.386719 L 157.710938 277.117188 C 155.5625 278.097656 154.085938 280.269531 154.355469 282.6875 L 154.355469 462.097656 C 154.167969 464.214844 155.292969 466.214844 157.242188 467.128906 L 199.699219 491.082031 C 207.671875 495.375 217.460938 497.789062 226.242188 494.636719 C 227.199219 494.277344 228.121094 493.847656 229.011719 493.347656 C 229.898438 492.847656 230.746094 492.285156 231.550781 491.65625 C 232.355469 491.027344 233.105469 490.339844 233.804688 489.597656 C 234.507812 488.855469 235.144531 488.0625 235.722656 487.222656 C 236.304688 486.382812 236.816406 485.503906 237.261719 484.585938 C 237.707031 483.667969 238.082031 482.722656 238.382812 481.75 C 238.683594 480.773438 238.910156 479.78125 239.058594 478.773438 C 239.210938 477.765625 239.285156 476.75 239.28125 475.730469 L 239.320312 297.394531 C 239.132812 294.75 241.628906 292.5625 244.195312 292.832031 L 264.605469 292.832031 C 267.289062 292.761719 269.398438 295.609375 269.035156 298.265625 L 268.996094 477.730469 C 269.007812 493.671875 262.457031 511.007812 247.699219 518.832031 C 229.519531 528.226562 207.042969 526.253906 189.078125 517.222656 L 143.425781 491.992188 C 132.683594 486.625 125.472656 475.03125 125.539062 463.007812 L 125.539062 281.855469 C 125.550781 280.386719 125.660156 278.929688 125.863281 277.480469 C 126.070312 276.027344 126.371094 274.597656 126.765625 273.1875 C 127.164062 271.773438 127.652344 270.398438 128.230469 269.050781 C 128.8125 267.703125 129.476562 266.402344 130.230469 265.144531 C 130.984375 263.886719 131.816406 262.6875 132.730469 261.539062 C 133.644531 260.394531 134.628906 259.3125 135.6875 258.296875 C 136.746094 257.28125 137.863281 256.34375 139.046875 255.476562 C 140.230469 254.609375 141.464844 253.824219 142.753906 253.125 Z M 348.484375 288.589844 C 371.671875 287.25 396.5 287.703125 417.367188 299.125 C 433.519531 307.875 442.472656 326.230469 442.769531 344.183594 C 442.3125 346.601562 439.789062 347.941406 437.480469 347.765625 C 430.765625 347.753906 424.027344 347.863281 417.285156 347.726562 C 414.425781 347.835938 412.773438 345.203125 412.410156 342.683594 C 410.476562 334.09375 405.792969 325.597656 397.707031 321.453125 C 385.300781 315.238281 370.90625 315.546875 357.371094 315.683594 C 347.492188 316.21875 336.871094 317.066406 328.503906 322.863281 C 322.058594 327.261719 320.125 336.28125 322.421875 343.285156 C 324.570312 348.425781 330.519531 350.074219 335.367188 351.605469 C 363.320312 358.90625 392.929688 358.316406 420.359375 367.800781 C 431.707031 371.71875 442.808594 379.34375 446.703125 391.21875 C 451.78125 407.132812 449.5625 426.160156 438.246094 438.933594 C 429.0625 449.457031 415.6875 455.039062 402.328125 458.285156 C 384.5625 462.242188 366.140625 462.335938 348.109375 460.566406 C 331.148438 458.632812 313.507812 454.179688 300.414062 442.640625 C 289.214844 432.921875 283.765625 417.789062 284.300781 403.1875 C 284.4375 400.71875 286.894531 399 289.269531 399.203125 L 309.410156 399.203125 C 312.125 399.015625 314.109375 401.347656 314.246094 403.898438 C 315.492188 411.949219 318.570312 420.671875 325.710938 425.367188 C 339.488281 434.253906 356.769531 433.636719 372.53125 433.890625 C 385.597656 433.3125 400.257812 433.136719 410.933594 424.496094 C 416.574219 419.570312 418.226562 411.347656 416.707031 404.261719 C 415.054688 398.277344 408.652344 395.5 403.28125 393.527344 C 375.6875 384.804688 345.746094 387.96875 318.421875 378.09375 C 307.328125 374.175781 296.601562 366.769531 292.34375 355.375 C 286.398438 339.273438 289.121094 319.320312 301.648438 306.972656 C 313.734375 294.695312 331.457031 289.957031 348.242188 288.269531 Z M 348.484375 288.589844 " fill-opacity="1" fill-rule="nonzero"/></svg>