<svg xmlns="http://www.w3.org/2000/svg" xmlns:xlink="http://www.w3.org/1999/xlink" width="855" zoomAndPan="magnify" viewBox="0 0 641.25 746.25" height="995" preserveAspectRatio="xMidYMid meet" version="1.0"><defs><clipPath id="a5dbd509d2"><path d="M 0 0.0625 L 640.5 0.0625 L 640.5 745.441406 L 0 745.441406 Z M 0 0.0625 " clip-rule="nonzero"/></clipPath><clipPath id="6aff49ba55"><path d="M 16.613281 24 L 623.890625 24 L 623.890625 722 L 16.613281 722 Z M 16.613281 24 " clip-rule="nonzero"/></clipPath><clipPath id="6ffc528093"><path d="M 336.4375 28.84375 L 607.703125 186.667969 C 617.722656 192.5 623.890625 203.222656 623.890625 214.816406 L 623.890625 530.683594 C 623.890625 542.28125 617.722656 553 607.703125 558.832031 L 336.4375 716.65625 C 326.429688 722.480469 314.070312 722.480469 304.0625 716.65625 L 32.800781 558.832031 C 22.777344 553 16.613281 542.28125 16.613281 530.683594 L 16.613281 214.816406 C 16.613281 203.222656 22.777344 192.5 32.800781 186.667969 L 304.0625 28.84375 C 314.070312 23.023438 326.429688 23.023438 336.4375 28.84375 " clip-rule="nonzero"/></clipPath><clipPath id="8e3899519f"><path d="M 16.613281 24 L 624.152344 24 L 624.152344 721 L 16.613281 721 Z M 16.613281 24 " clip-rule="nonzero"/></clipPath><clipPath id="25c4844f25"><path d="M 336.578125 28.84375 L 607.957031 186.617188 C 617.984375 192.445312 624.152344 203.164062 624.152344 214.753906 L 624.152344 530.519531 C 624.152344 542.113281 617.984375 552.828125 607.957031 558.65625 L 336.578125 716.433594 C 326.566406 722.253906 314.199219 722.253906 304.1875 716.433594 L 32.808594 558.65625 C 22.78125 552.828125 16.613281 542.113281 16.613281 530.519531 L 16.613281 214.753906 C 16.613281 203.164062 22.78125 192.445312 32.808594 186.617188 L 304.1875 28.84375 C 314.199219 23.023438 326.566406 23.023438 336.578125 28.84375 " clip-rule="nonzero"/></clipPath><clipPath id="786844c69f"><path d="M 140 272.625 L 499 272.625 L 499 385 L 140 385 Z M 140 272.625 " clip-rule="nonzero"/></clipPath><clipPath id="7f1aa495dd"><path d="M 73.792969 330 L 566.714844 330 L 566.714844 472.644531 L 73.792969 472.644531 Z M 73.792969 330 " clip-rule="nonzero"/></clipPath></defs><g clip-path="url(#a5dbd509d2)"><path fill="#ffffff" d="M 0 0.0625 L 641.25 0.0625 L 641.25 753.679688 L 0 753.679688 Z M 0 0.0625 " fill-opacity="1" fill-rule="nonzero"/><path fill="#ffffff" d="M 0 0.0625 L 640.5 0.0625 L 640.5 745.441406 L 0 745.441406 Z M 0 0.0625 " fill-opacity="1" fill-rule="nonzero"/><path fill="#ffffff" d="M 0 0.0625 L 640.5 0.0625 L 640.5 745.441406 L 0 745.441406 Z M 0 0.0625 " fill-opacity="1" fill-rule="nonzero"/></g><g clip-path="url(#6aff49ba55)"><g clip-path="url(#6ffc528093)"><path fill="#ffffff" d="M 16.613281 19.425781 L 623.890625 19.425781 L 623.890625 726.074219 L 16.613281 726.074219 Z M 16.613281 19.425781 " fill-opacity="1" fill-rule="nonzero"/></g></g><g clip-path="url(#8e3899519f)"><g clip-path="url(#25c4844f25)"><path stroke-linecap="butt" transform="matrix(0.749456, 0, 0, 0.748888, 16.612045, 19.428016)" fill="none" stroke-linejoin="miter" d="M 426.931146 12.572953 L 789.032364 223.249904 C 802.411862 231.032276 810.64179 245.345164 810.64179 260.821235 L 810.64179 682.467235 C 810.64179 697.948523 802.411862 712.256195 789.032364 720.038567 L 426.931146 930.720733 C 413.572497 938.492673 397.070943 938.492673 383.712294 930.720733 L 21.611075 720.038567 C 8.231578 712.256195 0.00164935 697.948523 0.00164935 682.467235 L 0.00164935 260.821235 C 0.00164935 245.345164 8.231578 231.032276 21.611075 223.249904 L 383.712294 12.572953 C 397.070943 4.801013 413.572497 4.801013 426.931146 12.572953 " stroke="#f6921e" stroke-width="64" stroke-opacity="1" stroke-miterlimit="4"/></g></g><g clip-path="url(#786844c69f)"><path fill="#a6a8ab" d="M 330.269531 353.433594 L 325.347656 350.585938 C 322.78125 349.117188 320.242188 347.574219 317.550781 346.304688 L 309.566406 342.375 C 308.246094 341.6875 306.863281 341.128906 305.503906 340.542969 L 301.394531 338.816406 C 295.960938 336.414062 290.320312 334.546875 284.703125 332.632812 C 283.304688 332.121094 281.875 331.761719 280.441406 331.335938 L 276.804688 330.304688 C 266.089844 317.3125 250.234375 308.878906 232.867188 308.878906 C 218.753906 308.878906 205.574219 314.5625 195.398438 323.773438 C 193.304688 323.984375 191.222656 324.195312 189.132812 324.480469 L 180.609375 325.773438 C 174.96875 326.808594 169.351562 327.867188 163.820312 329.269531 C 155.785156 331.238281 147.898438 333.589844 140.175781 336.3125 C 154.203125 299.609375 191.136719 272.71875 232.894531 272.71875 C 281.375 272.71875 322.621094 308.253906 330.269531 353.433594 Z M 436.964844 350.746094 C 408.3125 344.265625 397.238281 339.949219 397.238281 326.445312 C 397.238281 315.386719 407.515625 306.476562 424.53125 306.476562 C 442.382812 306.476562 461.019531 313.769531 477.511719 326.996094 L 498.3125 298.375 C 479.40625 282.164062 455.886719 272.71875 425.613281 272.71875 C 385.066406 272.71875 356.964844 296.210938 356.964844 330.492188 C 356.964844 360.414062 376.296875 373.09375 405.433594 381.644531 C 418.078125 383.546875 431.070312 384.28125 444.226562 383.957031 C 460.917969 383.511719 477.886719 381.417969 494.886719 378.011719 C 484.027344 363.851562 463.460938 356.644531 436.964844 350.746094 Z M 436.964844 350.746094 " fill-opacity="1" fill-rule="nonzero"/></g><g clip-path="url(#7f1aa495dd)"><path fill="#f6921e" d="M 551.292969 370.183594 C 546.1875 372.011719 541.054688 373.679688 535.945312 375.308594 C 525.695312 378.484375 515.46875 381.320312 505.226562 383.683594 C 501.777344 384.480469 498.339844 385.238281 494.886719 385.921875 C 477.886719 389.332031 460.917969 391.421875 444.226562 391.871094 C 431.058594 392.183594 418.078125 391.460938 405.433594 389.558594 C 398.78125 388.5625 392.242188 387.230469 385.800781 385.574219 C 367.09375 380.796875 349.441406 373.046875 332.984375 362.917969 L 330.28125 361.347656 L 325.359375 358.5 C 322.796875 357.03125 320.253906 355.488281 317.5625 354.21875 L 309.578125 350.289062 C 308.257812 349.601562 306.875 349.042969 305.515625 348.457031 L 301.40625 346.730469 C 295.976562 344.328125 290.332031 342.460938 284.714844 340.542969 C 283.320312 340.035156 281.886719 339.671875 280.453125 339.25 L 276.816406 338.21875 L 276.167969 338.03125 L 271.882812 336.847656 C 270.464844 336.449219 268.992188 336.191406 267.546875 335.855469 L 258.878906 333.988281 L 250.144531 332.617188 L 247.964844 332.28125 C 247.242188 332.15625 246.507812 332.058594 245.785156 331.996094 L 241.390625 331.546875 L 237.015625 331.125 L 234.824219 330.925781 L 232.632812 330.800781 L 223.875 330.429688 C 220.960938 330.390625 218.042969 330.417969 215.128906 330.453125 C 212.214844 330.441406 209.324219 330.640625 206.421875 330.789062 C 203.519531 330.953125 200.640625 331.101562 197.765625 331.4375 C 196.980469 331.523438 196.195312 331.597656 195.421875 331.671875 C 193.328125 331.882812 191.25 332.097656 189.15625 332.382812 L 180.636719 333.6875 C 174.992188 334.722656 169.375 335.777344 163.84375 337.183594 C 155.808594 339.152344 147.921875 341.503906 140.199219 344.226562 C 137.273438 345.261719 134.371094 346.34375 131.492188 347.476562 C 121.027344 351.617188 110.890625 356.433594 101.210938 361.957031 C 99.988281 362.644531 98.792969 363.328125 97.597656 364.050781 C 96.390625 364.757812 95.207031 365.46875 94.023438 366.203125 C 91.679688 367.707031 89.324219 369.164062 87.023438 370.742188 C 82.449219 373.890625 77.953125 377.125 73.792969 380.808594 C 79.113281 379.28125 84.367188 377.886719 89.648438 376.617188 C 94.90625 375.285156 100.1875 374.140625 105.433594 373.03125 C 115.210938 371.03125 124.941406 369.3125 134.632812 367.992188 C 134.359375 370.792969 134.234375 373.617188 134.234375 376.480469 C 134.234375 428.589844 179.640625 472.601562 232.894531 472.601562 C 275.394531 472.601562 312.332031 445.128906 325.960938 407.871094 C 338.402344 414.132812 351.570312 419.109375 365.085938 422.542969 L 348.84375 441.816406 C 370.46875 461.800781 399.121094 472.601562 431.28125 472.601562 C 476.6875 472.601562 503.445312 449.109375 503.445312 413.734375 C 503.445312 411.71875 503.347656 409.777344 503.171875 407.910156 C 506.324219 406.46875 509.449219 404.949219 512.527344 403.367188 C 522.566406 398.21875 532.183594 392.417969 541.265625 385.949219 C 545.824219 382.75 550.222656 379.328125 554.496094 375.796875 C 558.742188 372.199219 562.890625 368.527344 566.652344 364.449219 C 561.535156 366.488281 556.425781 368.390625 551.292969 370.183594 Z M 232.894531 436.40625 C 201.800781 436.40625 175.316406 408.867188 175.316406 376.46875 C 175.316406 372.410156 175.742188 368.441406 176.539062 364.570312 C 183.949219 364.410156 191.324219 364.496094 198.625 364.933594 C 201.152344 364.984375 203.667969 365.269531 206.171875 365.457031 C 208.675781 365.65625 211.191406 365.804688 213.671875 366.164062 L 221.121094 367.046875 C 223.585938 367.445312 226.042969 367.855469 228.484375 368.21875 L 230.328125 368.492188 L 232.15625 368.851562 L 235.796875 369.585938 C 238.210938 370.085938 240.640625 370.507812 243.03125 371.152344 L 250.207031 372.910156 L 257.269531 374.972656 C 258.441406 375.335938 259.625 375.621094 260.785156 376.042969 L 264.246094 377.25 L 267.710938 378.433594 C 268.867188 378.832031 270.039062 379.179688 271.148438 379.675781 C 273.402344 380.609375 275.671875 381.507812 277.9375 382.402344 C 280.230469 383.234375 282.398438 384.367188 284.613281 385.363281 L 287.929688 386.882812 C 288.5 387.144531 289.085938 387.390625 289.660156 387.664062 C 284.441406 414.964844 260.558594 436.40625 232.894531 436.40625 Z M 432.902344 438.84375 C 416.832031 438.84375 402.394531 434.550781 389.265625 427.011719 C 408.921875 429.363281 428.730469 428.640625 447.726562 425.292969 C 452.769531 424.398438 457.777344 423.339844 462.710938 422.121094 C 460.570312 431.726562 450.503906 438.84375 432.902344 438.84375 Z M 432.902344 438.84375 " fill-opacity="1" fill-rule="nonzero"/></g></svg>