<svg xmlns="http://www.w3.org/2000/svg" xmlns:xlink="http://www.w3.org/1999/xlink" width="855" zoomAndPan="magnify" viewBox="0 0 641.25 746.25" height="995" preserveAspectRatio="xMidYMid meet" version="1.0"><defs><clipPath id="618afd8af0"><path d="M 0 0.0625 L 640.5 0.0625 L 640.5 745.441406 L 0 745.441406 Z M 0 0.0625 " clip-rule="nonzero"/></clipPath><clipPath id="2ce061ad7d"><path d="M 16.613281 24 L 623.890625 24 L 623.890625 722 L 16.613281 722 Z M 16.613281 24 " clip-rule="nonzero"/></clipPath><clipPath id="917cfa1eb3"><path d="M 336.4375 28.84375 L 607.703125 186.667969 C 617.722656 192.5 623.890625 203.222656 623.890625 214.816406 L 623.890625 530.683594 C 623.890625 542.28125 617.722656 553 607.703125 558.832031 L 336.4375 716.65625 C 326.429688 722.480469 314.070312 722.480469 304.0625 716.65625 L 32.800781 558.832031 C 22.777344 553 16.613281 542.28125 16.613281 530.683594 L 16.613281 214.816406 C 16.613281 203.222656 22.777344 192.5 32.800781 186.667969 L 304.0625 28.84375 C 314.070312 23.023438 326.429688 23.023438 336.4375 28.84375 " clip-rule="nonzero"/></clipPath><clipPath id="065e18485a"><path d="M 16.613281 24 L 624.152344 24 L 624.152344 721 L 16.613281 721 Z M 16.613281 24 " clip-rule="nonzero"/></clipPath><clipPath id="f639c12036"><path d="M 336.578125 28.84375 L 607.957031 186.617188 C 617.984375 192.445312 624.152344 203.164062 624.152344 214.753906 L 624.152344 530.519531 C 624.152344 542.113281 617.984375 552.828125 607.957031 558.65625 L 336.578125 716.433594 C 326.566406 722.253906 314.199219 722.253906 304.1875 716.433594 L 32.808594 558.65625 C 22.78125 552.828125 16.613281 542.113281 16.613281 530.519531 L 16.613281 214.753906 C 16.613281 203.164062 22.78125 192.445312 32.808594 186.617188 L 304.1875 28.84375 C 314.199219 23.023438 326.566406 23.023438 336.578125 28.84375 " clip-rule="nonzero"/></clipPath><clipPath id="02b7955159"><path d="M 99.941406 185 L 540.425781 185 L 540.425781 560 L 99.941406 560 Z M 99.941406 185 " clip-rule="nonzero"/></clipPath><clipPath id="ebef2d66ef"><path d="M 99.941406 166.460938 L 540.425781 166.460938 L 540.425781 579.230469 L 99.941406 579.230469 Z M 99.941406 166.460938 " clip-rule="nonzero"/></clipPath></defs><g clip-path="url(#618afd8af0)"><path fill="#ffffff" d="M 0 0.0625 L 640.5 0.0625 L 640.5 745.441406 L 0 745.441406 Z M 0 0.0625 " fill-opacity="1" fill-rule="nonzero"/><path fill="#ffffff" d="M 0 0.0625 L 640.5 0.0625 L 640.5 745.441406 L 0 745.441406 Z M 0 0.0625 " fill-opacity="1" fill-rule="nonzero"/></g><g clip-path="url(#2ce061ad7d)"><g clip-path="url(#917cfa1eb3)"><path fill="#ffffff" d="M 16.613281 19.425781 L 623.890625 19.425781 L 623.890625 726.074219 L 16.613281 726.074219 Z M 16.613281 19.425781 " fill-opacity="1" fill-rule="nonzero"/></g></g><g clip-path="url(#065e18485a)"><g clip-path="url(#f639c12036)"><path stroke-linecap="butt" transform="matrix(0.749456, 0, 0, 0.748888, 16.612045, 19.428026)" fill="none" stroke-linejoin="miter" d="M 426.931146 12.572941 L 789.032364 223.249891 C 802.411862 231.032263 810.64179 245.345151 810.64179 260.821223 L 810.64179 682.467223 C 810.64179 697.94851 802.411862 712.256182 789.032364 720.038554 L 426.931146 930.720721 C 413.572497 938.492661 397.070943 938.492661 383.712294 930.720721 L 21.611075 720.038554 C 8.231578 712.256182 0.00164935 697.94851 0.00164935 682.467223 L 0.00164935 260.821223 C 0.00164935 245.345151 8.231578 231.032263 21.611075 223.249891 L 383.712294 12.572941 C 397.070943 4.801001 413.572497 4.801001 426.931146 12.572941 " stroke="#00d8ff" stroke-width="64" stroke-opacity="1" stroke-miterlimit="4"/></g></g><path fill="#00d8ff" d="M 359.519531 372.484375 C 359.519531 373.773438 359.457031 375.058594 359.332031 376.339844 C 359.207031 377.625 359.015625 378.898438 358.765625 380.164062 C 358.515625 381.425781 358.203125 382.675781 357.828125 383.910156 C 357.453125 385.144531 357.019531 386.355469 356.527344 387.546875 C 356.035156 388.738281 355.484375 389.902344 354.875 391.039062 C 354.269531 392.175781 353.609375 393.28125 352.890625 394.351562 C 352.175781 395.425781 351.410156 396.460938 350.59375 397.457031 C 349.777344 398.453125 348.910156 399.40625 348 400.316406 C 347.089844 401.230469 346.136719 402.09375 345.140625 402.914062 C 344.144531 403.730469 343.109375 404.496094 342.039062 405.214844 C 340.96875 405.929688 339.863281 406.59375 338.730469 407.199219 C 337.59375 407.808594 336.429688 408.359375 335.238281 408.851562 C 334.050781 409.34375 332.835938 409.777344 331.605469 410.152344 C 330.371094 410.527344 329.125 410.839844 327.859375 411.089844 C 326.597656 411.34375 325.324219 411.53125 324.042969 411.660156 C 322.761719 411.785156 321.476562 411.847656 320.1875 411.847656 C 318.898438 411.847656 317.613281 411.785156 316.332031 411.660156 C 315.050781 411.53125 313.777344 411.34375 312.511719 411.089844 C 311.25 410.839844 310 410.527344 308.769531 410.152344 C 307.535156 409.777344 306.324219 409.34375 305.132812 408.851562 C 303.945312 408.359375 302.78125 407.808594 301.644531 407.199219 C 300.507812 406.59375 299.40625 405.929688 298.335938 405.214844 C 297.261719 404.496094 296.230469 403.730469 295.234375 402.914062 C 294.238281 402.09375 293.285156 401.230469 292.375 400.316406 C 291.460938 399.40625 290.597656 398.453125 289.78125 397.457031 C 288.964844 396.460938 288.199219 395.425781 287.480469 394.351562 C 286.765625 393.28125 286.105469 392.175781 285.496094 391.039062 C 284.890625 389.902344 284.339844 388.738281 283.847656 387.546875 C 283.355469 386.355469 282.921875 385.144531 282.546875 383.910156 C 282.171875 382.675781 281.859375 381.425781 281.609375 380.164062 C 281.355469 378.898438 281.167969 377.625 281.042969 376.339844 C 280.917969 375.058594 280.851562 373.773438 280.851562 372.484375 C 280.851562 371.195312 280.917969 369.90625 281.042969 368.625 C 281.167969 367.34375 281.355469 366.066406 281.609375 364.804688 C 281.859375 363.539062 282.171875 362.289062 282.546875 361.054688 C 282.921875 359.824219 283.355469 358.609375 283.847656 357.417969 C 284.339844 356.226562 284.890625 355.0625 285.496094 353.925781 C 286.105469 352.789062 286.765625 351.683594 287.480469 350.613281 C 288.199219 349.542969 288.964844 348.507812 289.78125 347.511719 C 290.597656 346.515625 291.460938 345.558594 292.375 344.648438 C 293.285156 343.738281 294.238281 342.871094 295.234375 342.054688 C 296.230469 341.234375 297.261719 340.46875 298.335938 339.753906 C 299.40625 339.035156 300.507812 338.375 301.644531 337.765625 C 302.78125 337.160156 303.945312 336.609375 305.132812 336.113281 C 306.324219 335.621094 307.535156 335.1875 308.769531 334.8125 C 310 334.441406 311.25 334.125 312.511719 333.875 C 313.777344 333.625 315.050781 333.433594 316.332031 333.308594 C 317.613281 333.183594 318.898438 333.117188 320.1875 333.117188 C 321.476562 333.117188 322.761719 333.183594 324.042969 333.308594 C 325.324219 333.433594 326.597656 333.625 327.859375 333.875 C 329.125 334.125 330.371094 334.441406 331.605469 334.8125 C 332.835938 335.1875 334.050781 335.621094 335.238281 336.113281 C 336.429688 336.609375 337.59375 337.160156 338.730469 337.765625 C 339.863281 338.375 340.96875 339.035156 342.039062 339.753906 C 343.109375 340.46875 344.144531 341.234375 345.140625 342.054688 C 346.136719 342.871094 347.089844 343.738281 348 344.648438 C 348.910156 345.558594 349.777344 346.515625 350.59375 347.511719 C 351.410156 348.507812 352.175781 349.542969 352.890625 350.613281 C 353.609375 351.683594 354.269531 352.789062 354.875 353.925781 C 355.484375 355.0625 356.035156 356.226562 356.527344 357.417969 C 357.019531 358.609375 357.453125 359.824219 357.828125 361.054688 C 358.203125 362.289062 358.515625 363.539062 358.765625 364.804688 C 359.015625 366.066406 359.207031 367.34375 359.332031 368.625 C 359.457031 369.90625 359.519531 371.195312 359.519531 372.484375 Z M 359.519531 372.484375 " fill-opacity="1" fill-rule="nonzero"/><g clip-path="url(#02b7955159)"><path stroke-linecap="butt" transform="matrix(0.784063, 0, 0, 0.78467, 108.858471, 186.021972)" fill="none" stroke-linejoin="miter" d="M 269.530697 135.628067 C 336.888173 135.628067 399.457887 145.29574 446.638012 161.534643 C 503.483337 181.108942 538.432501 210.769084 538.432501 237.631475 C 538.432501 265.618939 501.395853 297.130973 440.35065 317.357417 C 394.201812 332.650461 333.470478 340.630523 269.530697 340.630523 C 203.976728 340.630523 141.900238 333.138325 95.233265 317.188158 C 36.185868 297.006518 0.618929 265.086272 0.618929 237.631475 C 0.618929 210.988125 33.988779 181.552003 90.036974 162.01255 C 137.391472 145.504825 201.505625 135.628067 269.525715 135.628067 Z M 269.530697 135.628067 " stroke="#00d8ff" stroke-width="24" stroke-opacity="1" stroke-miterlimit="4"/></g><g clip-path="url(#ebef2d66ef)"><path stroke-linecap="butt" transform="matrix(0.784063, 0, 0, 0.78467, 108.858471, 186.021972)" fill="none" stroke-linejoin="miter" d="M 180.740391 186.918507 C 214.389237 128.573952 254.021539 79.200121 291.661015 46.438558 C 337.007742 6.976332 380.162361 -8.480992 403.42859 4.935268 C 427.676285 18.919044 436.469624 66.749632 423.496335 129.738852 C 413.696619 177.355376 390.261001 233.947603 358.321002 289.335105 C 325.568928 346.12646 288.068949 396.157414 250.942624 428.60535 C 203.961781 469.675536 158.540324 484.535476 134.760943 470.820523 C 111.679051 457.518761 102.855819 413.899734 113.925961 355.590027 C 123.282273 306.320738 146.757748 245.85049 180.725445 186.928463 Z M 180.740391 186.918507 " stroke="#00d8ff" stroke-width="24" stroke-opacity="1" stroke-miterlimit="4"/><path stroke-linecap="butt" transform="matrix(0.784063, 0, 0, 0.78467, 108.858471, 186.021972)" fill="none" stroke-linejoin="miter" d="M 180.820104 289.479473 C 147.081582 231.199635 124.099331 172.197957 114.508862 123.232339 C 102.965425 64.230661 111.126042 19.118173 134.372342 5.662086 C 158.600109 -8.361515 204.430095 7.902278 252.511974 50.600337 C 288.871061 82.879014 326.20165 131.436419 358.236307 186.769161 C 391.078059 243.500777 415.694426 300.979125 425.269949 349.352337 C 437.386323 410.564337 427.581626 457.329589 403.817191 471.089346 C 380.760209 484.435912 338.567127 470.307768 293.579109 431.592273 C 255.565978 398.880492 214.897407 348.336783 180.815122 289.469516 Z M 180.820104 289.479473 " stroke="#00d8ff" stroke-width="24" stroke-opacity="1" stroke-miterlimit="4"/></g></svg>