<svg xmlns="http://www.w3.org/2000/svg" xmlns:xlink="http://www.w3.org/1999/xlink" width="500" zoomAndPan="magnify" viewBox="0 0 375 374.999991" height="500" preserveAspectRatio="xMidYMid meet" version="1.0"><defs><g/></defs><g fill="#00bf63" fill-opacity="1"><g transform="translate(-10.968194, 347.778376)"><g><path d="M 377.28125 -169.953125 C 377.28125 -145.671875 372.664062 -122.925781 363.4375 -101.71875 C 354.21875 -80.519531 341.515625 -61.988281 325.328125 -46.125 L 359.3125 -3.890625 L 297.65625 16.515625 L 275.3125 -11.65625 C 263.332031 -6.15625 250.785156 -1.945312 237.671875 0.96875 C 224.566406 3.882812 211.054688 5.34375 197.140625 5.34375 C 172.210938 5.34375 148.742188 0.8125 126.734375 -8.25 C 104.722656 -17.3125 85.703125 -29.691406 69.671875 -45.390625 C 53.648438 -61.097656 40.945312 -79.710938 31.5625 -101.234375 C 22.175781 -122.765625 17.484375 -145.671875 17.484375 -169.953125 C 17.484375 -194.222656 22.175781 -217.117188 31.5625 -238.640625 C 40.945312 -260.171875 53.648438 -278.785156 69.671875 -294.484375 C 85.703125 -310.191406 104.722656 -322.578125 126.734375 -331.640625 C 148.742188 -340.703125 172.210938 -345.234375 197.140625 -345.234375 C 222.390625 -345.234375 246.019531 -340.703125 268.03125 -331.640625 C 290.039062 -322.578125 309.054688 -310.191406 325.078125 -294.484375 C 341.109375 -278.785156 353.816406 -260.171875 363.203125 -238.640625 C 372.585938 -217.117188 377.28125 -194.222656 377.28125 -169.953125 Z M 256.375 -132.078125 L 282.109375 -100.515625 C 289.234375 -109.578125 294.816406 -120.09375 298.859375 -132.0625 C 302.910156 -144.039062 304.9375 -156.671875 304.9375 -169.953125 C 304.9375 -185.804688 302.179688 -200.453125 296.671875 -213.890625 C 291.171875 -227.328125 283.644531 -238.976562 274.09375 -248.84375 C 264.550781 -258.71875 253.140625 -266.488281 239.859375 -272.15625 C 226.585938 -277.820312 212.347656 -280.65625 197.140625 -280.65625 C 181.921875 -280.65625 167.753906 -277.820312 154.640625 -272.15625 C 141.535156 -266.488281 130.207031 -258.71875 120.65625 -248.84375 C 111.113281 -238.976562 103.585938 -227.328125 98.078125 -213.890625 C 92.578125 -200.453125 89.828125 -185.804688 89.828125 -169.953125 C 89.828125 -154.410156 92.578125 -139.84375 98.078125 -126.25 C 103.585938 -112.65625 111.113281 -100.921875 120.65625 -91.046875 C 130.207031 -81.171875 141.535156 -73.398438 154.640625 -67.734375 C 167.753906 -62.066406 181.921875 -59.234375 197.140625 -59.234375 C 203.285156 -59.234375 209.351562 -59.71875 215.34375 -60.6875 C 221.332031 -61.664062 226.914062 -63.125 232.09375 -65.0625 L 194.703125 -111.671875 Z M 256.375 -132.078125 "/></g></g></g></svg>