<svg xmlns="http://www.w3.org/2000/svg" xmlns:xlink="http://www.w3.org/1999/xlink" width="500" zoomAndPan="magnify" viewBox="0 0 375 374.999991" height="500" preserveAspectRatio="xMidYMid meet" version="1.0"><defs><clipPath id="d98928e7ef"><path d="M 30 10 L 324 10 L 324 356 L 30 356 Z M 30 10 " clip-rule="nonzero"/></clipPath><clipPath id="d73ae381fe"><path d="M -41.117188 120.914062 L 321.738281 9.757812 L 393.792969 244.96875 L 30.9375 356.125 Z M -41.117188 120.914062 " clip-rule="nonzero"/></clipPath><clipPath id="912645b607"><path d="M -41.117188 120.914062 L 321.738281 9.757812 L 393.792969 244.96875 L 30.9375 356.125 Z M -41.117188 120.914062 " clip-rule="nonzero"/></clipPath></defs><g clip-path="url(#d98928e7ef)"><g clip-path="url(#d73ae381fe)"><g clip-path="url(#912645b607)"><path fill="#E0224D" d="M 297.019531 111.550781 L 310.792969 100.628906 C 332.757812 45.753906 318.929688 10.800781 318.929688 10.800781 C 315.484375 30.308594 285.410156 61.453125 241.578125 94.765625 L 231.730469 120.144531 L 228.214844 104.675781 C 204.914062 121.566406 178.464844 138.761719 150.496094 155.074219 C 140.15625 161.101562 130.96875 167.617188 122.769531 174.425781 L 103.34375 200.742188 L 103.691406 192.601562 C 59.445312 241.058594 56.464844 295.199219 56.464844 295.199219 L 141.921875 220.058594 L 69.101562 298.863281 L 33.882812 334.972656 L 30.894531 355.976562 L 85.773438 295.082031 C 132.328125 282.574219 216.8125 219.675781 231.289062 208.722656 L 221.746094 201.640625 L 238.335938 202.394531 C 272.988281 168.714844 293.964844 137.679688 306.394531 110.820312 L 297.019531 111.550781 " fill-opacity="1" fill-rule="nonzero"/></g></g></g></svg>