<svg xmlns="http://www.w3.org/2000/svg" xmlns:xlink="http://www.w3.org/1999/xlink" width="150" zoomAndPan="magnify" viewBox="0 0 112.5 44.999999" height="60" preserveAspectRatio="xMidYMid meet" version="1.0"><defs><g/><clipPath id="a6cbf9a28e"><path d="M 0 0.0976562 L 112.003906 0.0976562 L 112.003906 44.898438 L 0 44.898438 Z M 0 0.0976562 " clip-rule="nonzero"/></clipPath></defs><g clip-path="url(#a6cbf9a28e)"><path fill="#ffffff" d="M 0 0.0976562 L 112.5 0.0976562 L 112.5 52.597656 L 0 52.597656 Z M 0 0.0976562 " fill-opacity="1" fill-rule="nonzero"/><path fill="#ffffff" d="M 0 0.0976562 L 112.5 0.0976562 L 112.5 45.097656 L 0 45.097656 Z M 0 0.0976562 " fill-opacity="1" fill-rule="nonzero"/><path fill="#ffffff" d="M 0 0.0976562 L 112.5 0.0976562 L 112.5 45.097656 L 0 45.097656 Z M 0 0.0976562 " fill-opacity="1" fill-rule="nonzero"/></g><g fill="#000000" fill-opacity="1"><g transform="translate(0.973977, 35.684138)"><g><path d="M 29.3125 -13.203125 C 29.3125 -11.316406 28.953125 -9.550781 28.234375 -7.90625 C 27.523438 -6.257812 26.539062 -4.816406 25.28125 -3.578125 L 27.921875 -0.296875 L 23.125 1.28125 L 21.390625 -0.90625 C 20.460938 -0.476562 19.488281 -0.148438 18.46875 0.078125 C 17.445312 0.304688 16.394531 0.421875 15.3125 0.421875 C 13.382812 0.421875 11.5625 0.0664062 9.84375 -0.640625 C 8.132812 -1.347656 6.65625 -2.3125 5.40625 -3.53125 C 4.164062 -4.75 3.179688 -6.191406 2.453125 -7.859375 C 1.722656 -9.535156 1.359375 -11.316406 1.359375 -13.203125 C 1.359375 -15.085938 1.722656 -16.867188 2.453125 -18.546875 C 3.179688 -20.222656 4.164062 -21.671875 5.40625 -22.890625 C 6.65625 -24.109375 8.132812 -25.066406 9.84375 -25.765625 C 11.5625 -26.472656 13.382812 -26.828125 15.3125 -26.828125 C 17.28125 -26.828125 19.117188 -26.472656 20.828125 -25.765625 C 22.535156 -25.066406 24.007812 -24.109375 25.25 -22.890625 C 26.5 -21.671875 27.488281 -20.222656 28.21875 -18.546875 C 28.945312 -16.867188 29.3125 -15.085938 29.3125 -13.203125 Z M 19.921875 -10.265625 L 21.921875 -7.8125 C 22.472656 -8.519531 22.90625 -9.335938 23.21875 -10.265625 C 23.539062 -11.191406 23.703125 -12.171875 23.703125 -13.203125 C 23.703125 -14.441406 23.488281 -15.582031 23.0625 -16.625 C 22.632812 -17.664062 22.046875 -18.566406 21.296875 -19.328125 C 20.554688 -20.097656 19.671875 -20.703125 18.640625 -21.140625 C 17.609375 -21.585938 16.5 -21.8125 15.3125 -21.8125 C 14.132812 -21.8125 13.035156 -21.585938 12.015625 -21.140625 C 10.992188 -20.703125 10.113281 -20.097656 9.375 -19.328125 C 8.632812 -18.566406 8.050781 -17.664062 7.625 -16.625 C 7.195312 -15.582031 6.984375 -14.441406 6.984375 -13.203125 C 6.984375 -11.992188 7.195312 -10.859375 7.625 -9.796875 C 8.050781 -8.742188 8.632812 -7.832031 9.375 -7.0625 C 10.113281 -6.300781 10.992188 -5.703125 12.015625 -5.265625 C 13.035156 -4.828125 14.132812 -4.609375 15.3125 -4.609375 C 15.789062 -4.609375 16.265625 -4.644531 16.734375 -4.71875 C 17.203125 -4.789062 17.632812 -4.90625 18.03125 -5.0625 L 15.125 -8.671875 Z M 19.921875 -10.265625 "/></g></g></g><g fill="#000000" fill-opacity="1"><g transform="translate(32.2521, 34.34706)"><g><path d="M 3.90625 0.15625 C 2.945312 0.15625 2.238281 -0.101562 1.78125 -0.625 C 1.320312 -1.144531 1.09375 -1.894531 1.09375 -2.875 L 1.09375 -8.546875 L 3.25 -8.546875 L 3.25 -3.15625 C 3.25 -2.632812 3.359375 -2.253906 3.578125 -2.015625 C 3.804688 -1.773438 4.15625 -1.65625 4.625 -1.65625 C 5.21875 -1.65625 5.675781 -1.847656 6 -2.234375 C 6.332031 -2.617188 6.5 -3.234375 6.5 -4.078125 L 6.5 -8.546875 L 8.65625 -8.546875 L 8.65625 0 L 6.59375 0 L 6.59375 -1.25 L 6.421875 -1.296875 C 6.148438 -0.804688 5.816406 -0.441406 5.421875 -0.203125 C 5.023438 0.0351562 4.519531 0.15625 3.90625 0.15625 Z M 3.90625 0.15625 "/></g></g></g><g fill="#000000" fill-opacity="1"><g transform="translate(42.130663, 34.34706)"><g><path d="M 8.4375 -3.78125 L 2.953125 -3.78125 C 3.015625 -3.039062 3.222656 -2.5 3.578125 -2.15625 C 3.941406 -1.820312 4.4375 -1.65625 5.0625 -1.65625 C 5.550781 -1.65625 5.945312 -1.742188 6.25 -1.921875 C 6.5625 -2.109375 6.8125 -2.390625 7 -2.765625 L 7.15625 -2.765625 L 8.578125 -1.84375 C 8.296875 -1.25 7.875 -0.765625 7.3125 -0.390625 C 6.75 -0.0234375 6 0.15625 5.0625 0.15625 C 4.175781 0.15625 3.410156 -0.0078125 2.765625 -0.34375 C 2.128906 -0.675781 1.632812 -1.171875 1.28125 -1.828125 C 0.9375 -2.492188 0.765625 -3.304688 0.765625 -4.265625 C 0.765625 -5.234375 0.945312 -6.050781 1.3125 -6.71875 C 1.675781 -7.382812 2.171875 -7.878906 2.796875 -8.203125 C 3.421875 -8.535156 4.125 -8.703125 4.90625 -8.703125 C 6.113281 -8.703125 7.039062 -8.378906 7.6875 -7.734375 C 8.332031 -7.097656 8.65625 -6.160156 8.65625 -4.921875 C 8.65625 -4.472656 8.640625 -4.125 8.609375 -3.875 Z M 6.59375 -5.171875 C 6.570312 -5.828125 6.421875 -6.300781 6.140625 -6.59375 C 5.859375 -6.894531 5.445312 -7.046875 4.90625 -7.046875 C 3.820312 -7.046875 3.1875 -6.421875 3 -5.171875 Z M 6.59375 -5.171875 "/></g></g></g><g fill="#000000" fill-opacity="1"><g transform="translate(51.413108, 34.34706)"><g><path d="M 4 0.15625 C 3.414062 0.15625 2.878906 0.0859375 2.390625 -0.046875 C 1.910156 -0.179688 1.5 -0.367188 1.15625 -0.609375 C 0.8125 -0.847656 0.554688 -1.125 0.390625 -1.4375 L 1.578125 -2.71875 L 1.75 -2.71875 C 2.03125 -2.332031 2.363281 -2.046875 2.75 -1.859375 C 3.132812 -1.671875 3.554688 -1.578125 4.015625 -1.578125 C 4.429688 -1.578125 4.742188 -1.648438 4.953125 -1.796875 C 5.171875 -1.941406 5.28125 -2.15625 5.28125 -2.4375 C 5.28125 -2.65625 5.203125 -2.835938 5.046875 -2.984375 C 4.890625 -3.128906 4.644531 -3.242188 4.3125 -3.328125 L 3.171875 -3.59375 C 2.328125 -3.800781 1.707031 -4.113281 1.3125 -4.53125 C 0.925781 -4.945312 0.734375 -5.472656 0.734375 -6.109375 C 0.734375 -6.640625 0.867188 -7.097656 1.140625 -7.484375 C 1.410156 -7.878906 1.789062 -8.179688 2.28125 -8.390625 C 2.78125 -8.597656 3.359375 -8.703125 4.015625 -8.703125 C 4.785156 -8.703125 5.421875 -8.585938 5.921875 -8.359375 C 6.429688 -8.140625 6.828125 -7.847656 7.109375 -7.484375 L 5.96875 -6.234375 L 5.8125 -6.234375 C 5.570312 -6.503906 5.300781 -6.703125 5 -6.828125 C 4.707031 -6.953125 4.378906 -7.015625 4.015625 -7.015625 C 3.160156 -7.015625 2.734375 -6.75 2.734375 -6.21875 C 2.734375 -6 2.8125 -5.816406 2.96875 -5.671875 C 3.132812 -5.535156 3.414062 -5.425781 3.8125 -5.34375 L 4.859375 -5.109375 C 5.734375 -4.921875 6.367188 -4.617188 6.765625 -4.203125 C 7.160156 -3.796875 7.359375 -3.25 7.359375 -2.5625 C 7.359375 -2.019531 7.222656 -1.539062 6.953125 -1.125 C 6.691406 -0.71875 6.304688 -0.398438 5.796875 -0.171875 C 5.296875 0.046875 4.695312 0.15625 4 0.15625 Z M 4 0.15625 "/></g></g></g><g fill="#000000" fill-opacity="1"><g transform="translate(59.286541, 34.34706)"><g><path d="M 5.890625 -2.03125 L 6.453125 -0.453125 C 6.222656 -0.253906 5.929688 -0.101562 5.578125 0 C 5.222656 0.101562 4.828125 0.15625 4.390625 0.15625 C 3.460938 0.15625 2.757812 -0.09375 2.28125 -0.59375 C 1.800781 -1.09375 1.5625 -1.820312 1.5625 -2.78125 L 1.5625 -6.84375 L 0.25 -6.84375 L 0.25 -8.546875 L 1.5625 -8.546875 L 1.5625 -10.21875 L 3.703125 -10.5625 L 3.703125 -8.546875 L 6.125 -8.546875 L 6.125 -6.84375 L 3.703125 -6.84375 L 3.703125 -2.9375 C 3.703125 -2.519531 3.789062 -2.210938 3.96875 -2.015625 C 4.144531 -1.828125 4.398438 -1.734375 4.734375 -1.734375 C 5.109375 -1.734375 5.441406 -1.832031 5.734375 -2.03125 Z M 5.890625 -2.03125 "/></g></g></g><g fill="#000000" fill-opacity="1"><g transform="translate(65.921284, 34.34706)"><g><path d="M 2.296875 -9.5625 C 1.910156 -9.5625 1.59375 -9.675781 1.34375 -9.90625 C 1.101562 -10.144531 0.984375 -10.453125 0.984375 -10.828125 C 0.984375 -11.191406 1.101562 -11.488281 1.34375 -11.71875 C 1.59375 -11.957031 1.910156 -12.078125 2.296875 -12.078125 C 2.554688 -12.078125 2.785156 -12.019531 2.984375 -11.90625 C 3.191406 -11.800781 3.347656 -11.65625 3.453125 -11.46875 C 3.566406 -11.28125 3.625 -11.066406 3.625 -10.828125 C 3.625 -10.585938 3.566406 -10.367188 3.453125 -10.171875 C 3.347656 -9.984375 3.191406 -9.832031 2.984375 -9.71875 C 2.785156 -9.613281 2.554688 -9.5625 2.296875 -9.5625 Z M 1.234375 0 L 1.234375 -8.546875 L 3.375 -8.546875 L 3.375 0 Z M 1.234375 0 "/></g></g></g><g fill="#000000" fill-opacity="1"><g transform="translate(70.519925, 34.34706)"><g><path d="M 4.96875 0.15625 C 4.125 0.15625 3.382812 -0.015625 2.75 -0.359375 C 2.125 -0.703125 1.632812 -1.203125 1.28125 -1.859375 C 0.9375 -2.523438 0.765625 -3.328125 0.765625 -4.265625 C 0.765625 -5.203125 0.9375 -6.003906 1.28125 -6.671875 C 1.632812 -7.335938 2.125 -7.84375 2.75 -8.1875 C 3.382812 -8.53125 4.125 -8.703125 4.96875 -8.703125 C 5.800781 -8.703125 6.53125 -8.53125 7.15625 -8.1875 C 7.789062 -7.84375 8.285156 -7.335938 8.640625 -6.671875 C 8.992188 -6.003906 9.171875 -5.203125 9.171875 -4.265625 C 9.171875 -3.328125 8.992188 -2.523438 8.640625 -1.859375 C 8.285156 -1.203125 7.789062 -0.703125 7.15625 -0.359375 C 6.53125 -0.015625 5.800781 0.15625 4.96875 0.15625 Z M 4.96875 -1.65625 C 6.289062 -1.65625 6.953125 -2.523438 6.953125 -4.265625 C 6.953125 -5.171875 6.78125 -5.832031 6.4375 -6.25 C 6.101562 -6.675781 5.613281 -6.890625 4.96875 -6.890625 C 3.632812 -6.890625 2.96875 -6.015625 2.96875 -4.265625 C 2.96875 -2.523438 3.632812 -1.65625 4.96875 -1.65625 Z M 4.96875 -1.65625 "/></g></g></g><g fill="#000000" fill-opacity="1"><g transform="translate(80.444939, 34.34706)"><g><path d="M 1.234375 0 L 1.234375 -8.546875 L 3.296875 -8.546875 L 3.296875 -7.28125 L 3.453125 -7.25 C 3.984375 -8.21875 4.847656 -8.703125 6.046875 -8.703125 C 7.023438 -8.703125 7.742188 -8.429688 8.203125 -7.890625 C 8.671875 -7.359375 8.90625 -6.578125 8.90625 -5.546875 L 8.90625 0 L 6.765625 0 L 6.765625 -5.28125 C 6.765625 -5.851562 6.648438 -6.265625 6.421875 -6.515625 C 6.191406 -6.765625 5.828125 -6.890625 5.328125 -6.890625 C 4.710938 -6.890625 4.234375 -6.691406 3.890625 -6.296875 C 3.546875 -5.898438 3.375 -5.273438 3.375 -4.421875 L 3.375 0 Z M 1.234375 0 "/></g></g></g><g fill="#000000" fill-opacity="1"><g transform="translate(90.447371, 34.34706)"><g><path d="M 5.015625 0.15625 C 4.234375 0.15625 3.535156 0.0625 2.921875 -0.125 C 2.304688 -0.320312 1.796875 -0.578125 1.390625 -0.890625 C 0.984375 -1.203125 0.671875 -1.546875 0.453125 -1.921875 L 1.6875 -3.4375 L 1.875 -3.4375 C 2.21875 -2.925781 2.648438 -2.519531 3.171875 -2.21875 C 3.703125 -1.914062 4.316406 -1.765625 5.015625 -1.765625 C 5.617188 -1.765625 6.070312 -1.890625 6.375 -2.140625 C 6.675781 -2.398438 6.828125 -2.753906 6.828125 -3.203125 C 6.828125 -3.460938 6.773438 -3.679688 6.671875 -3.859375 C 6.578125 -4.046875 6.414062 -4.203125 6.1875 -4.328125 C 5.96875 -4.460938 5.664062 -4.578125 5.28125 -4.671875 L 3.8125 -5 C 2.800781 -5.226562 2.046875 -5.613281 1.546875 -6.15625 C 1.046875 -6.695312 0.796875 -7.398438 0.796875 -8.265625 C 0.796875 -8.898438 0.957031 -9.457031 1.28125 -9.9375 C 1.601562 -10.425781 2.066406 -10.804688 2.671875 -11.078125 C 3.285156 -11.347656 4.019531 -11.484375 4.875 -11.484375 C 5.738281 -11.484375 6.484375 -11.367188 7.109375 -11.140625 C 7.734375 -10.910156 8.257812 -10.554688 8.6875 -10.078125 L 7.578125 -8.5625 L 7.390625 -8.5625 C 7.066406 -8.894531 6.695312 -9.144531 6.28125 -9.3125 C 5.875 -9.488281 5.40625 -9.578125 4.875 -9.578125 C 4.257812 -9.578125 3.789062 -9.46875 3.46875 -9.25 C 3.144531 -9.03125 2.984375 -8.726562 2.984375 -8.34375 C 2.984375 -7.988281 3.09375 -7.703125 3.3125 -7.484375 C 3.539062 -7.273438 3.929688 -7.113281 4.484375 -7 L 5.984375 -6.6875 C 7.078125 -6.457031 7.867188 -6.0625 8.359375 -5.5 C 8.859375 -4.945312 9.109375 -4.226562 9.109375 -3.34375 C 9.109375 -2.632812 8.957031 -2.015625 8.65625 -1.484375 C 8.351562 -0.960938 7.894531 -0.554688 7.28125 -0.265625 C 6.664062 0.015625 5.910156 0.15625 5.015625 0.15625 Z M 5.015625 0.15625 "/></g></g></g><g fill="#000000" fill-opacity="1"><g transform="translate(100.171097, 34.34706)"><g><path d="M 3.703125 0 L 1.46875 0 L 1.46875 -11.328125 L 3.703125 -11.328125 Z M 3.703125 0 "/></g></g></g></svg>