<svg xmlns="http://www.w3.org/2000/svg" xmlns:xlink="http://www.w3.org/1999/xlink" width="855" zoomAndPan="magnify" viewBox="0 0 641.25 746.25" height="995" preserveAspectRatio="xMidYMid meet" version="1.0"><defs><clipPath id="bd49e97ffa"><path d="M 0 0.0625 L 640.5 0.0625 L 640.5 745.441406 L 0 745.441406 Z M 0 0.0625 " clip-rule="nonzero"/></clipPath><clipPath id="8d11c24234"><path d="M 16.613281 19.425781 L 623.890625 19.425781 L 623.890625 726.074219 L 16.613281 726.074219 Z M 16.613281 19.425781 " clip-rule="nonzero"/></clipPath><clipPath id="2dbc640552"><path d="M 320.25 19.425781 L 623.890625 196.089844 L 623.890625 549.414062 L 320.25 726.074219 L 16.613281 549.414062 L 16.613281 196.089844 L 320.25 19.425781 " clip-rule="nonzero"/></clipPath><clipPath id="f59d0cc71b"><path d="M 16.613281 19.429688 L 624.417969 19.429688 L 624.417969 726.351562 L 16.613281 726.351562 Z M 16.613281 19.429688 " clip-rule="nonzero"/></clipPath><clipPath id="ecba5f7f4e"><path d="M 320.515625 19.429688 L 624.417969 196.160156 L 624.417969 549.621094 L 320.515625 726.351562 L 16.613281 549.621094 L 16.613281 196.160156 L 320.515625 19.429688 " clip-rule="nonzero"/></clipPath><clipPath id="ed1bd9dd98"><path d="M 144.320312 196.820312 L 496.152344 196.820312 L 496.152344 548.652344 L 144.320312 548.652344 Z M 144.320312 196.820312 " clip-rule="nonzero"/></clipPath></defs><g clip-path="url(#bd49e97ffa)"><path fill="#ffffff" d="M 0 0.0625 L 641.25 0.0625 L 641.25 3759.914062 L 0 3759.914062 Z M 0 0.0625 " fill-opacity="1" fill-rule="nonzero"/><path fill="#ffffff" d="M 0 0.0625 L 640.5 0.0625 L 640.5 745.441406 L 0 745.441406 Z M 0 0.0625 " fill-opacity="1" fill-rule="nonzero"/><path fill="#ffffff" d="M 0 0.0625 L 640.5 0.0625 L 640.5 745.441406 L 0 745.441406 Z M 0 0.0625 " fill-opacity="1" fill-rule="nonzero"/></g><g clip-path="url(#8d11c24234)"><g clip-path="url(#2dbc640552)"><path fill="#ffffff" d="M 16.613281 19.425781 L 623.890625 19.425781 L 623.890625 726.074219 L 16.613281 726.074219 Z M 16.613281 19.425781 " fill-opacity="1" fill-rule="nonzero"/></g></g><g clip-path="url(#f59d0cc71b)"><g clip-path="url(#ecba5f7f4e)"><path stroke-linecap="butt" transform="matrix(1.090235, 0, 0, 1.089704, 16.612045, 19.429653)" fill="none" stroke-linejoin="miter" d="M 278.750536 0.0000314396 L 557.499938 162.182103 L 557.499938 486.546246 L 278.750536 648.728318 L 0.00113381 486.546246 L 0.00113381 162.182103 L 278.750536 0.0000314396 " stroke="#f7df1e" stroke-width="31.635933" stroke-opacity="1" stroke-miterlimit="4"/></g></g><g clip-path="url(#ed1bd9dd98)"><path fill="#f7df1e" d="M 144.320312 196.820312 L 496.152344 196.820312 L 496.152344 548.652344 L 144.320312 548.652344 Z M 144.320312 196.820312 " fill-opacity="1" fill-rule="nonzero"/></g><path fill="#000000" d="M 236.832031 490.832031 L 263.753906 474.546875 C 268.949219 483.753906 273.671875 491.546875 285.011719 491.546875 C 295.867188 491.546875 302.726562 487.285156 302.726562 470.765625 L 302.726562 358.347656 L 335.78125 358.347656 L 335.78125 471.234375 C 335.78125 505.46875 315.714844 521.066406 286.425781 521.066406 C 259.976562 521.066406 244.621094 507.367188 236.828125 490.832031 " fill-opacity="1" fill-rule="nonzero"/><path fill="#000000" d="M 353.742188 487.285156 L 380.664062 471.703125 C 387.757812 483.273438 396.964844 491.78125 413.25 491.78125 C 426.953125 491.78125 435.695312 484.9375 435.695312 475.480469 C 435.695312 464.144531 426.71875 460.128906 411.601562 453.519531 L 403.34375 449.972656 C 379.484375 439.816406 363.664062 427.078125 363.664062 400.140625 C 363.664062 375.347656 382.546875 356.449219 412.082031 356.449219 C 433.097656 356.449219 448.214844 363.773438 459.070312 382.90625 L 433.332031 399.4375 C 427.667969 389.28125 421.523438 385.269531 412.082031 385.269531 C 402.394531 385.269531 396.25 391.414062 396.25 399.4375 C 396.25 409.363281 402.394531 413.375 416.5625 419.519531 L 424.824219 423.050781 C 452.929688 435.101562 468.761719 447.375 468.761719 475.015625 C 468.761719 504.769531 445.382812 521.066406 413.964844 521.066406 C 383.261719 521.066406 363.429688 506.417969 353.742188 487.285156 " fill-opacity="1" fill-rule="nonzero"/></svg>