<svg xmlns="http://www.w3.org/2000/svg" xmlns:xlink="http://www.w3.org/1999/xlink" width="855" zoomAndPan="magnify" viewBox="0 0 641.25 746.25" height="995" preserveAspectRatio="xMidYMid meet" version="1.0"><defs><clipPath id="654f4917d7"><path d="M 0 0.0625 L 640.5 0.0625 L 640.5 745.441406 L 0 745.441406 Z M 0 0.0625 " clip-rule="nonzero"/></clipPath><clipPath id="8de69e0e7b"><path d="M 16.613281 24 L 623.890625 24 L 623.890625 722 L 16.613281 722 Z M 16.613281 24 " clip-rule="nonzero"/></clipPath><clipPath id="dbc1ead678"><path d="M 336.4375 28.84375 L 607.703125 186.667969 C 617.722656 192.5 623.890625 203.222656 623.890625 214.816406 L 623.890625 530.683594 C 623.890625 542.28125 617.722656 553 607.703125 558.832031 L 336.4375 716.65625 C 326.429688 722.480469 314.070312 722.480469 304.0625 716.65625 L 32.800781 558.832031 C 22.777344 553 16.613281 542.28125 16.613281 530.683594 L 16.613281 214.816406 C 16.613281 203.222656 22.777344 192.5 32.800781 186.667969 L 304.0625 28.84375 C 314.070312 23.023438 326.429688 23.023438 336.4375 28.84375 " clip-rule="nonzero"/></clipPath><clipPath id="cc09485b53"><path d="M 16.613281 24 L 624.152344 24 L 624.152344 721 L 16.613281 721 Z M 16.613281 24 " clip-rule="nonzero"/></clipPath><clipPath id="8c5dff2ace"><path d="M 336.578125 28.84375 L 607.957031 186.617188 C 617.984375 192.445312 624.152344 203.164062 624.152344 214.753906 L 624.152344 530.519531 C 624.152344 542.113281 617.984375 552.828125 607.957031 558.65625 L 336.578125 716.433594 C 326.566406 722.253906 314.199219 722.253906 304.1875 716.433594 L 32.808594 558.65625 C 22.78125 552.828125 16.613281 542.113281 16.613281 530.519531 L 16.613281 214.753906 C 16.613281 203.164062 22.78125 192.445312 32.808594 186.617188 L 304.1875 28.84375 C 314.199219 23.023438 326.566406 23.023438 336.578125 28.84375 " clip-rule="nonzero"/></clipPath><clipPath id="2578c8c2ba"><path d="M 273 329 L 367 329 L 367 423 L 273 423 Z M 273 329 " clip-rule="nonzero"/></clipPath><clipPath id="ea840a70ee"><path d="M 366.785156 375.675781 C 366.785156 377.203125 366.710938 378.730469 366.5625 380.25 C 366.410156 381.769531 366.1875 383.28125 365.890625 384.777344 C 365.589844 386.277344 365.21875 387.757812 364.777344 389.222656 C 364.332031 390.683594 363.816406 392.121094 363.234375 393.53125 C 362.648438 394.945312 361.996094 396.324219 361.273438 397.671875 C 360.554688 399.019531 359.769531 400.328125 358.917969 401.601562 C 358.070312 402.871094 357.160156 404.097656 356.191406 405.277344 C 355.222656 406.460938 354.195312 407.589844 353.113281 408.671875 C 352.035156 409.75 350.902344 410.777344 349.722656 411.746094 C 348.539062 412.714844 347.3125 413.625 346.042969 414.472656 C 344.769531 415.324219 343.460938 416.109375 342.113281 416.828125 C 340.765625 417.546875 339.382812 418.199219 337.972656 418.785156 C 336.558594 419.371094 335.121094 419.886719 333.660156 420.328125 C 332.195312 420.773438 330.714844 421.144531 329.214844 421.441406 C 327.71875 421.738281 326.207031 421.964844 324.683594 422.113281 C 323.164062 422.261719 321.640625 422.335938 320.109375 422.335938 C 318.582031 422.335938 317.054688 422.261719 315.535156 422.113281 C 314.015625 421.964844 312.503906 421.738281 311.003906 421.441406 C 309.503906 421.144531 308.023438 420.773438 306.5625 420.328125 C 305.097656 419.886719 303.660156 419.371094 302.246094 418.785156 C 300.835938 418.199219 299.457031 417.546875 298.105469 416.828125 C 296.757812 416.109375 295.449219 415.324219 294.179688 414.472656 C 292.90625 413.625 291.679688 412.714844 290.5 411.746094 C 289.316406 410.777344 288.1875 409.75 287.105469 408.671875 C 286.023438 407.589844 285 406.460938 284.027344 405.277344 C 283.058594 404.097656 282.148438 402.871094 281.300781 401.601562 C 280.449219 400.328125 279.664062 399.019531 278.945312 397.671875 C 278.226562 396.324219 277.570312 394.945312 276.988281 393.53125 C 276.402344 392.121094 275.886719 390.683594 275.445312 389.222656 C 275 387.757812 274.628906 386.277344 274.332031 384.777344 C 274.03125 383.28125 273.808594 381.769531 273.660156 380.25 C 273.507812 378.730469 273.433594 377.203125 273.433594 375.675781 C 273.433594 374.148438 273.507812 372.621094 273.660156 371.101562 C 273.808594 369.582031 274.03125 368.070312 274.332031 366.574219 C 274.628906 365.074219 275 363.59375 275.445312 362.128906 C 275.886719 360.667969 276.402344 359.230469 276.988281 357.820312 C 277.570312 356.40625 278.226562 355.027344 278.945312 353.679688 C 279.664062 352.332031 280.449219 351.023438 281.300781 349.75 C 282.148438 348.480469 283.058594 347.253906 284.027344 346.074219 C 285 344.890625 286.023438 343.761719 287.105469 342.679688 C 288.1875 341.601562 289.316406 340.574219 290.5 339.605469 C 291.679688 338.636719 292.90625 337.726562 294.179688 336.878906 C 295.449219 336.027344 296.757812 335.242188 298.105469 334.523438 C 299.457031 333.804688 300.835938 333.152344 302.246094 332.566406 C 303.660156 331.980469 305.097656 331.46875 306.5625 331.023438 C 308.023438 330.578125 309.503906 330.207031 311.003906 329.910156 C 312.503906 329.613281 314.015625 329.386719 315.535156 329.238281 C 317.054688 329.089844 318.582031 329.015625 320.109375 329.015625 C 321.640625 329.015625 323.164062 329.089844 324.683594 329.238281 C 326.207031 329.386719 327.71875 329.613281 329.214844 329.910156 C 330.714844 330.207031 332.195312 330.578125 333.660156 331.023438 C 335.121094 331.46875 336.558594 331.980469 337.972656 332.566406 C 339.382812 333.152344 340.765625 333.804688 342.113281 334.523438 C 343.460938 335.242188 344.769531 336.027344 346.042969 336.878906 C 347.3125 337.726562 348.539062 338.636719 349.722656 339.605469 C 350.902344 340.574219 352.035156 341.601562 353.113281 342.679688 C 354.195312 343.761719 355.222656 344.890625 356.191406 346.074219 C 357.160156 347.253906 358.070312 348.480469 358.917969 349.75 C 359.769531 351.023438 360.554688 352.332031 361.273438 353.679688 C 361.996094 355.027344 362.648438 356.40625 363.234375 357.820312 C 363.816406 359.230469 364.332031 360.667969 364.777344 362.128906 C 365.21875 363.59375 365.589844 365.074219 365.890625 366.574219 C 366.1875 368.070312 366.410156 369.582031 366.5625 371.101562 C 366.710938 372.621094 366.785156 374.148438 366.785156 375.675781 Z M 366.785156 375.675781 " clip-rule="nonzero"/></clipPath><linearGradient x1="32" gradientTransform="matrix(7.779363, 0, 0, 7.776976, 71.170506, 126.812585)" y1="26.000002" x2="32" gradientUnits="userSpaceOnUse" y2="38.000002" id="19029a0d7b"><stop stop-opacity="1" stop-color="rgb(45.947266%, 77.253723%, 100%)" offset="0"/><stop stop-opacity="1" stop-color="rgb(46.141052%, 77.209473%, 100%)" offset="0.0078125"/><stop stop-opacity="1" stop-color="rgb(46.5271%, 77.120972%, 100%)" offset="0.015625"/><stop stop-opacity="1" stop-color="rgb(46.914673%, 77.032471%, 100%)" offset="0.0234375"/><stop stop-opacity="1" stop-color="rgb(47.30072%, 76.942444%, 100%)" offset="0.03125"/><stop stop-opacity="1" stop-color="rgb(47.688293%, 76.853943%, 100%)" offset="0.0390625"/><stop stop-opacity="1" stop-color="rgb(48.075867%, 76.765442%, 100%)" offset="0.046875"/><stop stop-opacity="1" stop-color="rgb(48.461914%, 76.676941%, 100%)" offset="0.0546875"/><stop stop-opacity="1" stop-color="rgb(48.849487%, 76.58844%, 100%)" offset="0.0625"/><stop stop-opacity="1" stop-color="rgb(49.235535%, 76.498413%, 100%)" offset="0.0703125"/><stop stop-opacity="1" stop-color="rgb(49.623108%, 76.409912%, 100%)" offset="0.078125"/><stop stop-opacity="1" stop-color="rgb(50.009155%, 76.321411%, 100%)" offset="0.0859375"/><stop stop-opacity="1" stop-color="rgb(50.396729%, 76.23291%, 100%)" offset="0.09375"/><stop stop-opacity="1" stop-color="rgb(50.784302%, 76.144409%, 100%)" offset="0.101562"/><stop stop-opacity="1" stop-color="rgb(51.170349%, 76.054382%, 100%)" offset="0.109375"/><stop stop-opacity="1" stop-color="rgb(51.557922%, 75.965881%, 100%)" offset="0.117188"/><stop stop-opacity="1" stop-color="rgb(51.94397%, 75.87738%, 100%)" offset="0.125"/><stop stop-opacity="1" stop-color="rgb(52.331543%, 75.788879%, 100%)" offset="0.132812"/><stop stop-opacity="1" stop-color="rgb(52.71759%, 75.700378%, 100%)" offset="0.140625"/><stop stop-opacity="1" stop-color="rgb(53.105164%, 75.611877%, 100%)" offset="0.148438"/><stop stop-opacity="1" stop-color="rgb(53.492737%, 75.521851%, 100%)" offset="0.15625"/><stop stop-opacity="1" stop-color="rgb(53.878784%, 75.43335%, 100%)" offset="0.164063"/><stop stop-opacity="1" stop-color="rgb(54.266357%, 75.344849%, 100%)" offset="0.171875"/><stop stop-opacity="1" stop-color="rgb(54.652405%, 75.256348%, 100%)" offset="0.179687"/><stop stop-opacity="1" stop-color="rgb(55.039978%, 75.167847%, 100%)" offset="0.1875"/><stop stop-opacity="1" stop-color="rgb(55.426025%, 75.07782%, 100%)" offset="0.195312"/><stop stop-opacity="1" stop-color="rgb(55.813599%, 74.989319%, 100%)" offset="0.203125"/><stop stop-opacity="1" stop-color="rgb(56.201172%, 74.900818%, 100%)" offset="0.210938"/><stop stop-opacity="1" stop-color="rgb(56.587219%, 74.812317%, 100%)" offset="0.21875"/><stop stop-opacity="1" stop-color="rgb(56.974792%, 74.723816%, 100%)" offset="0.226562"/><stop stop-opacity="1" stop-color="rgb(57.36084%, 74.633789%, 100%)" offset="0.234375"/><stop stop-opacity="1" stop-color="rgb(57.748413%, 74.545288%, 100%)" offset="0.242188"/><stop stop-opacity="1" stop-color="rgb(58.13446%, 74.456787%, 100%)" offset="0.25"/><stop stop-opacity="1" stop-color="rgb(58.522034%, 74.368286%, 100%)" offset="0.257812"/><stop stop-opacity="1" stop-color="rgb(58.909607%, 74.279785%, 100%)" offset="0.265625"/><stop stop-opacity="1" stop-color="rgb(59.295654%, 74.189758%, 100%)" offset="0.273438"/><stop stop-opacity="1" stop-color="rgb(59.683228%, 74.101257%, 100%)" offset="0.28125"/><stop stop-opacity="1" stop-color="rgb(60.069275%, 74.012756%, 100%)" offset="0.289062"/><stop stop-opacity="1" stop-color="rgb(60.456848%, 73.924255%, 100%)" offset="0.296875"/><stop stop-opacity="1" stop-color="rgb(60.844421%, 73.835754%, 100%)" offset="0.304688"/><stop stop-opacity="1" stop-color="rgb(61.230469%, 73.747253%, 100%)" offset="0.3125"/><stop stop-opacity="1" stop-color="rgb(61.618042%, 73.657227%, 100%)" offset="0.320313"/><stop stop-opacity="1" stop-color="rgb(62.004089%, 73.568726%, 100%)" offset="0.328125"/><stop stop-opacity="1" stop-color="rgb(62.391663%, 73.480225%, 100%)" offset="0.335938"/><stop stop-opacity="1" stop-color="rgb(62.77771%, 73.391724%, 100%)" offset="0.34375"/><stop stop-opacity="1" stop-color="rgb(63.165283%, 73.303223%, 100%)" offset="0.351562"/><stop stop-opacity="1" stop-color="rgb(63.552856%, 73.213196%, 100%)" offset="0.359375"/><stop stop-opacity="1" stop-color="rgb(63.938904%, 73.124695%, 100%)" offset="0.367188"/><stop stop-opacity="1" stop-color="rgb(64.326477%, 73.036194%, 100%)" offset="0.375"/><stop stop-opacity="1" stop-color="rgb(64.712524%, 72.947693%, 100%)" offset="0.382812"/><stop stop-opacity="1" stop-color="rgb(65.100098%, 72.859192%, 100%)" offset="0.390625"/><stop stop-opacity="1" stop-color="rgb(65.486145%, 72.769165%, 100%)" offset="0.398438"/><stop stop-opacity="1" stop-color="rgb(65.873718%, 72.680664%, 100%)" offset="0.40625"/><stop stop-opacity="1" stop-color="rgb(66.261292%, 72.592163%, 100%)" offset="0.414062"/><stop stop-opacity="1" stop-color="rgb(66.647339%, 72.503662%, 100%)" offset="0.421875"/><stop stop-opacity="1" stop-color="rgb(67.034912%, 72.415161%, 100%)" offset="0.429688"/><stop stop-opacity="1" stop-color="rgb(67.420959%, 72.32666%, 100%)" offset="0.4375"/><stop stop-opacity="1" stop-color="rgb(67.808533%, 72.236633%, 100%)" offset="0.445313"/><stop stop-opacity="1" stop-color="rgb(68.19458%, 72.148132%, 100%)" offset="0.453125"/><stop stop-opacity="1" stop-color="rgb(68.582153%, 72.059631%, 100%)" offset="0.460938"/><stop stop-opacity="1" stop-color="rgb(68.969727%, 71.97113%, 100%)" offset="0.46875"/><stop stop-opacity="1" stop-color="rgb(69.355774%, 71.882629%, 100%)" offset="0.476563"/><stop stop-opacity="1" stop-color="rgb(69.743347%, 71.792603%, 100%)" offset="0.484375"/><stop stop-opacity="1" stop-color="rgb(70.129395%, 71.704102%, 100%)" offset="0.492188"/><stop stop-opacity="1" stop-color="rgb(70.516968%, 71.615601%, 100%)" offset="0.5"/><stop stop-opacity="1" stop-color="rgb(70.903015%, 71.5271%, 100%)" offset="0.507813"/><stop stop-opacity="1" stop-color="rgb(71.290588%, 71.438599%, 100%)" offset="0.515625"/><stop stop-opacity="1" stop-color="rgb(71.678162%, 71.348572%, 100%)" offset="0.523438"/><stop stop-opacity="1" stop-color="rgb(72.064209%, 71.260071%, 100%)" offset="0.53125"/><stop stop-opacity="1" stop-color="rgb(72.451782%, 71.17157%, 100%)" offset="0.539063"/><stop stop-opacity="1" stop-color="rgb(72.83783%, 71.083069%, 100%)" offset="0.546875"/><stop stop-opacity="1" stop-color="rgb(73.225403%, 70.994568%, 100%)" offset="0.554688"/><stop stop-opacity="1" stop-color="rgb(73.61145%, 70.906067%, 100%)" offset="0.5625"/><stop stop-opacity="1" stop-color="rgb(73.999023%, 70.81604%, 100%)" offset="0.570313"/><stop stop-opacity="1" stop-color="rgb(74.386597%, 70.727539%, 100%)" offset="0.578125"/><stop stop-opacity="1" stop-color="rgb(74.772644%, 70.639038%, 100%)" offset="0.585938"/><stop stop-opacity="1" stop-color="rgb(75.160217%, 70.550537%, 100%)" offset="0.59375"/><stop stop-opacity="1" stop-color="rgb(75.546265%, 70.462036%, 100%)" offset="0.601563"/><stop stop-opacity="1" stop-color="rgb(75.933838%, 70.372009%, 100%)" offset="0.609375"/><stop stop-opacity="1" stop-color="rgb(76.321411%, 70.283508%, 100%)" offset="0.617188"/><stop stop-opacity="1" stop-color="rgb(76.707458%, 70.195007%, 100%)" offset="0.625"/><stop stop-opacity="1" stop-color="rgb(77.095032%, 70.106506%, 100%)" offset="0.632813"/><stop stop-opacity="1" stop-color="rgb(77.481079%, 70.018005%, 100%)" offset="0.640625"/><stop stop-opacity="1" stop-color="rgb(77.868652%, 69.927979%, 100%)" offset="0.648438"/><stop stop-opacity="1" stop-color="rgb(78.2547%, 69.839478%, 100%)" offset="0.65625"/><stop stop-opacity="1" stop-color="rgb(78.642273%, 69.750977%, 100%)" offset="0.664063"/><stop stop-opacity="1" stop-color="rgb(79.029846%, 69.662476%, 100%)" offset="0.671875"/><stop stop-opacity="1" stop-color="rgb(79.415894%, 69.573975%, 100%)" offset="0.679688"/><stop stop-opacity="1" stop-color="rgb(79.803467%, 69.483948%, 100%)" offset="0.6875"/><stop stop-opacity="1" stop-color="rgb(80.189514%, 69.395447%, 100%)" offset="0.695313"/><stop stop-opacity="1" stop-color="rgb(80.577087%, 69.306946%, 100%)" offset="0.703125"/><stop stop-opacity="1" stop-color="rgb(80.963135%, 69.218445%, 100%)" offset="0.710938"/><stop stop-opacity="1" stop-color="rgb(81.350708%, 69.129944%, 100%)" offset="0.71875"/><stop stop-opacity="1" stop-color="rgb(81.738281%, 69.041443%, 100%)" offset="0.726562"/><stop stop-opacity="1" stop-color="rgb(82.124329%, 68.951416%, 100%)" offset="0.734375"/><stop stop-opacity="1" stop-color="rgb(82.511902%, 68.862915%, 100%)" offset="0.742188"/><stop stop-opacity="1" stop-color="rgb(82.897949%, 68.774414%, 100%)" offset="0.75"/><stop stop-opacity="1" stop-color="rgb(83.285522%, 68.685913%, 100%)" offset="0.757812"/><stop stop-opacity="1" stop-color="rgb(83.67157%, 68.597412%, 100%)" offset="0.765625"/><stop stop-opacity="1" stop-color="rgb(84.059143%, 68.507385%, 100%)" offset="0.773438"/><stop stop-opacity="1" stop-color="rgb(84.446716%, 68.418884%, 100%)" offset="0.78125"/><stop stop-opacity="1" stop-color="rgb(84.832764%, 68.330383%, 100%)" offset="0.789062"/><stop stop-opacity="1" stop-color="rgb(85.220337%, 68.241882%, 100%)" offset="0.796875"/><stop stop-opacity="1" stop-color="rgb(85.606384%, 68.153381%, 100%)" offset="0.804688"/><stop stop-opacity="1" stop-color="rgb(85.993958%, 68.063354%, 100%)" offset="0.8125"/><stop stop-opacity="1" stop-color="rgb(86.380005%, 67.974854%, 100%)" offset="0.820313"/><stop stop-opacity="1" stop-color="rgb(86.767578%, 67.886353%, 100%)" offset="0.828125"/><stop stop-opacity="1" stop-color="rgb(87.155151%, 67.797852%, 100%)" offset="0.835938"/><stop stop-opacity="1" stop-color="rgb(87.541199%, 67.709351%, 100%)" offset="0.84375"/><stop stop-opacity="1" stop-color="rgb(87.928772%, 67.62085%, 100%)" offset="0.851563"/><stop stop-opacity="1" stop-color="rgb(88.314819%, 67.530823%, 100%)" offset="0.859375"/><stop stop-opacity="1" stop-color="rgb(88.702393%, 67.442322%, 100%)" offset="0.867188"/><stop stop-opacity="1" stop-color="rgb(89.089966%, 67.353821%, 100%)" offset="0.875"/><stop stop-opacity="1" stop-color="rgb(89.476013%, 67.26532%, 100%)" offset="0.882812"/><stop stop-opacity="1" stop-color="rgb(89.863586%, 67.176819%, 100%)" offset="0.890625"/><stop stop-opacity="1" stop-color="rgb(90.127563%, 67.115784%, 100%)" offset="0.90625"/><stop stop-opacity="1" stop-color="rgb(90.19928%, 67.098999%, 100%)" offset="0.9375"/><stop stop-opacity="1" stop-color="rgb(90.19928%, 67.098999%, 100%)" offset="1"/></linearGradient><clipPath id="68d0a7362b"><path d="M 117.847656 193 L 522.375 193 L 522.375 559 L 117.847656 559 Z M 117.847656 193 " clip-rule="nonzero"/></clipPath><clipPath id="e55c7c95a4"><path d="M 522.375 375.675781 C 522.375 346.449219 489.367188 321.105469 437.945312 305.746094 C 439.664062 297.726562 441.109375 289.839844 442.019531 282.296875 C 447.132812 239.65625 438.261719 209.792969 417.039062 198.207031 C 395.8125 186.625 365.898438 195.3125 332.78125 222.671875 C 328.550781 226.164062 324.328125 229.964844 320.109375 233.949219 C 315.894531 229.957031 311.667969 226.164062 307.4375 222.671875 C 274.320312 195.3125 244.394531 186.632812 223.179688 198.207031 C 201.957031 209.785156 193.089844 239.648438 198.199219 282.296875 C 199.101562 289.847656 200.558594 297.726562 202.277344 305.746094 C 150.855469 321.105469 117.847656 346.449219 117.847656 375.675781 C 117.847656 404.902344 150.855469 430.246094 202.277344 445.605469 C 200.558594 453.625 199.109375 461.511719 198.199219 469.054688 C 193.089844 511.695312 201.957031 541.558594 223.179688 553.144531 C 229.316406 556.5 236.171875 558.148438 243.625 558.148438 C 261.960938 558.148438 283.898438 548.136719 307.4375 528.6875 C 311.667969 525.195312 315.894531 521.394531 320.109375 517.410156 C 324.328125 521.402344 328.550781 525.195312 332.78125 528.6875 C 356.324219 548.136719 378.261719 558.148438 396.597656 558.148438 C 404.050781 558.148438 410.910156 556.492188 417.039062 553.144531 C 438.261719 541.566406 447.132812 511.703125 442.019531 469.054688 C 441.117188 461.503906 439.664062 453.625 437.945312 445.605469 C 489.367188 430.246094 522.375 404.902344 522.375 375.675781 Z M 342.6875 234.648438 C 370.148438 211.960938 394.535156 203.640625 409.582031 211.855469 C 424.625 220.058594 430.808594 245.0625 426.570312 280.429688 C 425.753906 287.265625 424.445312 294.398438 422.921875 301.65625 C 406.453125 297.617188 388.460938 294.539062 369.308594 292.585938 C 357.140625 274.894531 344.296875 258.75 331.125 244.898438 C 334.96875 241.273438 338.828125 237.835938 342.6875 234.648438 Z M 381.558594 409.21875 C 374.921875 421.367188 367.867188 432.976562 360.539062 444.011719 C 347.695312 445.085938 334.199219 445.667969 320.109375 445.667969 C 306.023438 445.667969 292.523438 445.085938 279.671875 444.011719 C 272.351562 432.96875 265.289062 421.367188 258.652344 409.21875 C 252.554688 398.058594 246.992188 386.835938 241.988281 375.675781 C 246.992188 364.523438 252.554688 353.300781 258.652344 342.132812 C 265.289062 329.984375 272.34375 318.375 279.671875 307.339844 C 292.523438 306.265625 306.023438 305.683594 320.109375 305.683594 C 334.199219 305.683594 347.695312 306.265625 360.546875 307.339844 C 367.867188 318.382812 374.929688 329.984375 381.566406 342.132812 C 387.667969 353.292969 393.226562 364.515625 398.230469 375.675781 C 393.226562 386.828125 387.660156 398.050781 381.558594 409.21875 Z M 406.289062 395.015625 C 411.578125 408.542969 415.921875 421.800781 419.328125 434.648438 C 407.316406 437.574219 394.355469 440.046875 380.359375 441.875 C 385.472656 433.707031 390.472656 425.355469 395.210938 416.667969 C 399.15625 409.472656 402.796875 402.242188 406.289062 395.015625 Z M 320.109375 495.464844 C 310.214844 485.035156 300.492188 473.199219 291.101562 460.367188 C 300.5625 460.917969 310.230469 461.222656 320.109375 461.222656 C 329.988281 461.222656 339.660156 460.917969 349.121094 460.367188 C 339.730469 473.199219 330.003906 485.035156 320.109375 495.464844 Z M 259.851562 441.875 C 245.855469 440.046875 232.894531 437.574219 220.882812 434.648438 C 224.292969 421.800781 228.632812 408.535156 233.921875 395.015625 C 237.421875 402.25 241.0625 409.472656 244.992188 416.675781 C 249.738281 425.355469 254.738281 433.707031 259.851562 441.875 Z M 233.929688 356.335938 C 228.640625 342.808594 224.300781 329.542969 220.890625 316.703125 C 232.902344 313.777344 245.863281 311.304688 259.859375 309.476562 C 254.746094 317.644531 249.746094 325.996094 245.007812 334.683594 C 241.0625 341.878906 237.421875 349.109375 233.929688 356.335938 Z M 320.109375 255.886719 C 330.003906 266.316406 339.730469 278.152344 349.121094 290.984375 C 339.660156 290.433594 329.988281 290.128906 320.109375 290.128906 C 310.230469 290.128906 300.5625 290.433594 291.101562 290.984375 C 300.492188 278.152344 310.214844 266.316406 320.109375 255.886719 Z M 395.21875 334.683594 C 390.480469 326.003906 385.480469 317.652344 380.367188 309.476562 C 394.363281 311.304688 407.324219 313.777344 419.335938 316.703125 C 415.929688 329.550781 411.585938 342.816406 406.296875 356.335938 C 402.796875 349.109375 399.15625 341.878906 395.21875 334.683594 Z M 213.648438 280.4375 C 209.402344 245.0625 215.59375 220.058594 230.640625 211.863281 C 234.4375 209.785156 238.832031 208.773438 243.714844 208.773438 C 258.1875 208.773438 276.996094 217.695312 297.535156 234.65625 C 301.394531 237.84375 305.257812 241.28125 309.109375 244.914062 C 295.941406 258.765625 283.089844 274.902344 270.929688 292.601562 C 251.769531 294.554688 233.773438 297.640625 217.3125 301.671875 C 215.773438 294.40625 214.472656 287.273438 213.648438 280.4375 Z M 133.40625 375.675781 C 133.40625 355.457031 160.398438 334.433594 205.886719 320.769531 C 210.601562 338.492188 217.066406 356.964844 225.109375 375.675781 C 217.066406 394.394531 210.601562 412.867188 205.886719 430.582031 C 160.398438 416.917969 133.40625 395.894531 133.40625 375.675781 Z M 297.535156 516.703125 C 270.074219 539.390625 245.707031 547.726562 230.640625 539.496094 C 215.59375 531.292969 209.410156 506.289062 213.648438 470.921875 C 214.464844 464.085938 215.773438 456.953125 217.296875 449.695312 C 233.765625 453.734375 251.761719 456.8125 270.914062 458.765625 C 283.082031 476.457031 295.925781 492.601562 309.09375 506.453125 C 305.25 510.078125 301.394531 513.515625 297.535156 516.703125 Z M 426.570312 470.914062 C 430.816406 506.289062 424.625 531.292969 409.582031 539.488281 C 394.535156 547.726562 370.15625 539.382812 342.6875 516.695312 C 338.828125 513.507812 334.960938 510.070312 331.109375 506.4375 C 344.28125 492.585938 357.132812 476.449219 369.292969 458.75 C 388.453125 456.796875 406.445312 453.710938 422.90625 449.679688 C 424.445312 456.945312 425.746094 464.078125 426.570312 470.914062 Z M 434.335938 430.582031 C 429.621094 412.859375 423.15625 394.386719 415.113281 375.675781 C 423.15625 356.957031 429.621094 338.488281 434.335938 320.769531 C 479.820312 334.433594 506.816406 355.457031 506.816406 375.675781 C 506.816406 395.894531 479.820312 416.917969 434.335938 430.582031 Z M 434.335938 430.582031 " clip-rule="nonzero"/></clipPath><linearGradient x1="32" gradientTransform="matrix(7.779363, 0, 0, 7.776976, 71.170506, 126.812585)" y1="7.691002" x2="32" gradientUnits="userSpaceOnUse" y2="55.463007" id="d741c7442c"><stop stop-opacity="1" stop-color="rgb(10.592651%, 42.529297%, 100%)" offset="0"/><stop stop-opacity="1" stop-color="rgb(10.868835%, 42.410278%, 100%)" offset="0.00390625"/><stop stop-opacity="1" stop-color="rgb(11.14502%, 42.29126%, 100%)" offset="0.0078125"/><stop stop-opacity="1" stop-color="rgb(11.421204%, 42.172241%, 100%)" offset="0.0117188"/><stop stop-opacity="1" stop-color="rgb(11.698914%, 42.053223%, 100%)" offset="0.015625"/><stop stop-opacity="1" stop-color="rgb(11.975098%, 41.934204%, 100%)" offset="0.0195312"/><stop stop-opacity="1" stop-color="rgb(12.251282%, 41.815186%, 100%)" offset="0.0234375"/><stop stop-opacity="1" stop-color="rgb(12.527466%, 41.694641%, 100%)" offset="0.0273437"/><stop stop-opacity="1" stop-color="rgb(12.805176%, 41.575623%, 100%)" offset="0.03125"/><stop stop-opacity="1" stop-color="rgb(13.08136%, 41.456604%, 100%)" offset="0.0351562"/><stop stop-opacity="1" stop-color="rgb(13.357544%, 41.337585%, 100%)" offset="0.0390625"/><stop stop-opacity="1" stop-color="rgb(13.633728%, 41.218567%, 100%)" offset="0.0429688"/><stop stop-opacity="1" stop-color="rgb(13.911438%, 41.099548%, 100%)" offset="0.046875"/><stop stop-opacity="1" stop-color="rgb(14.187622%, 40.979004%, 100%)" offset="0.0507812"/><stop stop-opacity="1" stop-color="rgb(14.463806%, 40.859985%, 100%)" offset="0.0546875"/><stop stop-opacity="1" stop-color="rgb(14.73999%, 40.740967%, 100%)" offset="0.0585938"/><stop stop-opacity="1" stop-color="rgb(15.0177%, 40.621948%, 100%)" offset="0.0625"/><stop stop-opacity="1" stop-color="rgb(15.293884%, 40.50293%, 100%)" offset="0.0664062"/><stop stop-opacity="1" stop-color="rgb(15.570068%, 40.383911%, 100%)" offset="0.0703125"/><stop stop-opacity="1" stop-color="rgb(15.846252%, 40.264893%, 100%)" offset="0.0742188"/><stop stop-opacity="1" stop-color="rgb(16.123962%, 40.145874%, 100%)" offset="0.078125"/><stop stop-opacity="1" stop-color="rgb(16.400146%, 40.02533%, 100%)" offset="0.0820312"/><stop stop-opacity="1" stop-color="rgb(16.676331%, 39.906311%, 100%)" offset="0.0859375"/><stop stop-opacity="1" stop-color="rgb(16.952515%, 39.787292%, 100%)" offset="0.0898438"/><stop stop-opacity="1" stop-color="rgb(17.230225%, 39.668274%, 100%)" offset="0.09375"/><stop stop-opacity="1" stop-color="rgb(17.506409%, 39.549255%, 100%)" offset="0.0976563"/><stop stop-opacity="1" stop-color="rgb(17.782593%, 39.430237%, 100%)" offset="0.101563"/><stop stop-opacity="1" stop-color="rgb(18.058777%, 39.311218%, 100%)" offset="0.105469"/><stop stop-opacity="1" stop-color="rgb(18.336487%, 39.1922%, 100%)" offset="0.109375"/><stop stop-opacity="1" stop-color="rgb(18.612671%, 39.071655%, 100%)" offset="0.113281"/><stop stop-opacity="1" stop-color="rgb(18.888855%, 38.952637%, 100%)" offset="0.117188"/><stop stop-opacity="1" stop-color="rgb(19.165039%, 38.833618%, 100%)" offset="0.121094"/><stop stop-opacity="1" stop-color="rgb(19.442749%, 38.7146%, 100%)" offset="0.125"/><stop stop-opacity="1" stop-color="rgb(19.718933%, 38.595581%, 100%)" offset="0.128906"/><stop stop-opacity="1" stop-color="rgb(19.996643%, 38.476562%, 100%)" offset="0.132812"/><stop stop-opacity="1" stop-color="rgb(20.272827%, 38.356018%, 100%)" offset="0.136719"/><stop stop-opacity="1" stop-color="rgb(20.549011%, 38.237%, 100%)" offset="0.140625"/><stop stop-opacity="1" stop-color="rgb(20.825195%, 38.117981%, 100%)" offset="0.144531"/><stop stop-opacity="1" stop-color="rgb(21.102905%, 37.998962%, 100%)" offset="0.148438"/><stop stop-opacity="1" stop-color="rgb(21.379089%, 37.879944%, 100%)" offset="0.152344"/><stop stop-opacity="1" stop-color="rgb(21.655273%, 37.760925%, 100%)" offset="0.15625"/><stop stop-opacity="1" stop-color="rgb(21.931458%, 37.641907%, 100%)" offset="0.160156"/><stop stop-opacity="1" stop-color="rgb(22.209167%, 37.522888%, 100%)" offset="0.164062"/><stop stop-opacity="1" stop-color="rgb(22.485352%, 37.402344%, 100%)" offset="0.167969"/><stop stop-opacity="1" stop-color="rgb(22.761536%, 37.283325%, 100%)" offset="0.171875"/><stop stop-opacity="1" stop-color="rgb(23.03772%, 37.164307%, 100%)" offset="0.175781"/><stop stop-opacity="1" stop-color="rgb(23.31543%, 37.045288%, 100%)" offset="0.179688"/><stop stop-opacity="1" stop-color="rgb(23.591614%, 36.92627%, 100%)" offset="0.183594"/><stop stop-opacity="1" stop-color="rgb(23.867798%, 36.807251%, 100%)" offset="0.1875"/><stop stop-opacity="1" stop-color="rgb(24.143982%, 36.686707%, 100%)" offset="0.191406"/><stop stop-opacity="1" stop-color="rgb(24.421692%, 36.567688%, 100%)" offset="0.195313"/><stop stop-opacity="1" stop-color="rgb(24.697876%, 36.448669%, 100%)" offset="0.199219"/><stop stop-opacity="1" stop-color="rgb(24.97406%, 36.329651%, 100%)" offset="0.203125"/><stop stop-opacity="1" stop-color="rgb(25.250244%, 36.210632%, 100%)" offset="0.207031"/><stop stop-opacity="1" stop-color="rgb(25.527954%, 36.091614%, 100%)" offset="0.210938"/><stop stop-opacity="1" stop-color="rgb(25.804138%, 35.972595%, 100%)" offset="0.214844"/><stop stop-opacity="1" stop-color="rgb(26.080322%, 35.853577%, 100%)" offset="0.21875"/><stop stop-opacity="1" stop-color="rgb(26.356506%, 35.733032%, 100%)" offset="0.222656"/><stop stop-opacity="1" stop-color="rgb(26.634216%, 35.614014%, 100%)" offset="0.226562"/><stop stop-opacity="1" stop-color="rgb(26.9104%, 35.494995%, 100%)" offset="0.230469"/><stop stop-opacity="1" stop-color="rgb(27.186584%, 35.375977%, 100%)" offset="0.234375"/><stop stop-opacity="1" stop-color="rgb(27.462769%, 35.256958%, 100%)" offset="0.238281"/><stop stop-opacity="1" stop-color="rgb(27.740479%, 35.137939%, 100%)" offset="0.242188"/><stop stop-opacity="1" stop-color="rgb(28.016663%, 35.017395%, 100%)" offset="0.246094"/><stop stop-opacity="1" stop-color="rgb(28.292847%, 34.898376%, 100%)" offset="0.25"/><stop stop-opacity="1" stop-color="rgb(28.569031%, 34.779358%, 100%)" offset="0.253906"/><stop stop-opacity="1" stop-color="rgb(28.846741%, 34.660339%, 100%)" offset="0.257812"/><stop stop-opacity="1" stop-color="rgb(29.122925%, 34.541321%, 100%)" offset="0.261719"/><stop stop-opacity="1" stop-color="rgb(29.399109%, 34.422302%, 100%)" offset="0.265625"/><stop stop-opacity="1" stop-color="rgb(29.675293%, 34.303284%, 100%)" offset="0.269531"/><stop stop-opacity="1" stop-color="rgb(29.953003%, 34.184265%, 100%)" offset="0.273438"/><stop stop-opacity="1" stop-color="rgb(30.229187%, 34.063721%, 100%)" offset="0.277344"/><stop stop-opacity="1" stop-color="rgb(30.505371%, 33.944702%, 100%)" offset="0.28125"/><stop stop-opacity="1" stop-color="rgb(30.781555%, 33.825684%, 100%)" offset="0.285156"/><stop stop-opacity="1" stop-color="rgb(31.059265%, 33.706665%, 100%)" offset="0.289062"/><stop stop-opacity="1" stop-color="rgb(31.335449%, 33.587646%, 100%)" offset="0.292969"/><stop stop-opacity="1" stop-color="rgb(31.613159%, 33.468628%, 100%)" offset="0.296875"/><stop stop-opacity="1" stop-color="rgb(31.889343%, 33.349609%, 100%)" offset="0.300781"/><stop stop-opacity="1" stop-color="rgb(32.165527%, 33.230591%, 100%)" offset="0.304688"/><stop stop-opacity="1" stop-color="rgb(32.441711%, 33.110046%, 100%)" offset="0.308594"/><stop stop-opacity="1" stop-color="rgb(32.719421%, 32.991028%, 100%)" offset="0.3125"/><stop stop-opacity="1" stop-color="rgb(32.995605%, 32.872009%, 100%)" offset="0.316406"/><stop stop-opacity="1" stop-color="rgb(33.27179%, 32.752991%, 100%)" offset="0.320313"/><stop stop-opacity="1" stop-color="rgb(33.547974%, 32.633972%, 100%)" offset="0.324219"/><stop stop-opacity="1" stop-color="rgb(33.825684%, 32.514954%, 100%)" offset="0.328125"/><stop stop-opacity="1" stop-color="rgb(34.101868%, 32.394409%, 100%)" offset="0.332031"/><stop stop-opacity="1" stop-color="rgb(34.378052%, 32.275391%, 100%)" offset="0.335938"/><stop stop-opacity="1" stop-color="rgb(34.654236%, 32.156372%, 100%)" offset="0.339844"/><stop stop-opacity="1" stop-color="rgb(34.931946%, 32.037354%, 100%)" offset="0.34375"/><stop stop-opacity="1" stop-color="rgb(35.20813%, 31.918335%, 100%)" offset="0.347656"/><stop stop-opacity="1" stop-color="rgb(35.484314%, 31.799316%, 100%)" offset="0.351563"/><stop stop-opacity="1" stop-color="rgb(35.760498%, 31.680298%, 100%)" offset="0.355469"/><stop stop-opacity="1" stop-color="rgb(36.038208%, 31.561279%, 100%)" offset="0.359375"/><stop stop-opacity="1" stop-color="rgb(36.314392%, 31.440735%, 100%)" offset="0.363281"/><stop stop-opacity="1" stop-color="rgb(36.590576%, 31.321716%, 100%)" offset="0.367188"/><stop stop-opacity="1" stop-color="rgb(36.86676%, 31.202698%, 100%)" offset="0.371094"/><stop stop-opacity="1" stop-color="rgb(37.14447%, 31.083679%, 100%)" offset="0.375"/><stop stop-opacity="1" stop-color="rgb(37.420654%, 30.964661%, 100%)" offset="0.378906"/><stop stop-opacity="1" stop-color="rgb(37.696838%, 30.845642%, 100%)" offset="0.382812"/><stop stop-opacity="1" stop-color="rgb(37.973022%, 30.725098%, 100%)" offset="0.386719"/><stop stop-opacity="1" stop-color="rgb(38.250732%, 30.606079%, 100%)" offset="0.390625"/><stop stop-opacity="1" stop-color="rgb(38.526917%, 30.487061%, 100%)" offset="0.394531"/><stop stop-opacity="1" stop-color="rgb(38.803101%, 30.368042%, 100%)" offset="0.398438"/><stop stop-opacity="1" stop-color="rgb(39.079285%, 30.249023%, 100%)" offset="0.402344"/><stop stop-opacity="1" stop-color="rgb(39.356995%, 30.130005%, 100%)" offset="0.40625"/><stop stop-opacity="1" stop-color="rgb(39.633179%, 30.010986%, 100%)" offset="0.410156"/><stop stop-opacity="1" stop-color="rgb(39.909363%, 29.891968%, 100%)" offset="0.414062"/><stop stop-opacity="1" stop-color="rgb(40.185547%, 29.771423%, 100%)" offset="0.417969"/><stop stop-opacity="1" stop-color="rgb(40.463257%, 29.652405%, 100%)" offset="0.421875"/><stop stop-opacity="1" stop-color="rgb(40.739441%, 29.533386%, 100%)" offset="0.425781"/><stop stop-opacity="1" stop-color="rgb(41.015625%, 29.414368%, 100%)" offset="0.429688"/><stop stop-opacity="1" stop-color="rgb(41.291809%, 29.295349%, 100%)" offset="0.433594"/><stop stop-opacity="1" stop-color="rgb(41.569519%, 29.176331%, 100%)" offset="0.4375"/><stop stop-opacity="1" stop-color="rgb(41.845703%, 29.057312%, 100%)" offset="0.441406"/><stop stop-opacity="1" stop-color="rgb(42.121887%, 28.938293%, 100%)" offset="0.445312"/><stop stop-opacity="1" stop-color="rgb(42.398071%, 28.817749%, 100%)" offset="0.449219"/><stop stop-opacity="1" stop-color="rgb(42.675781%, 28.69873%, 100%)" offset="0.453125"/><stop stop-opacity="1" stop-color="rgb(42.951965%, 28.579712%, 100%)" offset="0.457031"/><stop stop-opacity="1" stop-color="rgb(43.229675%, 28.460693%, 100%)" offset="0.460938"/><stop stop-opacity="1" stop-color="rgb(43.505859%, 28.341675%, 100%)" offset="0.464844"/><stop stop-opacity="1" stop-color="rgb(43.782043%, 28.222656%, 100%)" offset="0.46875"/><stop stop-opacity="1" stop-color="rgb(44.058228%, 28.102112%, 100%)" offset="0.472656"/><stop stop-opacity="1" stop-color="rgb(44.335938%, 27.983093%, 100%)" offset="0.476563"/><stop stop-opacity="1" stop-color="rgb(44.612122%, 27.864075%, 100%)" offset="0.480469"/><stop stop-opacity="1" stop-color="rgb(44.888306%, 27.745056%, 100%)" offset="0.484375"/><stop stop-opacity="1" stop-color="rgb(45.16449%, 27.626038%, 100%)" offset="0.488281"/><stop stop-opacity="1" stop-color="rgb(45.4422%, 27.507019%, 100%)" offset="0.492188"/><stop stop-opacity="1" stop-color="rgb(45.718384%, 27.388%, 100%)" offset="0.496094"/><stop stop-opacity="1" stop-color="rgb(45.994568%, 27.268982%, 100%)" offset="0.5"/><stop stop-opacity="1" stop-color="rgb(46.270752%, 27.148438%, 100%)" offset="0.503906"/><stop stop-opacity="1" stop-color="rgb(46.548462%, 27.029419%, 100%)" offset="0.507813"/><stop stop-opacity="1" stop-color="rgb(46.824646%, 26.9104%, 100%)" offset="0.511719"/><stop stop-opacity="1" stop-color="rgb(47.10083%, 26.791382%, 100%)" offset="0.515625"/><stop stop-opacity="1" stop-color="rgb(47.377014%, 26.672363%, 100%)" offset="0.519531"/><stop stop-opacity="1" stop-color="rgb(47.654724%, 26.553345%, 100%)" offset="0.523438"/><stop stop-opacity="1" stop-color="rgb(47.930908%, 26.4328%, 100%)" offset="0.527344"/><stop stop-opacity="1" stop-color="rgb(48.207092%, 26.313782%, 100%)" offset="0.53125"/><stop stop-opacity="1" stop-color="rgb(48.483276%, 26.194763%, 100%)" offset="0.535156"/><stop stop-opacity="1" stop-color="rgb(48.760986%, 26.075745%, 100%)" offset="0.539062"/><stop stop-opacity="1" stop-color="rgb(49.03717%, 25.956726%, 100%)" offset="0.542969"/><stop stop-opacity="1" stop-color="rgb(49.313354%, 25.837708%, 100%)" offset="0.546875"/><stop stop-opacity="1" stop-color="rgb(49.589539%, 25.718689%, 100%)" offset="0.550781"/><stop stop-opacity="1" stop-color="rgb(49.867249%, 25.59967%, 100%)" offset="0.554688"/><stop stop-opacity="1" stop-color="rgb(50.143433%, 25.479126%, 100%)" offset="0.558594"/><stop stop-opacity="1" stop-color="rgb(50.419617%, 25.360107%, 100%)" offset="0.5625"/><stop stop-opacity="1" stop-color="rgb(50.695801%, 25.241089%, 100%)" offset="0.566406"/><stop stop-opacity="1" stop-color="rgb(50.973511%, 25.12207%, 100%)" offset="0.570312"/><stop stop-opacity="1" stop-color="rgb(51.249695%, 25.003052%, 100%)" offset="0.574219"/><stop stop-opacity="1" stop-color="rgb(51.525879%, 24.884033%, 100%)" offset="0.578125"/><stop stop-opacity="1" stop-color="rgb(51.802063%, 24.763489%, 100%)" offset="0.582031"/><stop stop-opacity="1" stop-color="rgb(52.079773%, 24.64447%, 100%)" offset="0.585938"/><stop stop-opacity="1" stop-color="rgb(52.355957%, 24.525452%, 100%)" offset="0.589844"/><stop stop-opacity="1" stop-color="rgb(52.632141%, 24.406433%, 100%)" offset="0.59375"/><stop stop-opacity="1" stop-color="rgb(52.908325%, 24.287415%, 100%)" offset="0.597656"/><stop stop-opacity="1" stop-color="rgb(53.186035%, 24.168396%, 100%)" offset="0.601563"/><stop stop-opacity="1" stop-color="rgb(53.462219%, 24.049377%, 100%)" offset="0.605469"/><stop stop-opacity="1" stop-color="rgb(53.739929%, 23.930359%, 100%)" offset="0.609375"/><stop stop-opacity="1" stop-color="rgb(54.016113%, 23.809814%, 100%)" offset="0.613281"/><stop stop-opacity="1" stop-color="rgb(54.292297%, 23.690796%, 100%)" offset="0.617188"/><stop stop-opacity="1" stop-color="rgb(54.568481%, 23.571777%, 100%)" offset="0.621094"/><stop stop-opacity="1" stop-color="rgb(54.846191%, 23.452759%, 100%)" offset="0.625"/><stop stop-opacity="1" stop-color="rgb(55.122375%, 23.33374%, 100%)" offset="0.628906"/><stop stop-opacity="1" stop-color="rgb(55.39856%, 23.214722%, 100%)" offset="0.632813"/><stop stop-opacity="1" stop-color="rgb(55.674744%, 23.095703%, 100%)" offset="0.636719"/><stop stop-opacity="1" stop-color="rgb(55.952454%, 22.976685%, 100%)" offset="0.640625"/><stop stop-opacity="1" stop-color="rgb(56.228638%, 22.85614%, 100%)" offset="0.644531"/><stop stop-opacity="1" stop-color="rgb(56.504822%, 22.737122%, 100%)" offset="0.648438"/><stop stop-opacity="1" stop-color="rgb(56.781006%, 22.618103%, 100%)" offset="0.652344"/><stop stop-opacity="1" stop-color="rgb(57.058716%, 22.499084%, 100%)" offset="0.65625"/><stop stop-opacity="1" stop-color="rgb(57.3349%, 22.380066%, 100%)" offset="0.660156"/><stop stop-opacity="1" stop-color="rgb(57.611084%, 22.261047%, 100%)" offset="0.664063"/><stop stop-opacity="1" stop-color="rgb(57.887268%, 22.140503%, 100%)" offset="0.667969"/><stop stop-opacity="1" stop-color="rgb(58.164978%, 22.021484%, 100%)" offset="0.671875"/><stop stop-opacity="1" stop-color="rgb(58.441162%, 21.902466%, 100%)" offset="0.675781"/><stop stop-opacity="1" stop-color="rgb(58.717346%, 21.783447%, 100%)" offset="0.679688"/><stop stop-opacity="1" stop-color="rgb(58.99353%, 21.664429%, 100%)" offset="0.683594"/><stop stop-opacity="1" stop-color="rgb(59.27124%, 21.54541%, 100%)" offset="0.6875"/><stop stop-opacity="1" stop-color="rgb(59.547424%, 21.426392%, 100%)" offset="0.691406"/><stop stop-opacity="1" stop-color="rgb(59.823608%, 21.307373%, 100%)" offset="0.695313"/><stop stop-opacity="1" stop-color="rgb(60.099792%, 21.186829%, 100%)" offset="0.699219"/><stop stop-opacity="1" stop-color="rgb(60.377502%, 21.06781%, 100%)" offset="0.703125"/><stop stop-opacity="1" stop-color="rgb(60.653687%, 20.948792%, 100%)" offset="0.707031"/><stop stop-opacity="1" stop-color="rgb(60.929871%, 20.829773%, 100%)" offset="0.710938"/><stop stop-opacity="1" stop-color="rgb(61.206055%, 20.710754%, 100%)" offset="0.714844"/><stop stop-opacity="1" stop-color="rgb(61.483765%, 20.591736%, 100%)" offset="0.71875"/><stop stop-opacity="1" stop-color="rgb(61.759949%, 20.471191%, 100%)" offset="0.722656"/><stop stop-opacity="1" stop-color="rgb(62.036133%, 20.352173%, 100%)" offset="0.726563"/><stop stop-opacity="1" stop-color="rgb(62.312317%, 20.233154%, 100%)" offset="0.730469"/><stop stop-opacity="1" stop-color="rgb(62.590027%, 20.114136%, 100%)" offset="0.734375"/><stop stop-opacity="1" stop-color="rgb(62.866211%, 19.995117%, 100%)" offset="0.738281"/><stop stop-opacity="1" stop-color="rgb(63.142395%, 19.876099%, 100%)" offset="0.742188"/><stop stop-opacity="1" stop-color="rgb(63.418579%, 19.75708%, 100%)" offset="0.746094"/><stop stop-opacity="1" stop-color="rgb(63.696289%, 19.638062%, 100%)" offset="0.75"/><stop stop-opacity="1" stop-color="rgb(63.972473%, 19.517517%, 100%)" offset="0.753906"/><stop stop-opacity="1" stop-color="rgb(64.248657%, 19.398499%, 100%)" offset="0.757813"/><stop stop-opacity="1" stop-color="rgb(64.524841%, 19.27948%, 100%)" offset="0.761719"/><stop stop-opacity="1" stop-color="rgb(64.802551%, 19.160461%, 100%)" offset="0.765625"/><stop stop-opacity="1" stop-color="rgb(65.078735%, 19.041443%, 100%)" offset="0.769531"/><stop stop-opacity="1" stop-color="rgb(65.356445%, 18.922424%, 100%)" offset="0.773438"/><stop stop-opacity="1" stop-color="rgb(65.632629%, 18.803406%, 100%)" offset="0.777344"/><stop stop-opacity="1" stop-color="rgb(65.908813%, 18.684387%, 100%)" offset="0.78125"/><stop stop-opacity="1" stop-color="rgb(66.184998%, 18.563843%, 100%)" offset="0.785156"/><stop stop-opacity="1" stop-color="rgb(66.462708%, 18.444824%, 100%)" offset="0.789063"/><stop stop-opacity="1" stop-color="rgb(66.738892%, 18.325806%, 100%)" offset="0.792969"/><stop stop-opacity="1" stop-color="rgb(67.015076%, 18.206787%, 100%)" offset="0.796875"/><stop stop-opacity="1" stop-color="rgb(67.29126%, 18.087769%, 100%)" offset="0.800781"/><stop stop-opacity="1" stop-color="rgb(67.56897%, 17.96875%, 100%)" offset="0.804688"/><stop stop-opacity="1" stop-color="rgb(67.845154%, 17.848206%, 100%)" offset="0.808594"/><stop stop-opacity="1" stop-color="rgb(68.121338%, 17.729187%, 100%)" offset="0.8125"/><stop stop-opacity="1" stop-color="rgb(68.397522%, 17.610168%, 100%)" offset="0.816406"/><stop stop-opacity="1" stop-color="rgb(68.675232%, 17.49115%, 100%)" offset="0.820313"/><stop stop-opacity="1" stop-color="rgb(68.951416%, 17.372131%, 100%)" offset="0.824219"/><stop stop-opacity="1" stop-color="rgb(69.2276%, 17.253113%, 100%)" offset="0.828125"/><stop stop-opacity="1" stop-color="rgb(69.503784%, 17.134094%, 100%)" offset="0.832031"/><stop stop-opacity="1" stop-color="rgb(69.781494%, 17.015076%, 100%)" offset="0.835938"/><stop stop-opacity="1" stop-color="rgb(70.057678%, 16.894531%, 100%)" offset="0.839844"/><stop stop-opacity="1" stop-color="rgb(70.333862%, 16.775513%, 100%)" offset="0.84375"/><stop stop-opacity="1" stop-color="rgb(70.610046%, 16.656494%, 100%)" offset="0.847656"/><stop stop-opacity="1" stop-color="rgb(70.887756%, 16.537476%, 100%)" offset="0.851563"/><stop stop-opacity="1" stop-color="rgb(71.16394%, 16.418457%, 100%)" offset="0.855469"/><stop stop-opacity="1" stop-color="rgb(71.440125%, 16.299438%, 100%)" offset="0.859375"/><stop stop-opacity="1" stop-color="rgb(71.716309%, 16.178894%, 100%)" offset="0.863281"/><stop stop-opacity="1" stop-color="rgb(71.994019%, 16.059875%, 100%)" offset="0.867188"/><stop stop-opacity="1" stop-color="rgb(72.270203%, 15.940857%, 100%)" offset="0.871094"/><stop stop-opacity="1" stop-color="rgb(72.546387%, 15.821838%, 100%)" offset="0.875"/><stop stop-opacity="1" stop-color="rgb(72.822571%, 15.70282%, 100%)" offset="0.878906"/><stop stop-opacity="1" stop-color="rgb(73.100281%, 15.583801%, 100%)" offset="0.882813"/><stop stop-opacity="1" stop-color="rgb(73.376465%, 15.464783%, 100%)" offset="0.886719"/><stop stop-opacity="1" stop-color="rgb(73.652649%, 15.345764%, 100%)" offset="0.890625"/><stop stop-opacity="1" stop-color="rgb(73.928833%, 15.22522%, 100%)" offset="0.894531"/><stop stop-opacity="1" stop-color="rgb(74.206543%, 15.106201%, 100%)" offset="0.898438"/><stop stop-opacity="1" stop-color="rgb(74.482727%, 14.987183%, 100%)" offset="0.902344"/><stop stop-opacity="1" stop-color="rgb(74.758911%, 14.868164%, 100%)" offset="0.90625"/><stop stop-opacity="1" stop-color="rgb(75.035095%, 14.749146%, 100%)" offset="0.910156"/><stop stop-opacity="1" stop-color="rgb(75.312805%, 14.630127%, 100%)" offset="0.914062"/><stop stop-opacity="1" stop-color="rgb(75.588989%, 14.509583%, 100%)" offset="0.917969"/><stop stop-opacity="1" stop-color="rgb(75.866699%, 14.390564%, 100%)" offset="0.921875"/><stop stop-opacity="1" stop-color="rgb(76.142883%, 14.271545%, 100%)" offset="0.925781"/><stop stop-opacity="1" stop-color="rgb(76.419067%, 14.152527%, 100%)" offset="0.929688"/><stop stop-opacity="1" stop-color="rgb(76.695251%, 14.033508%, 100%)" offset="0.933594"/><stop stop-opacity="1" stop-color="rgb(76.972961%, 13.91449%, 100%)" offset="0.9375"/><stop stop-opacity="1" stop-color="rgb(77.249146%, 13.795471%, 100%)" offset="0.941406"/><stop stop-opacity="1" stop-color="rgb(77.52533%, 13.676453%, 100%)" offset="0.945313"/><stop stop-opacity="1" stop-color="rgb(77.801514%, 13.555908%, 100%)" offset="0.949219"/><stop stop-opacity="1" stop-color="rgb(78.079224%, 13.43689%, 100%)" offset="0.953125"/><stop stop-opacity="1" stop-color="rgb(78.239441%, 13.368225%, 100%)" offset="0.96875"/><stop stop-opacity="1" stop-color="rgb(78.399658%, 13.299561%, 100%)" offset="1"/></linearGradient></defs><g clip-path="url(#654f4917d7)"><path fill="#ffffff" d="M 0 0.0625 L 640.5 0.0625 L 640.5 745.441406 L 0 745.441406 Z M 0 0.0625 " fill-opacity="1" fill-rule="nonzero"/><path fill="#ffffff" d="M 0 0.0625 L 640.5 0.0625 L 640.5 745.441406 L 0 745.441406 Z M 0 0.0625 " fill-opacity="1" fill-rule="nonzero"/></g><g clip-path="url(#8de69e0e7b)"><g clip-path="url(#dbc1ead678)"><path fill="#ffffff" d="M 16.613281 19.425781 L 623.890625 19.425781 L 623.890625 726.074219 L 16.613281 726.074219 Z M 16.613281 19.425781 " fill-opacity="1" fill-rule="nonzero"/></g></g><g clip-path="url(#cc09485b53)"><g clip-path="url(#8c5dff2ace)"><path stroke-linecap="butt" transform="matrix(0.749456, 0, 0, 0.748888, 16.612045, 19.427967)" fill="none" stroke-linejoin="miter" d="M 426.931146 12.573019 L 789.032364 223.24997 C 802.411862 231.032342 810.64179 245.34523 810.64179 260.821301 L 810.64179 682.467301 C 810.64179 697.948589 802.411862 712.256261 789.032364 720.038633 L 426.931146 930.720799 C 413.572497 938.492739 397.070943 938.492739 383.712294 930.720799 L 21.611075 720.038633 C 8.231578 712.256261 0.00164935 697.948589 0.00164935 682.467301 L 0.00164935 260.821301 C 0.00164935 245.34523 8.231578 231.032342 21.611075 223.24997 L 383.712294 12.573019 C 397.070943 4.801079 413.572497 4.801079 426.931146 12.573019 " stroke="#2e63ff" stroke-width="64" stroke-opacity="1" stroke-miterlimit="4"/></g></g><g clip-path="url(#2578c8c2ba)"><g clip-path="url(#ea840a70ee)"><path fill="url(#19029a0d7b)" d="M 273.433594 329.015625 L 273.433594 422.335938 L 366.785156 422.335938 L 366.785156 329.015625 Z M 273.433594 329.015625 " fill-rule="nonzero"/></g></g><g clip-path="url(#68d0a7362b)"><g clip-path="url(#e55c7c95a4)"><path fill="url(#d741c7442c)" d="M 117.847656 186.625 L 117.847656 558.148438 L 522.375 558.148438 L 522.375 186.625 Z M 117.847656 186.625 " fill-rule="nonzero"/></g></g></svg>