<svg xmlns="http://www.w3.org/2000/svg" xmlns:xlink="http://www.w3.org/1999/xlink" width="855" zoomAndPan="magnify" viewBox="0 0 641.25 746.25" height="995" preserveAspectRatio="xMidYMid meet" version="1.0"><defs><clipPath id="33b9bcd21c"><path d="M 0 0.0625 L 640.5 0.0625 L 640.5 745.441406 L 0 745.441406 Z M 0 0.0625 " clip-rule="nonzero"/></clipPath><clipPath id="506df1719d"><path d="M 16.613281 24 L 623.890625 24 L 623.890625 722 L 16.613281 722 Z M 16.613281 24 " clip-rule="nonzero"/></clipPath><clipPath id="3187bfd39f"><path d="M 336.4375 28.84375 L 607.703125 186.671875 C 617.722656 192.5 623.890625 203.222656 623.890625 214.816406 L 623.890625 530.683594 C 623.890625 542.28125 617.722656 553 607.703125 558.832031 L 336.4375 716.65625 C 326.429688 722.480469 314.070312 722.480469 304.0625 716.65625 L 32.800781 558.832031 C 22.777344 553 16.613281 542.28125 16.613281 530.683594 L 16.613281 214.816406 C 16.613281 203.222656 22.777344 192.5 32.800781 186.671875 L 304.0625 28.84375 C 314.070312 23.023438 326.429688 23.023438 336.4375 28.84375 " clip-rule="nonzero"/></clipPath><clipPath id="ab35bea8f1"><path d="M 16.613281 24 L 624.152344 24 L 624.152344 721 L 16.613281 721 Z M 16.613281 24 " clip-rule="nonzero"/></clipPath><clipPath id="6a75f9f91b"><path d="M 336.578125 28.84375 L 607.957031 186.617188 C 617.984375 192.445312 624.152344 203.164062 624.152344 214.753906 L 624.152344 530.519531 C 624.152344 542.113281 617.984375 552.828125 607.957031 558.65625 L 336.578125 716.433594 C 326.566406 722.253906 314.199219 722.253906 304.1875 716.433594 L 32.808594 558.65625 C 22.78125 552.828125 16.613281 542.113281 16.613281 530.519531 L 16.613281 214.753906 C 16.613281 203.164062 22.78125 192.445312 32.808594 186.617188 L 304.1875 28.84375 C 314.199219 23.023438 326.566406 23.023438 336.578125 28.84375 " clip-rule="nonzero"/></clipPath><clipPath id="35a2cc58f1"><path d="M 128.101562 180.601562 L 512.402344 180.601562 L 512.402344 564.902344 L 128.101562 564.902344 Z M 128.101562 180.601562 " clip-rule="nonzero"/></clipPath></defs><g clip-path="url(#33b9bcd21c)"><path fill="#ffffff" d="M 0 0.0625 L 640.5 0.0625 L 640.5 745.441406 L 0 745.441406 Z M 0 0.0625 " fill-opacity="1" fill-rule="nonzero"/><path fill="#ffffff" d="M 0 0.0625 L 640.5 0.0625 L 640.5 745.441406 L 0 745.441406 Z M 0 0.0625 " fill-opacity="1" fill-rule="nonzero"/></g><g clip-path="url(#506df1719d)"><g clip-path="url(#3187bfd39f)"><path fill="#ffffff" d="M 16.613281 19.425781 L 623.890625 19.425781 L 623.890625 726.074219 L 16.613281 726.074219 Z M 16.613281 19.425781 " fill-opacity="1" fill-rule="nonzero"/></g></g><g clip-path="url(#ab35bea8f1)"><g clip-path="url(#6a75f9f91b)"><path stroke-linecap="butt" transform="matrix(0.749456, 0, 0, 0.748888, 16.612045, 19.428084)" fill="none" stroke-linejoin="miter" d="M 426.931146 12.572863 L 789.032364 223.249813 C 802.411862 231.032185 810.64179 245.345073 810.64179 260.821144 L 810.64179 682.467145 C 810.64179 697.948432 802.411862 712.256104 789.032364 720.038476 L 426.931146 930.720643 C 413.572497 938.492583 397.070943 938.492583 383.712294 930.720643 L 21.611075 720.038476 C 8.231578 712.256104 0.00164935 697.948432 0.00164935 682.467145 L 0.00164935 260.821144 C 0.00164935 245.345073 8.231578 231.032185 21.611075 223.249813 L 383.712294 12.572863 C 397.070943 4.800923 413.572497 4.800923 426.931146 12.572863 " stroke="#017acd" stroke-width="64" stroke-opacity="1" stroke-miterlimit="4"/></g></g><g clip-path="url(#35a2cc58f1)"><path fill="#007acc" d="M 128.101562 564.902344 L 512.402344 564.902344 L 512.402344 180.601562 L 128.101562 180.601562 Z M 128.101562 564.902344 " fill-opacity="1" fill-rule="nonzero"/></g><path fill="#ffffff" d="M 213.066406 374.011719 L 212.945312 389.757812 L 262.964844 389.757812 L 262.964844 531.890625 L 298.347656 531.890625 L 298.347656 389.757812 L 348.367188 389.757812 L 348.367188 374.328125 C 348.367188 365.785156 348.183594 358.640625 347.941406 358.460938 C 347.757812 358.21875 317.320312 358.097656 280.410156 358.160156 L 213.246094 358.339844 Z M 213.066406 374.011719 " fill-opacity="1" fill-rule="nonzero"/><path fill="#ffffff" d="M 438.199219 357.902344 C 447.957031 360.335938 455.402344 364.675781 462.230469 371.746094 C 465.757812 375.527344 471.011719 382.417969 471.433594 384.070312 C 471.554688 384.566406 454.84375 395.777344 444.710938 402.070312 C 444.351562 402.308594 442.894531 400.71875 441.246094 398.285156 C 436.304688 391.078125 431.113281 387.972656 423.1875 387.433594 C 411.535156 386.636719 404.03125 392.730469 404.089844 402.925781 C 404.089844 405.910156 404.527344 407.683594 405.742188 410.113281 C 408.308594 415.429688 413.066406 418.597656 428.003906 425.066406 C 455.519531 436.894531 467.289062 444.703125 474.617188 455.808594 C 482.78125 468.195312 484.613281 487.949219 479.058594 502.648438 C 472.964844 518.632812 457.832031 529.488281 436.546875 533.089844 C 429.957031 534.246094 414.34375 534.066406 407.257812 532.789062 C 391.828125 530.042969 377.191406 522.417969 368.167969 512.417969 C 364.625 508.515625 357.734375 498.324219 358.15625 497.589844 C 358.351562 497.347656 359.925781 496.371094 361.699219 495.335938 C 363.410156 494.359375 369.878906 490.636719 375.972656 487.09375 L 387.007812 480.699219 L 389.335938 484.109375 C 392.5625 489.046875 399.648438 495.816406 403.910156 498.082031 C 416.175781 504.539062 433.003906 503.621094 441.304688 496.191406 C 444.847656 492.949219 446.304688 489.601562 446.304688 484.664062 C 446.304688 480.203125 445.761719 478.253906 443.4375 474.90625 C 440.449219 470.628906 434.355469 467.023438 417.03125 459.535156 C 397.199219 450.992188 388.660156 445.675781 380.851562 437.257812 C 376.335938 432.378906 372.070312 424.570312 370.300781 418.039062 C 368.828125 412.621094 368.46875 399.019531 369.625 393.527344 C 373.722656 374.371094 388.179688 361.011719 409.03125 357.046875 C 415.800781 355.773438 431.546875 356.253906 438.199219 357.902344 Z M 438.199219 357.902344 " fill-opacity="1" fill-rule="nonzero"/></svg>