<svg xmlns="http://www.w3.org/2000/svg" xmlns:xlink="http://www.w3.org/1999/xlink" width="855" zoomAndPan="magnify" viewBox="0 0 641.25 746.25" height="995" preserveAspectRatio="xMidYMid meet" version="1.0"><defs><clipPath id="88ce59731a"><path d="M 0 0.0625 L 640.5 0.0625 L 640.5 745.441406 L 0 745.441406 Z M 0 0.0625 " clip-rule="nonzero"/></clipPath><clipPath id="c5d39ceae5"><path d="M 16.613281 24 L 623.890625 24 L 623.890625 722 L 16.613281 722 Z M 16.613281 24 " clip-rule="nonzero"/></clipPath><clipPath id="893c13f0df"><path d="M 336.4375 28.84375 L 607.703125 186.667969 C 617.722656 192.5 623.890625 203.222656 623.890625 214.816406 L 623.890625 530.683594 C 623.890625 542.28125 617.722656 553 607.703125 558.832031 L 336.4375 716.65625 C 326.429688 722.480469 314.070312 722.480469 304.0625 716.65625 L 32.800781 558.832031 C 22.777344 553 16.613281 542.28125 16.613281 530.683594 L 16.613281 214.816406 C 16.613281 203.222656 22.777344 192.5 32.800781 186.667969 L 304.0625 28.84375 C 314.070312 23.023438 326.429688 23.023438 336.4375 28.84375 " clip-rule="nonzero"/></clipPath><clipPath id="f7b489cd92"><path d="M 16.613281 24 L 624.152344 24 L 624.152344 721 L 16.613281 721 Z M 16.613281 24 " clip-rule="nonzero"/></clipPath><clipPath id="9d7d5c6f5c"><path d="M 336.578125 28.84375 L 607.957031 186.617188 C 617.984375 192.445312 624.152344 203.164062 624.152344 214.753906 L 624.152344 530.519531 C 624.152344 542.113281 617.984375 552.828125 607.957031 558.65625 L 336.578125 716.433594 C 326.566406 722.253906 314.199219 722.253906 304.1875 716.433594 L 32.808594 558.65625 C 22.78125 552.828125 16.613281 542.113281 16.613281 530.519531 L 16.613281 214.753906 C 16.613281 203.164062 22.78125 192.445312 32.808594 186.617188 L 304.1875 28.84375 C 314.199219 23.023438 326.566406 23.023438 336.578125 28.84375 " clip-rule="nonzero"/></clipPath><clipPath id="e6e052251e"><path d="M 162 386 L 343 386 L 343 567.308594 L 162 567.308594 Z M 162 386 " clip-rule="nonzero"/></clipPath><clipPath id="165e953e2a"><path d="M 340 260 L 520.972656 260 L 520.972656 442 L 340 442 Z M 340 260 " clip-rule="nonzero"/></clipPath><clipPath id="15620f0aca"><path d="M 300 386 L 481 386 L 481 567.308594 L 300 567.308594 Z M 300 386 " clip-rule="nonzero"/></clipPath><clipPath id="58677524aa"><path d="M 230 178.511719 L 411 178.511719 L 411 359 L 230 359 Z M 230 178.511719 " clip-rule="nonzero"/></clipPath></defs><g clip-path="url(#88ce59731a)"><path fill="#ffffff" d="M 0 0.0625 L 640.5 0.0625 L 640.5 745.441406 L 0 745.441406 Z M 0 0.0625 " fill-opacity="1" fill-rule="nonzero"/><path fill="#ffffff" d="M 0 0.0625 L 640.5 0.0625 L 640.5 745.441406 L 0 745.441406 Z M 0 0.0625 " fill-opacity="1" fill-rule="nonzero"/></g><g clip-path="url(#c5d39ceae5)"><g clip-path="url(#893c13f0df)"><path fill="#ffffff" d="M 16.613281 19.425781 L 623.890625 19.425781 L 623.890625 726.074219 L 16.613281 726.074219 Z M 16.613281 19.425781 " fill-opacity="1" fill-rule="nonzero"/></g></g><g clip-path="url(#f7b489cd92)"><g clip-path="url(#9d7d5c6f5c)"><path stroke-linecap="butt" transform="matrix(0.749456, 0, 0, 0.748888, 16.612045, 19.427967)" fill="none" stroke-linejoin="miter" d="M 426.931146 12.573019 L 789.032364 223.24997 C 802.411862 231.032342 810.64179 245.34523 810.64179 260.821301 L 810.64179 682.467301 C 810.64179 697.948589 802.411862 712.256261 789.032364 720.038633 L 426.931146 930.720799 C 413.572497 938.492739 397.070943 938.492739 383.712294 930.720799 L 21.611075 720.038633 C 8.231578 712.256261 0.00164935 697.948589 0.00164935 682.467301 L 0.00164935 260.821301 C 0.00164935 245.34523 8.231578 231.032342 21.611075 223.24997 L 383.712294 12.573019 C 397.070943 4.801079 413.572497 4.801079 426.931146 12.573019 " stroke="#b52e31" stroke-width="64" stroke-opacity="1" stroke-miterlimit="4"/></g></g><g clip-path="url(#e6e052251e)"><path fill="#ff6600" d="M 342.230469 477.101562 C 342.230469 526.910156 301.890625 567.292969 252.148438 567.292969 C 202.386719 567.292969 162.058594 526.910156 162.058594 477.101562 C 162.058594 427.308594 202.386719 386.925781 252.148438 386.925781 C 301.890625 386.925781 342.230469 427.308594 342.230469 477.101562 " fill-opacity="1" fill-rule="nonzero"/></g><g clip-path="url(#165e953e2a)"><path fill="#ffcc00" d="M 520.390625 350.863281 C 520.390625 400.652344 480.066406 441.035156 430.308594 441.035156 C 380.550781 441.035156 340.226562 400.652344 340.226562 350.863281 C 340.226562 301.054688 380.550781 260.671875 430.308594 260.671875 C 480.066406 260.671875 520.390625 301.054688 520.390625 350.863281 " fill-opacity="1" fill-rule="nonzero"/></g><path fill="#0089cc" d="M 300.183594 348.84375 C 300.183594 398.644531 259.859375 439.027344 210.101562 439.027344 C 160.355469 439.027344 120.019531 398.644531 120.019531 348.84375 C 120.023438 299.050781 160.355469 258.667969 210.101562 258.667969 C 259.859375 258.667969 300.183594 299.050781 300.183594 348.84375 " fill-opacity="1" fill-rule="nonzero"/><g clip-path="url(#15620f0aca)"><path fill="#009939" d="M 480.363281 477.101562 C 480.363281 526.910156 440.023438 567.292969 390.265625 567.292969 C 340.523438 567.292969 300.183594 526.910156 300.183594 477.101562 C 300.183594 427.308594 340.523438 386.925781 390.265625 386.925781 C 440.023438 386.925781 480.363281 427.308594 480.363281 477.101562 " fill-opacity="1" fill-rule="nonzero"/></g><g clip-path="url(#58677524aa)"><path fill="#bf0000" d="M 410.289062 268.679688 C 410.289062 318.480469 369.964844 358.859375 320.207031 358.859375 C 270.457031 358.859375 230.121094 318.480469 230.121094 268.679688 C 230.121094 218.875 270.457031 178.496094 320.207031 178.496094 C 369.964844 178.496094 410.289062 218.875 410.289062 268.679688 " fill-opacity="1" fill-rule="nonzero"/></g><path fill="#fc0007" d="M 340.226562 350.847656 C 340.226562 352.746094 340.382812 354.601562 340.507812 356.472656 C 380.472656 347.242188 410.289062 311.480469 410.289062 268.6875 C 410.289062 266.777344 410.132812 264.914062 410.007812 263.050781 C 370.042969 272.289062 340.226562 308.042969 340.226562 350.847656 " fill-opacity="1" fill-rule="nonzero"/><path fill="#1cd306" d="M 352.117188 395.488281 C 367.632812 422.65625 396.804688 441.007812 430.308594 441.007812 C 443.964844 441.007812 456.871094 437.875 468.476562 432.429688 C 452.957031 405.261719 423.769531 386.910156 390.265625 386.910156 C 376.609375 386.910156 363.707031 390.039062 352.117188 395.488281 " fill-opacity="1" fill-rule="nonzero"/><path fill="#0f7504" d="M 300.183594 477.101562 C 300.183594 499.132812 308.097656 519.300781 321.207031 534.957031 C 334.316406 519.300781 342.230469 499.132812 342.230469 477.101562 C 342.230469 455.070312 334.316406 434.917969 321.207031 419.257812 C 308.097656 434.917969 300.183594 455.070312 300.183594 477.101562 " fill-opacity="1" fill-rule="nonzero"/><path fill="#0c5e87" d="M 174.433594 431.628906 C 185.375 436.359375 197.421875 439.003906 210.101562 439.003906 C 243.277344 439.003906 272.179688 421.011719 287.8125 394.285156 C 276.878906 389.554688 264.824219 386.910156 252.152344 386.910156 C 218.976562 386.910156 190.066406 404.902344 174.433594 431.628906 " fill-opacity="1" fill-rule="nonzero"/><path fill="#6b0001" d="M 230.507812 261.066406 C 230.296875 263.585938 230.117188 266.109375 230.117188 268.675781 C 230.117188 311.449219 259.894531 347.179688 299.808594 356.449219 C 300.011719 353.9375 300.183594 351.410156 300.183594 348.84375 C 300.183594 306.078125 270.417969 270.335938 230.507812 261.066406 " fill-opacity="1" fill-rule="nonzero"/><path fill="#ffffff" d="M 238.914062 465.9375 L 224.824219 465.9375 C 212.382812 465.9375 202.265625 455.835938 202.265625 443.417969 L 202.265625 315.726562 C 202.265625 303.308594 212.382812 293.210938 224.824219 293.210938 L 401.53125 293.210938 C 413.964844 293.210938 424.085938 303.308594 424.085938 315.726562 L 424.085938 443.417969 C 424.085938 455.835938 413.964844 465.9375 401.53125 465.9375 L 341.324219 465.9375 L 220.554688 525.199219 L 238.917969 465.9375 Z M 238.914062 465.9375 " fill-opacity="1" fill-rule="nonzero"/></svg>