<svg xmlns="http://www.w3.org/2000/svg" xmlns:xlink="http://www.w3.org/1999/xlink" width="855" zoomAndPan="magnify" viewBox="0 0 641.25 746.25" height="995" preserveAspectRatio="xMidYMid meet" version="1.0"><defs><clipPath id="524bae0bea"><path d="M 0 0.0625 L 640.5 0.0625 L 640.5 745.441406 L 0 745.441406 Z M 0 0.0625 " clip-rule="nonzero"/></clipPath><clipPath id="6a4b590e21"><path d="M 16.613281 24 L 623.890625 24 L 623.890625 722 L 16.613281 722 Z M 16.613281 24 " clip-rule="nonzero"/></clipPath><clipPath id="af154825d6"><path d="M 336.4375 28.84375 L 607.703125 186.667969 C 617.722656 192.5 623.890625 203.222656 623.890625 214.816406 L 623.890625 530.683594 C 623.890625 542.28125 617.722656 553 607.703125 558.832031 L 336.4375 716.65625 C 326.429688 722.480469 314.070312 722.480469 304.0625 716.65625 L 32.800781 558.832031 C 22.777344 553 16.613281 542.28125 16.613281 530.683594 L 16.613281 214.816406 C 16.613281 203.222656 22.777344 192.5 32.800781 186.667969 L 304.0625 28.84375 C 314.070312 23.023438 326.429688 23.023438 336.4375 28.84375 " clip-rule="nonzero"/></clipPath><clipPath id="726dd0bae8"><path d="M 16.613281 24 L 624.152344 24 L 624.152344 721 L 16.613281 721 Z M 16.613281 24 " clip-rule="nonzero"/></clipPath><clipPath id="4b75d99d92"><path d="M 336.578125 28.84375 L 607.957031 186.617188 C 617.984375 192.445312 624.152344 203.164062 624.152344 214.753906 L 624.152344 530.519531 C 624.152344 542.113281 617.984375 552.828125 607.957031 558.65625 L 336.578125 716.433594 C 326.566406 722.253906 314.199219 722.253906 304.1875 716.433594 L 32.808594 558.65625 C 22.78125 552.828125 16.613281 542.113281 16.613281 530.519531 L 16.613281 214.753906 C 16.613281 203.164062 22.78125 192.445312 32.808594 186.617188 L 304.1875 28.84375 C 314.199219 23.023438 326.566406 23.023438 336.578125 28.84375 " clip-rule="nonzero"/></clipPath><clipPath id="21dcc19238"><path d="M 140.136719 192.636719 L 500.464844 192.636719 L 500.464844 552.964844 L 140.136719 552.964844 Z M 140.136719 192.636719 " clip-rule="nonzero"/></clipPath></defs><g clip-path="url(#524bae0bea)"><path fill="#ffffff" d="M 0 0.0625 L 641.25 0.0625 L 641.25 753.679688 L 0 753.679688 Z M 0 0.0625 " fill-opacity="1" fill-rule="nonzero"/><path fill="#ffffff" d="M 0 0.0625 L 640.5 0.0625 L 640.5 745.441406 L 0 745.441406 Z M 0 0.0625 " fill-opacity="1" fill-rule="nonzero"/><path fill="#ffffff" d="M 0 0.0625 L 640.5 0.0625 L 640.5 745.441406 L 0 745.441406 Z M 0 0.0625 " fill-opacity="1" fill-rule="nonzero"/></g><g clip-path="url(#6a4b590e21)"><g clip-path="url(#af154825d6)"><path fill="#ffffff" d="M 16.613281 19.425781 L 623.890625 19.425781 L 623.890625 726.074219 L 16.613281 726.074219 Z M 16.613281 19.425781 " fill-opacity="1" fill-rule="nonzero"/></g></g><g clip-path="url(#726dd0bae8)"><g clip-path="url(#4b75d99d92)"><path stroke-linecap="butt" transform="matrix(0.749456, 0, 0, 0.748888, 16.612045, 19.428016)" fill="none" stroke-linejoin="miter" d="M 426.931146 12.572953 L 789.032364 223.249904 C 802.411862 231.032276 810.64179 245.345164 810.64179 260.821235 L 810.64179 682.467235 C 810.64179 697.948523 802.411862 712.256195 789.032364 720.038567 L 426.931146 930.720733 C 413.572497 938.492673 397.070943 938.492673 383.712294 930.720733 L 21.611075 720.038567 C 8.231578 712.256195 0.00164935 697.948523 0.00164935 682.467235 L 0.00164935 260.821235 C 0.00164935 245.345164 8.231578 231.032276 21.611075 223.249904 L 383.712294 12.572953 C 397.070943 4.801013 413.572497 4.801013 426.931146 12.572953 " stroke="#000000" stroke-width="64" stroke-opacity="1" stroke-miterlimit="4"/></g></g><g clip-path="url(#21dcc19238)"><path stroke-linecap="butt" transform="matrix(1.407533, 0, 0, 1.407533, 140.137477, 192.637495)" fill="none" stroke-linejoin="miter" d="M 242.000826 127.999299 C 242.000826 129.867039 241.953647 131.729228 241.862064 133.594193 C 241.770481 135.456382 241.634494 137.318572 241.451328 139.175211 C 241.268162 141.03185 241.040591 142.882938 240.765842 144.728476 C 240.491093 146.574014 240.174715 148.411226 239.808383 150.240113 C 239.444826 152.068999 239.036865 153.88956 238.5845 155.699019 C 238.129359 157.508479 237.632591 159.306838 237.091418 161.091321 C 236.550245 162.878578 235.964668 164.649185 235.334688 166.405915 C 234.707482 168.162645 234.035873 169.902723 233.322635 171.626151 C 232.609397 173.349578 231.851755 175.053578 231.05526 176.740927 C 230.255989 178.428276 229.417865 180.093423 228.538113 181.739143 C 227.65836 183.384864 226.739754 185.008382 225.782294 186.606923 C 224.82206 188.20824 223.822971 189.784579 222.787805 191.335941 C 221.749863 192.887303 220.675844 194.410912 219.565746 195.909544 C 218.452872 197.408177 217.306696 198.879057 216.124442 200.322184 C 214.939412 201.762536 213.72108 203.175136 212.469444 204.557208 C 211.215033 205.93928 209.930095 207.290824 208.609078 208.609066 C 207.290837 209.930082 205.939293 211.215021 204.557221 212.469431 C 203.175148 213.721067 201.762549 214.939399 200.322197 216.124429 C 198.879069 217.306683 197.408189 218.455635 195.909557 219.565733 C 194.410925 220.675831 192.887315 221.749851 191.335953 222.787792 C 189.784591 223.822959 188.208252 224.822047 186.606936 225.782282 C 185.008395 226.739741 183.384876 227.658347 181.739156 228.5381 C 180.093436 229.417853 178.428289 230.255977 176.74094 231.055247 C 175.053591 231.851743 173.34959 232.609384 171.626163 233.322622 C 169.902736 234.03586 168.162657 234.70747 166.405927 235.334675 C 164.649197 235.964656 162.878591 236.550232 161.091333 237.091405 C 159.306851 237.632578 157.508492 238.129347 155.699032 238.584487 C 153.889572 239.036852 152.069012 239.444813 150.240125 239.80837 C 148.411239 240.174702 146.574026 240.49108 144.728489 240.76583 C 142.882951 241.040579 141.031862 241.268149 139.175223 241.451315 C 137.318584 241.634481 135.456395 241.770468 133.594206 241.862051 C 131.729241 241.953634 129.867052 242.000814 127.999312 242.000814 C 126.134347 242.000814 124.269382 241.953634 122.407193 241.862051 C 120.542228 241.770468 118.682814 241.634481 116.826175 241.451315 C 114.969536 241.268149 113.118448 241.040579 111.27291 240.76583 C 109.427372 240.49108 107.59016 240.174702 105.758498 239.80837 C 103.929612 239.444813 102.109051 239.036852 100.299591 238.584487 C 98.490131 238.129347 96.691773 237.632578 94.90729 237.091405 C 93.122808 236.550232 91.352201 235.964656 89.595471 235.334675 C 87.838741 234.70747 86.098662 234.03586 84.375235 233.322622 C 82.649033 232.609384 80.945032 231.851743 79.257684 231.055247 C 77.57311 230.255977 75.905188 229.417853 74.259467 228.5381 C 72.616522 227.658347 70.993004 226.739741 69.391687 225.782282 C 67.793146 224.822047 66.216807 223.822959 64.665445 222.787792 C 63.114083 221.749851 61.587699 220.675831 60.089066 219.565733 C 58.590434 218.455635 57.122329 217.306683 55.679202 216.124429 C 54.236074 214.939399 52.823475 213.721067 51.441403 212.469431 C 50.059331 211.215021 48.707786 209.930082 47.389545 208.609066 C 46.071304 207.290824 44.78359 205.93928 43.531954 204.557208 C 42.277544 203.175136 41.059211 201.762536 39.876957 200.322184 C 38.691927 198.879057 37.545751 197.408177 36.435653 195.909544 C 35.32278 194.410912 34.24876 192.887303 33.213594 191.335941 C 32.175652 189.784579 31.179339 188.20824 30.219104 186.606923 C 29.258869 185.008382 28.340263 183.384864 27.460511 181.739143 C 26.580758 180.093423 25.742634 178.428276 24.946139 176.740927 C 24.146868 175.053578 23.392001 173.349578 22.678763 171.626151 C 21.96275 169.902723 21.291141 168.162645 20.663936 166.405915 C 20.03673 164.649185 19.451154 162.878578 18.909981 161.091321 C 18.366033 159.306838 17.869264 157.508479 17.416899 155.699019 C 16.961759 153.88956 16.553798 152.068999 16.190241 150.240113 C 15.826684 148.411226 15.50753 146.574014 15.232781 144.728476 C 14.960807 142.882938 14.730462 141.03185 14.550071 139.175211 C 14.366905 137.318572 14.228142 135.456382 14.136559 133.594193 C 14.044976 131.729228 14.000572 129.867039 14.000572 127.999299 C 14.000572 126.134334 14.044976 124.26937 14.136559 122.40718 C 14.228142 120.542216 14.366905 118.682801 14.550071 116.826163 C 14.730462 114.969524 14.960807 113.118435 15.232781 111.272897 C 15.50753 109.427359 15.826684 107.590147 16.190241 105.758485 C 16.553798 103.929599 16.961759 102.109038 17.416899 100.299579 C 17.869264 98.490119 18.366033 96.69176 18.909981 94.907277 C 19.451154 93.122795 20.03673 91.352189 20.663936 89.595459 C 21.291141 87.838728 21.96275 86.09865 22.678763 84.375223 C 23.392001 82.64902 24.146868 80.94502 24.946139 79.257671 C 25.742634 77.573097 26.580758 75.905175 27.460511 74.259455 C 28.340263 72.61651 29.258869 70.992991 30.219104 69.391675 C 31.179339 67.793134 32.175652 66.216795 33.213594 64.665433 C 34.24876 63.114071 35.32278 61.587686 36.435653 60.089054 C 37.545751 58.590421 38.691927 57.122317 39.876957 55.679189 C 41.059211 54.236062 42.277544 52.823462 43.531954 51.44139 C 44.78359 50.059318 46.071304 48.707774 47.389545 47.389532 C 48.707786 46.071291 50.059331 44.783577 51.441403 43.531942 C 52.823475 42.277531 54.236074 41.059199 55.679202 39.876944 C 57.122329 38.691915 58.590434 37.545738 60.089066 36.43564 C 61.587699 35.322767 63.114083 34.248747 64.665445 33.213581 C 66.216807 32.175639 67.793146 31.179326 69.391687 30.219092 C 70.993004 29.258857 72.616522 28.340251 74.259467 27.460498 C 75.905188 26.580745 77.57311 25.742621 79.257684 24.946126 C 80.945032 24.146855 82.649033 23.391989 84.375235 22.678751 C 86.098662 21.962738 87.838741 21.291128 89.595471 20.663923 C 91.352201 20.036718 93.122808 19.451141 94.90729 18.909968 C 96.691773 18.36602 98.490131 17.869251 100.299591 17.416886 C 102.109051 16.961746 103.929612 16.553785 105.758498 16.190228 C 107.59016 15.826671 109.427372 15.507518 111.27291 15.232768 C 113.118448 14.960794 114.969536 14.730449 116.826175 14.550058 C 118.682814 14.366892 120.542228 14.22813 122.407193 14.136547 C 124.269382 14.044964 126.134347 14.00056 127.999312 14.00056 C 129.867052 14.00056 131.729241 14.044964 133.594206 14.136547 C 135.456395 14.22813 137.318584 14.366892 139.175223 14.550058 C 141.031862 14.730449 142.882951 14.960794 144.728489 15.232768 C 146.574026 15.507518 148.411239 15.826671 150.240125 16.190228 C 152.069012 16.553785 153.889572 16.961746 155.699032 17.416886 C 157.508492 17.869251 159.306851 18.36602 161.091333 18.909968 C 162.878591 19.451141 164.649197 20.036718 166.405927 20.663923 C 168.162657 21.291128 169.902736 21.962738 171.626163 22.678751 C 173.34959 23.391989 175.053591 24.146855 176.74094 24.946126 C 178.428289 25.742621 180.093436 26.580745 181.739156 27.460498 C 183.384876 28.340251 185.008395 29.258857 186.606936 30.219092 C 188.208252 31.179326 189.784591 32.175639 191.335953 33.213581 C 192.887315 34.248747 194.410925 35.322767 195.909557 36.43564 C 197.408189 37.545738 198.879069 38.691915 200.322197 39.876944 C 201.762549 41.059199 203.175148 42.277531 204.557221 43.531942 C 205.939293 44.783577 207.290837 46.071291 208.609078 47.389532 C 209.930095 48.707774 211.215033 50.059318 212.469444 51.44139 C 213.72108 52.823462 214.939412 54.236062 216.124442 55.679189 C 217.306696 57.122317 218.452872 58.590421 219.565746 60.089054 C 220.675844 61.587686 221.749863 63.114071 222.787805 64.665433 C 223.822971 66.216795 224.82206 67.793134 225.782294 69.391675 C 226.739754 70.992991 227.65836 72.61651 228.538113 74.259455 C 229.417865 75.905175 230.255989 77.573097 231.05526 79.257671 C 231.851755 80.94502 232.609397 82.64902 233.322635 84.375223 C 234.035873 86.09865 234.707482 87.838728 235.334688 89.595459 C 235.964668 91.352189 236.550245 93.122795 237.091418 94.907277 C 237.632591 96.69176 238.129359 98.490119 238.5845 100.299579 C 239.036865 102.109038 239.444826 103.929599 239.808383 105.758485 C 240.174715 107.590147 240.491093 109.427359 240.765842 111.272897 C 241.040591 113.118435 241.268162 114.969524 241.451328 116.826163 C 241.634494 118.682801 241.770481 120.542216 241.862064 122.40718 C 241.953647 124.26937 242.000826 126.134334 242.000826 127.999299 Z M 242.000826 127.999299 " stroke="#010101" stroke-width="20" stroke-opacity="1" stroke-miterlimit="4"/></g><path fill="#010101" d="M 277.566406 363.921875 C 316.027344 332.496094 353.652344 299.980469 392.953125 269.480469 C 372.339844 301.15625 351.140625 332.410156 330.523438 364.085938 C 312.84375 364.171875 295.164062 364.171875 277.566406 363.917969 Z M 310.078125 381.433594 C 327.84375 381.433594 345.523438 381.433594 363.207031 381.683594 C 324.492188 412.941406 287.035156 445.703125 247.648438 476.125 C 268.265625 444.449219 289.464844 413.109375 310.078125 381.433594 Z M 310.078125 381.433594 " fill-opacity="1" fill-rule="nonzero"/></svg>